<svg xmlns="http://www.w3.org/2000/svg" viewBox="0 -20 1280 1010" class="w-full h-auto">
<defs>
<style>.excalidraw-text { font-family: Segoe UI, Arial, sans-serif; }</style>
<marker id="ah" markerWidth="12" markerHeight="8" refX="10" refY="4" orient="auto" markerUnits="strokeWidth">
<polygon points="0 0, 12 4, 0 8" fill="#1e1e1e"/>
</marker>
<marker id="ah-blue" markerWidth="12" markerHeight="8" refX="10" refY="4" orient="auto" markerUnits="strokeWidth">
<polygon points="0 0, 12 4, 0 8" fill="#1976d2"/>
</marker>
<marker id="ah-green" markerWidth="12" markerHeight="8" refX="10" refY="4" orient="auto" markerUnits="strokeWidth">
<polygon points="0 0, 12 4, 0 8" fill="#388e3c"/>
</marker>
<marker id="ah-orange" markerWidth="12" markerHeight="8" refX="10" refY="4" orient="auto" markerUnits="strokeWidth">
<polygon points="0 0, 12 4, 0 8" fill="#f57c00"/>
</marker>
</defs>
<rect x="0" y="-20" width="1280" height="1010" fill="#ffffff"/>
<rect x="40" y="20" width="1200" height="60" stroke="#1976d2" fill="#e3f2fd" stroke-width="2" rx="8" opacity="1"/>
<text x="940" y="78" font-size="28" fill="#1976d2" text-anchor="middle" class="excalidraw-text" opacity="1">KGC ERP RENDSZER ARCHITEKTÚRA</text>
<rect x="100" y="120" width="1080" height="340" stroke="#1976d2" fill="#f0f7fb" stroke-width="3" rx="12" opacity="1"/>
<text x="120" y="160" font-size="20" fill="#1976d2" text-anchor="start" class="excalidraw-text" opacity="1">KGC ERP CORE</text>
<rect x="140" y="180" width="184" height="80" stroke="#1976d2" fill="#e3f2fd" stroke-width="2" rx="8" opacity="1"/>
<text x="282" y="236" font-size="16" fill="#1e1e1e" text-anchor="middle" class="excalidraw-text" opacity="1">Bérlés Modul</text>
<rect x="354" y="180" width="184" height="80" stroke="#1976d2" fill="#e3f2fd" stroke-width="2" rx="8" opacity="1"/>
<text x="506" y="236" font-size="16" fill="#1e1e1e" text-anchor="middle" class="excalidraw-text" opacity="1">Értékesítés Modul</text>
<rect x="568" y="180" width="184" height="80" stroke="#1976d2" fill="#e3f2fd" stroke-width="2" rx="8" opacity="1"/>
<text x="710" y="236" font-size="16" fill="#1e1e1e" text-anchor="middle" class="excalidraw-text" opacity="1">Szerviz Modul</text>
<rect x="782" y="180" width="184" height="80" stroke="#1976d2" fill="#e3f2fd" stroke-width="2" rx="8" opacity="1"/>
<text x="934" y="234" font-size="14" fill="#1e1e1e" text-anchor="middle" class="excalidraw-text" opacity="1">Ügyfélkezelés</text>
<rect x="996" y="180" width="184" height="80" stroke="#1976d2" fill="#e3f2fd" stroke-width="2" rx="8" opacity="1"/>
<text x="1148" y="234" font-size="14" fill="#1e1e1e" text-anchor="middle" class="excalidraw-text" opacity="1">Dolgozókezelés</text>
<rect x="140" y="300" width="1000" height="120" stroke="#f57c00" fill="#fff3e0" stroke-width="2" rx="8" opacity="1"/>
<text x="790" y="333" font-size="18" fill="#f57c00" text-anchor="middle" class="excalidraw-text" opacity="1">INTEGRATION LAYER</text>
<text x="940" y="364" font-size="14" fill="#1e1e1e" text-anchor="middle" class="excalidraw-text" opacity="1">Plugin Manager • Webhook Router • Feature Flags</text>
<text x="940" y="380.8" font-size="14" fill="#1e1e1e" text-anchor="middle" class="excalidraw-text" opacity="1">REST/GraphQL Adapters • Event Bus • API Gateway</text>
<rect x="100" y="520" width="320" height="320" stroke="#7b1fa2" fill="#f3e5f5" stroke-width="3" rx="12" opacity="1"/>
<text x="360" y="560" font-size="20" fill="#7b1fa2" text-anchor="middle" class="excalidraw-text" opacity="1">💬 SUPPORT PLUGIN</text>
<rect x="130" y="590" width="120" height="60" stroke="#7b1fa2" fill="#e1bee7" stroke-width="2" rx="8" opacity="1"/>
<text x="230" y="634" font-size="14" fill="#1e1e1e" text-anchor="middle" class="excalidraw-text" opacity="1">Chatwoot</text>
<rect x="270" y="590" width="120" height="60" stroke="#7b1fa2" fill="#e1bee7" stroke-width="2" rx="8" opacity="1"/>
<text x="370" y="634" font-size="14" fill="#1e1e1e" text-anchor="middle" class="excalidraw-text" opacity="1">Gemini AI</text>
<rect x="130" y="680" width="260" height="50" stroke="#388e3c" fill="#e8f5e9" stroke-width="2" rx="0" opacity="1"/>
<text x="335" y="719" font-size="14" fill="#1e1e1e" text-anchor="middle" class="excalidraw-text" opacity="1">Chatwoot DB (PostgreSQL)</text>
<ellipse cx="260" cy="790" rx="110" ry="30" stroke="#d32f2f" fill="#ffebee" stroke-width="2" opacity="1"/>
<text x="310" y="804" font-size="14" fill="#d32f2f" text-anchor="middle" class="excalidraw-text" opacity="1">Gemini API (External)</text>
<rect x="480" y="520" width="320" height="320" stroke="#7b1fa2" fill="#f3e5f5" stroke-width="3" rx="12" opacity="1"/>
<text x="715" y="560" font-size="20" fill="#7b1fa2" text-anchor="middle" class="excalidraw-text" opacity="1">📊 CRM PLUGIN</text>
<rect x="510" y="590" width="120" height="60" stroke="#7b1fa2" fill="#e1bee7" stroke-width="2" rx="8" opacity="1"/>
<text x="610" y="634" font-size="14" fill="#1e1e1e" text-anchor="middle" class="excalidraw-text" opacity="1">Twenty CRM</text>
<rect x="650" y="590" width="120" height="60" stroke="#7b1fa2" fill="#e1bee7" stroke-width="2" rx="8" opacity="1"/>
<text x="750" y="634" font-size="14" fill="#1e1e1e" text-anchor="middle" class="excalidraw-text" opacity="1">Gmail SMTP</text>
<rect x="510" y="680" width="260" height="50" stroke="#388e3c" fill="#e8f5e9" stroke-width="2" rx="0" opacity="1"/>
<text x="705" y="719" font-size="14" fill="#1e1e1e" text-anchor="middle" class="excalidraw-text" opacity="1">Twenty DB (PostgreSQL)</text>
<rect x="860" y="520" width="320" height="320" stroke="#7b1fa2" fill="#f3e5f5" stroke-width="3" rx="12" opacity="1"/>
<text x="1085" y="560" font-size="20" fill="#7b1fa2" text-anchor="middle" class="excalidraw-text" opacity="1">👥 HR PLUGIN</text>
<rect x="920" y="590" width="200" height="60" stroke="#7b1fa2" fill="#e1bee7" stroke-width="2" rx="8" opacity="1"/>
<text x="1070" y="634" font-size="14" fill="#1e1e1e" text-anchor="middle" class="excalidraw-text" opacity="1">Horilla HRMS</text>
<rect x="890" y="680" width="260" height="50" stroke="#388e3c" fill="#e8f5e9" stroke-width="2" rx="0" opacity="1"/>
<text x="1085" y="719" font-size="14" fill="#1e1e1e" text-anchor="middle" class="excalidraw-text" opacity="1">Horilla DB (PostgreSQL)</text>
<rect x="480" y="880" width="320" height="70" stroke="#388e3c" fill="#e8f5e9" stroke-width="3" rx="8" opacity="1"/>
<text x="740" y="933" font-size="18" fill="#1e1e1e" text-anchor="middle" class="excalidraw-text" opacity="1">KGC Core DB (PostgreSQL)</text>
<path d="M 640 260 L 640 300" stroke="#1976d2" fill="none" stroke-width="3" marker-end="url(#ah-blue)" opacity="1"/>
<path d="M 260 420 L 260 520" stroke="#7b1fa2" fill="none" stroke-width="2" marker-end="url(#ah)" opacity="1"/>
<path d="M 640 420 L 640 520" stroke="#7b1fa2" fill="none" stroke-width="2" marker-end="url(#ah)" opacity="1"/>
<path d="M 1020 420 L 1020 520" stroke="#7b1fa2" fill="none" stroke-width="2" marker-end="url(#ah)" opacity="1"/>
<path d="M 260 730 L 260 760" stroke="#388e3c" fill="none" stroke-width="2" marker-end="url(#ah-green)" opacity="1"/>
<path d="M 640 730 L 640 760" stroke="#388e3c" fill="none" stroke-width="2" marker-end="url(#ah-green)" opacity="1"/>
<path d="M 1020 730 L 1020 760" stroke="#388e3c" fill="none" stroke-width="2" marker-end="url(#ah-green)" opacity="1"/>
<path d="M 640 840 L 640 880" stroke="#388e3c" fill="none" stroke-width="2" marker-end="url(#ah-green)" opacity="1"/>
<path d="M 330 650 L 330 760" stroke="#d32f2f" fill="none" stroke-width="2" marker-end="url(#ah)" opacity="1"/>
</svg>