<svg xmlns="http://www.w3.org/2000/svg" viewBox="-40 -40 1520 980" class="w-full h-auto">
<defs>
<style>.excalidraw-text { font-family: Segoe UI, Arial, sans-serif; }</style>
<marker id="ah" markerWidth="12" markerHeight="8" refX="10" refY="4" orient="auto" markerUnits="strokeWidth">
<polygon points="0 0, 12 4, 0 8" fill="#1e1e1e"/>
</marker>
<marker id="ah-blue" markerWidth="12" markerHeight="8" refX="10" refY="4" orient="auto" markerUnits="strokeWidth">
<polygon points="0 0, 12 4, 0 8" fill="#1976d2"/>
</marker>
<marker id="ah-green" markerWidth="12" markerHeight="8" refX="10" refY="4" orient="auto" markerUnits="strokeWidth">
<polygon points="0 0, 12 4, 0 8" fill="#388e3c"/>
</marker>
<marker id="ah-orange" markerWidth="12" markerHeight="8" refX="10" refY="4" orient="auto" markerUnits="strokeWidth">
<polygon points="0 0, 12 4, 0 8" fill="#f57c00"/>
</marker>
</defs>
<rect x="-40" y="-40" width="1520" height="980" fill="#EAECEF"/>
<rect x="0" y="0" width="1440" height="900" stroke="#D0D4D9" fill="#EAECEF" stroke-width="1" rx="0" opacity="1"/>
<rect x="0" y="0" width="1440" height="64" stroke="#141C24" fill="#1A2634" stroke-width="1" rx="0" opacity="1"/>
<text x="20" y="40" font-size="22" fill="#ffffff" text-anchor="start" class="excalidraw-text" opacity="1">KGC ERP</text>
<text x="130" y="36" font-size="14" fill="#A0AEC0" text-anchor="start" class="excalidraw-text" opacity="1">/ Admin / Beallitasok</text>
<rect x="400" y="14" width="400" height="36" stroke="#D0D4D9" fill="#ffffff" stroke-width="1" rx="4" opacity="1"/>
<text x="415" y="36" font-size="14" fill="#718096" text-anchor="start" class="excalidraw-text" opacity="1">Kereses...</text>
<rect x="1100" y="14" width="120" height="36" stroke="#141C24" fill="#2D3A4A" stroke-width="1" rx="4" opacity="1"/>
<text x="1160" y="35" font-size="13" fill="#ffffff" text-anchor="middle" class="excalidraw-text" opacity="1">KGC Erd</text>
<text x="1260" y="34" font-size="16" fill="#ffffff" text-anchor="middle" class="excalidraw-text" opacity="1">3</text>
<text x="1350" y="32" font-size="14" fill="#ffffff" text-anchor="middle" class="excalidraw-text" opacity="1">Admin</text>
<rect x="0" y="64" width="220" height="836" stroke="#D0D4D9" fill="#F8F9FA" stroke-width="1" rx="0" opacity="1"/>
<text x="20" y="91" font-size="11" fill="#718096" text-anchor="start" class="excalidraw-text" opacity="1">ADMIN BEALLITASOK</text>
<rect x="10" y="105" width="200" height="40" stroke="#FFE4D6" fill="#FFE4D6" stroke-width="1" rx="6" opacity="1"/>
<text x="25" y="129" font-size="14" fill="#BF4400" text-anchor="start" class="excalidraw-text" opacity="1">Felhasznalok</text>
<text x="25" y="174" font-size="14" fill="#4A5568" text-anchor="start" class="excalidraw-text" opacity="1">Jogosultsagok</text>
<text x="25" y="214" font-size="14" fill="#4A5568" text-anchor="start" class="excalidraw-text" opacity="1">Uzlet adatok</text>
<text x="25" y="254" font-size="14" fill="#4A5568" text-anchor="start" class="excalidraw-text" opacity="1">Arkepzes</text>
<text x="25" y="294" font-size="14" fill="#4A5568" text-anchor="start" class="excalidraw-text" opacity="1">Integraciok</text>
<text x="25" y="334" font-size="14" fill="#4A5568" text-anchor="start" class="excalidraw-text" opacity="1">Rendszer</text>
<path d="M 20 370 L 200 370" stroke="#D0D4D9" fill="none" stroke-width="1" opacity="1"/>
<text x="25" y="402" font-size="12" fill="#718096" text-anchor="start" class="excalidraw-text" opacity="1">&lt;- Vissza a Dashboard-ra</text>
<rect x="220" y="64" width="1220" height="836" stroke="transparent" fill="#EAECEF" stroke-width="1" rx="0" opacity="1"/>
<text x="250" y="111" font-size="26" fill="#1A1F26" text-anchor="start" class="excalidraw-text" opacity="1">Felhasznalok</text>
<text x="250" y="131" font-size="13" fill="#718096" text-anchor="start" class="excalidraw-text" opacity="1">Felhasznaloi fiokok es hozzaferesek kezelese</text>
<rect x="1230" y="89" width="160" height="44" stroke="#8A3200" fill="#8A3200" stroke-width="1" rx="6" opacity="1"/>
<rect x="1230" y="85" width="160" height="44" stroke="#BF4400" fill="#BF4400" stroke-width="1" rx="6" opacity="1"/>
<text x="1310" y="111" font-size="14" fill="#ffffff" text-anchor="middle" class="excalidraw-text" opacity="1">+ Uj felhasznalo</text>
<rect x="250" y="150" width="1140" height="50" stroke="#D0D4D9" fill="#F8F9FA" stroke-width="1" rx="8" opacity="1"/>
<text x="270" y="179" font-size="12" fill="#718096" text-anchor="start" class="excalidraw-text" opacity="1">Szerepkor:</text>
<rect x="350" y="158" width="150" height="34" stroke="#D0D4D9" fill="#ffffff" stroke-width="1" rx="4" opacity="1"/>
<text x="365" y="180" font-size="13" fill="#4A5568" text-anchor="start" class="excalidraw-text" opacity="1">Mind</text>
<text x="530" y="179" font-size="12" fill="#718096" text-anchor="start" class="excalidraw-text" opacity="1">Statusz:</text>
<rect x="600" y="158" width="150" height="34" stroke="#D0D4D9" fill="#ffffff" stroke-width="1" rx="4" opacity="1"/>
<text x="615" y="180" font-size="13" fill="#4A5568" text-anchor="start" class="excalidraw-text" opacity="1">Mind</text>
<rect x="1100" y="158" width="270" height="34" stroke="#D0D4D9" fill="#ffffff" stroke-width="1" rx="4" opacity="1"/>
<text x="1115" y="180" font-size="13" fill="#718096" text-anchor="start" class="excalidraw-text" opacity="1">Kereses nev/email...</text>
<rect x="250" y="215" width="840" height="460" stroke="#D0D4D9" fill="#F8F9FA" stroke-width="1" rx="8" opacity="1"/>
<rect x="265" y="230" width="810" height="36" stroke="#EAECEF" fill="#EAECEF" stroke-width="1" rx="4" opacity="1"/>
<text x="280" y="252" font-size="12" fill="#718096" text-anchor="start" class="excalidraw-text" opacity="1">Nev</text>
<text x="440" y="252" font-size="12" fill="#718096" text-anchor="start" class="excalidraw-text" opacity="1">Email</text>
<text x="640" y="252" font-size="12" fill="#718096" text-anchor="start" class="excalidraw-text" opacity="1">Szerepkor</text>
<text x="780" y="252" font-size="12" fill="#718096" text-anchor="start" class="excalidraw-text" opacity="1">Statusz</text>
<text x="900" y="252" font-size="12" fill="#718096" text-anchor="start" class="excalidraw-text" opacity="1">Utolso belepes</text>
<rect x="265" y="275" width="810" height="50" stroke="#FFE4D6" fill="#FFE4D6" stroke-width="1" rx="0" opacity="1"/>
<text x="280" y="306" font-size="14" fill="#1A1F26" text-anchor="start" class="excalidraw-text" opacity="1">Kovacs Janos</text>
<text x="440" y="306" font-size="14" fill="#4A5568" text-anchor="start" class="excalidraw-text" opacity="1">kovacs@kgc.hu</text>
<rect x="640" y="285" width="70" height="24" stroke="#1A2634" fill="#E8EBF0" stroke-width="1" rx="12" opacity="1"/>
<text x="677" y="301" font-size="11" fill="#1A2634" text-anchor="middle" class="excalidraw-text" opacity="1">Admin</text>
<rect x="780" y="285" width="60" height="24" stroke="#4caf50" fill="#e8f5e9" stroke-width="1" rx="12" opacity="1"/>
<text x="810" y="301" font-size="11" fill="#4caf50" text-anchor="middle" class="excalidraw-text" opacity="1">Aktiv</text>
<text x="900" y="305" font-size="13" fill="#718096" text-anchor="start" class="excalidraw-text" opacity="1">Ma, 08:45</text>
<path d="M 265 325 L 1075 325" stroke="#D0D4D9" fill="none" stroke-width="1" opacity="1"/>
<text x="280" y="359" font-size="14" fill="#1A1F26" text-anchor="start" class="excalidraw-text" opacity="1">Nagy Maria</text>
<text x="440" y="359" font-size="14" fill="#4A5568" text-anchor="start" class="excalidraw-text" opacity="1">nagy.m@kgc.hu</text>
<rect x="640" y="338" width="90" height="24" stroke="#9c27b0" fill="#f3e5f5" stroke-width="1" rx="12" opacity="1"/>
<text x="685.5" y="354" font-size="11" fill="#9c27b0" text-anchor="middle" class="excalidraw-text" opacity="1">Boltvezeto</text>
<rect x="780" y="338" width="60" height="24" stroke="#4caf50" fill="#e8f5e9" stroke-width="1" rx="12" opacity="1"/>
<text x="810" y="354" font-size="11" fill="#4caf50" text-anchor="middle" class="excalidraw-text" opacity="1">Aktiv</text>
<text x="900" y="358" font-size="13" fill="#718096" text-anchor="start" class="excalidraw-text" opacity="1">Ma, 07:30</text>
<path d="M 265 375 L 1075 375" stroke="#D0D4D9" fill="none" stroke-width="1" opacity="1"/>
<text x="280" y="409" font-size="14" fill="#1A1F26" text-anchor="start" class="excalidraw-text" opacity="1">Toth Peter</text>
<text x="440" y="409" font-size="14" fill="#4A5568" text-anchor="start" class="excalidraw-text" opacity="1">toth.p@kgc.hu</text>
<rect x="640" y="388" width="60" height="24" stroke="#BF4400" fill="#FFE4D6" stroke-width="1" rx="12" opacity="1"/>
<text x="672" y="404" font-size="11" fill="#BF4400" text-anchor="middle" class="excalidraw-text" opacity="1">Elado</text>
<rect x="780" y="388" width="60" height="24" stroke="#4caf50" fill="#e8f5e9" stroke-width="1" rx="12" opacity="1"/>
<text x="810" y="404" font-size="11" fill="#4caf50" text-anchor="middle" class="excalidraw-text" opacity="1">Aktiv</text>
<text x="900" y="408" font-size="13" fill="#718096" text-anchor="start" class="excalidraw-text" opacity="1">Tegnap, 16:20</text>
<path d="M 265 425 L 1075 425" stroke="#D0D4D9" fill="none" stroke-width="1" opacity="1"/>
<text x="280" y="459" font-size="14" fill="#1A1F26" text-anchor="start" class="excalidraw-text" opacity="1">Szabo Gabor</text>
<text x="440" y="459" font-size="14" fill="#4A5568" text-anchor="start" class="excalidraw-text" opacity="1">szabo.g@kgc.hu</text>
<rect x="640" y="438" width="75" height="24" stroke="#00bcd4" fill="#e0f7fa" stroke-width="1" rx="12" opacity="1"/>
<text x="678" y="454" font-size="11" fill="#00bcd4" text-anchor="middle" class="excalidraw-text" opacity="1">Szervizes</text>
<rect x="780" y="438" width="60" height="24" stroke="#4caf50" fill="#e8f5e9" stroke-width="1" rx="12" opacity="1"/>
<text x="810" y="454" font-size="11" fill="#4caf50" text-anchor="middle" class="excalidraw-text" opacity="1">Aktiv</text>
<text x="900" y="458" font-size="13" fill="#718096" text-anchor="start" class="excalidraw-text" opacity="1">Ma, 09:15</text>
<path d="M 265 475 L 1075 475" stroke="#D0D4D9" fill="none" stroke-width="1" opacity="1"/>
<text x="280" y="509" font-size="14" fill="#1A1F26" text-anchor="start" class="excalidraw-text" opacity="1">Kiss Anna</text>
<text x="440" y="509" font-size="14" fill="#4A5568" text-anchor="start" class="excalidraw-text" opacity="1">kiss.a@kgc.hu</text>
<rect x="640" y="488" width="60" height="24" stroke="#BF4400" fill="#FFE4D6" stroke-width="1" rx="12" opacity="1"/>
<text x="672" y="504" font-size="11" fill="#BF4400" text-anchor="middle" class="excalidraw-text" opacity="1">Elado</text>
<rect x="780" y="488" width="70" height="24" stroke="#718096" fill="#EAECEF" stroke-width="1" rx="12" opacity="1"/>
<text x="815" y="504" font-size="11" fill="#718096" text-anchor="middle" class="excalidraw-text" opacity="1">Inaktiv</text>
<text x="900" y="508" font-size="13" fill="#718096" text-anchor="start" class="excalidraw-text" opacity="1">2025.12.15</text>
<rect x="265" y="630" width="810" height="32" stroke="transparent" fill="transparent" stroke-width="1" rx="0" opacity="1"/>
<text x="280" y="650" font-size="12" fill="#718096" text-anchor="start" class="excalidraw-text" opacity="1">1-5 / 12 felhasznalo</text>
<rect x="950" y="630" width="50" height="32" stroke="#D0D4D9" fill="#F8F9FA" stroke-width="1" rx="4" opacity="1"/>
<text x="975" y="652" font-size="14" fill="#718096" text-anchor="middle" class="excalidraw-text" opacity="1">&lt;</text>
<rect x="1005" y="634" width="32" height="32" stroke="#8A3200" fill="#8A3200" stroke-width="1" rx="4" opacity="1"/>
<rect x="1005" y="630" width="32" height="32" stroke="#BF4400" fill="#BF4400" stroke-width="1" rx="4" opacity="1"/>
<text x="1021" y="652" font-size="14" fill="#ffffff" text-anchor="middle" class="excalidraw-text" opacity="1">1</text>
<rect x="1042" y="630" width="50" height="32" stroke="#D0D4D9" fill="#F8F9FA" stroke-width="1" rx="4" opacity="1"/>
<text x="1067" y="652" font-size="14" fill="#718096" text-anchor="middle" class="excalidraw-text" opacity="1">&gt;</text>
<rect x="1110" y="215" width="280" height="380" stroke="#D0D4D9" fill="#F8F9FA" stroke-width="1" rx="8" opacity="1"/>
<rect x="1110" y="215" width="280" height="80" stroke="#1A2634" fill="#1A2634" stroke-width="1" rx="8" opacity="1"/>
<rect x="1110" y="265" width="280" height="30" stroke="#1A2634" fill="#1A2634" stroke-width="1" rx="0" opacity="1"/>
<ellipse cx="1245" cy="285" rx="35" ry="35" stroke="#ffffff" fill="#FFE4D6" stroke-width="3" opacity="1"/>
<text x="1245" y="292" font-size="22" fill="#BF4400" text-anchor="middle" class="excalidraw-text" opacity="1">KJ</text>
<text x="1320" y="358" font-size="18" fill="#1A1F26" text-anchor="middle" class="excalidraw-text" opacity="1">Kovacs Janos</text>
<rect x="1205" y="370" width="80" height="26" stroke="#1A2634" fill="#E8EBF0" stroke-width="1" rx="13" opacity="1"/>
<text x="1245" y="388" font-size="12" fill="#1A2634" text-anchor="middle" class="excalidraw-text" opacity="1">Admin</text>
<path d="M 1130 410 L 1370 410" stroke="#D0D4D9" fill="none" stroke-width="1" opacity="1"/>
<text x="1130" y="436" font-size="11" fill="#718096" text-anchor="start" class="excalidraw-text" opacity="1">Email:</text>
<text x="1130" y="456" font-size="13" fill="#4A5568" text-anchor="start" class="excalidraw-text" opacity="1">kovacs@kgc.hu</text>
<text x="1130" y="486" font-size="11" fill="#718096" text-anchor="start" class="excalidraw-text" opacity="1">PIN kod:</text>
<text x="1130" y="506" font-size="13" fill="#4A5568" text-anchor="start" class="excalidraw-text" opacity="1">****</text>
<rect x="1280" y="485" width="90" height="30" stroke="#D0D4D9" fill="#F8F9FA" stroke-width="1" rx="4" opacity="1"/>
<text x="1325" y="504" font-size="11" fill="#4A5568" text-anchor="middle" class="excalidraw-text" opacity="1">Modosit</text>
<path d="M 1130 530 L 1370 530" stroke="#D0D4D9" fill="none" stroke-width="1" opacity="1"/>
<rect x="1130" y="554" width="115" height="34" stroke="#8A3200" fill="#8A3200" stroke-width="1" rx="4" opacity="1"/>
<rect x="1130" y="550" width="115" height="34" stroke="#BF4400" fill="#BF4400" stroke-width="1" rx="4" opacity="1"/>
<text x="1187.5" y="572" font-size="12" fill="#ffffff" text-anchor="middle" class="excalidraw-text" opacity="1">Szerkeszt</text>
<rect x="1255" y="550" width="115" height="34" stroke="#f44336" fill="#F8F9FA" stroke-width="1" rx="4" opacity="1"/>
<text x="1312.5" y="572" font-size="12" fill="#f44336" text-anchor="middle" class="excalidraw-text" opacity="1">Torles</text>
<rect x="1110" y="610" width="280" height="160" stroke="#D0D4D9" fill="#F8F9FA" stroke-width="1" rx="8" opacity="1"/>
<text x="1130" y="639" font-size="14" fill="#4A5568" text-anchor="start" class="excalidraw-text" opacity="1">Szerepkorok</text>
<rect x="1130" y="655" width="70" height="24" stroke="#1A2634" fill="#E8EBF0" stroke-width="1" rx="12" opacity="1"/>
<text x="1165.5" y="671" font-size="11" fill="#1A2634" text-anchor="middle" class="excalidraw-text" opacity="1">Admin</text>
<text x="1210" y="671" font-size="11" fill="#718096" text-anchor="start" class="excalidraw-text" opacity="1">Teljes hozzaferes</text>
<rect x="1130" y="685" width="90" height="24" stroke="#9c27b0" fill="#f3e5f5" stroke-width="1" rx="12" opacity="1"/>
<text x="1175.5" y="701" font-size="11" fill="#9c27b0" text-anchor="middle" class="excalidraw-text" opacity="1">Boltvezeto</text>
<text x="1230" y="701" font-size="11" fill="#718096" text-anchor="start" class="excalidraw-text" opacity="1">Uzlet szintu jogok</text>
<rect x="1130" y="715" width="60" height="24" stroke="#BF4400" fill="#FFE4D6" stroke-width="1" rx="12" opacity="1"/>
<text x="1160" y="731" font-size="11" fill="#BF4400" text-anchor="middle" class="excalidraw-text" opacity="1">Elado</text>
<text x="1200" y="731" font-size="11" fill="#718096" text-anchor="start" class="excalidraw-text" opacity="1">Ertekesites, berles</text>
<rect x="1130" y="745" width="75" height="24" stroke="#00bcd4" fill="#e0f7fa" stroke-width="1" rx="12" opacity="1"/>
<text x="1167.5" y="761" font-size="11" fill="#00bcd4" text-anchor="middle" class="excalidraw-text" opacity="1">Szervizes</text>
<text x="1215" y="761" font-size="11" fill="#718096" text-anchor="start" class="excalidraw-text" opacity="1">Szerviz muveletek</text>
<rect x="250" y="695" width="840" height="80" stroke="#D0D4D9" fill="#F8F9FA" stroke-width="1" rx="8" opacity="1"/>
<text x="270" y="724" font-size="14" fill="#4A5568" text-anchor="start" class="excalidraw-text" opacity="1">Osszesites</text>
<text x="270" y="760" font-size="20" fill="#BF4400" text-anchor="start" class="excalidraw-text" opacity="1">12</text>
<text x="305" y="757" font-size="12" fill="#718096" text-anchor="start" class="excalidraw-text" opacity="1">osszes felhasznalo</text>
<path d="M 440 710 L 440 760" stroke="#D0D4D9" fill="none" stroke-width="1" opacity="1"/>
<text x="470" y="760" font-size="20" fill="#4caf50" text-anchor="start" class="excalidraw-text" opacity="1">10</text>
<text x="505" y="757" font-size="12" fill="#718096" text-anchor="start" class="excalidraw-text" opacity="1">aktiv</text>
<path d="M 590 710 L 590 760" stroke="#D0D4D9" fill="none" stroke-width="1" opacity="1"/>
<text x="620" y="760" font-size="20" fill="#718096" text-anchor="start" class="excalidraw-text" opacity="1">2</text>
<text x="645" y="757" font-size="12" fill="#718096" text-anchor="start" class="excalidraw-text" opacity="1">inaktiv</text>
<path d="M 730 710 L 730 760" stroke="#D0D4D9" fill="none" stroke-width="1" opacity="1"/>
<text x="760" y="760" font-size="20" fill="#4caf50" text-anchor="start" class="excalidraw-text" opacity="1">4</text>
<text x="785" y="757" font-size="12" fill="#718096" text-anchor="start" class="excalidraw-text" opacity="1">jelenleg online</text>
</svg>