<svg xmlns="http://www.w3.org/2000/svg" viewBox="-40 -40 1520 980" class="w-full h-auto">
<defs>
<style>.excalidraw-text { font-family: Segoe UI, Arial, sans-serif; }</style>
<marker id="ah" markerWidth="12" markerHeight="8" refX="10" refY="4" orient="auto" markerUnits="strokeWidth">
<polygon points="0 0, 12 4, 0 8" fill="#1e1e1e"/>
</marker>
<marker id="ah-blue" markerWidth="12" markerHeight="8" refX="10" refY="4" orient="auto" markerUnits="strokeWidth">
<polygon points="0 0, 12 4, 0 8" fill="#1976d2"/>
</marker>
<marker id="ah-green" markerWidth="12" markerHeight="8" refX="10" refY="4" orient="auto" markerUnits="strokeWidth">
<polygon points="0 0, 12 4, 0 8" fill="#388e3c"/>
</marker>
<marker id="ah-orange" markerWidth="12" markerHeight="8" refX="10" refY="4" orient="auto" markerUnits="strokeWidth">
<polygon points="0 0, 12 4, 0 8" fill="#f57c00"/>
</marker>
</defs>
<rect x="-40" y="-40" width="1520" height="980" fill="#EAECEF"/>
<rect x="0" y="0" width="1440" height="900" stroke="#D0D4D9" fill="#EAECEF" stroke-width="1" rx="0" opacity="1"/>
<rect x="0" y="0" width="1440" height="64" stroke="#1A2634" fill="#1A2634" stroke-width="1" rx="0" opacity="1"/>
<text x="20" y="40" font-size="22" fill="#BF4400" text-anchor="start" class="excalidraw-text" opacity="1">KGC ERP</text>
<text x="130" y="36" font-size="14" fill="#718096" text-anchor="start" class="excalidraw-text" opacity="1">/ Admin / Jogosultsagok (RBAC)</text>
<rect x="1100" y="14" width="120" height="36" stroke="#374151" fill="#374151" stroke-width="1" rx="4" opacity="1"/>
<text x="1160" y="35" font-size="13" fill="#ffffff" text-anchor="middle" class="excalidraw-text" opacity="1">KGC Erd</text>
<text x="1350" y="32" font-size="14" fill="#ffffff" text-anchor="middle" class="excalidraw-text" opacity="1">Admin</text>
<rect x="0" y="64" width="220" height="836" stroke="#D0D4D9" fill="#F8F9FA" stroke-width="1" rx="0" opacity="1"/>
<text x="20" y="91" font-size="11" fill="#718096" text-anchor="start" class="excalidraw-text" opacity="1">ADMIN BEALLITASOK</text>
<text x="25" y="124" font-size="14" fill="#1A1F26" text-anchor="start" class="excalidraw-text" opacity="1">Felhasznalok</text>
<rect x="10" y="140" width="200" height="40" stroke="#FFF4ED" fill="#FFF4ED" stroke-width="1" rx="6" opacity="1"/>
<text x="25" y="166" font-size="14" fill="#BF4400" text-anchor="start" class="excalidraw-text" opacity="1">Jogosultsagok</text>
<text x="25" y="214" font-size="14" fill="#1A1F26" text-anchor="start" class="excalidraw-text" opacity="1">Uzlet adatok</text>
<text x="25" y="254" font-size="14" fill="#1A1F26" text-anchor="start" class="excalidraw-text" opacity="1">Arkepzes</text>
<rect x="220" y="64" width="1220" height="836" stroke="transparent" fill="#EAECEF" stroke-width="1" rx="0" opacity="1"/>
<text x="250" y="111" font-size="26" fill="#1A1F26" text-anchor="start" class="excalidraw-text" opacity="1">Jogosultsagok (RBAC)</text>
<text x="250" y="131" font-size="13" fill="#4A5568" text-anchor="start" class="excalidraw-text" opacity="1">Szerepkorok es jogosultsagok kezelese (Role-Based Access Control)</text>
<rect x="1230" y="89" width="160" height="44" stroke="#8A3200" fill="#8A3200" stroke-width="1" rx="4" opacity="1"/>
<rect x="1230" y="85" width="160" height="44" stroke="#BF4400" fill="#BF4400" stroke-width="1" rx="4" opacity="1"/>
<text x="1310" y="111" font-size="14" fill="#ffffff" text-anchor="middle" class="excalidraw-text" opacity="1">+ Uj szerepkor</text>
<rect x="250" y="150" width="1140" height="50" stroke="#D0D4D9" fill="#F8F9FA" stroke-width="1" rx="8" opacity="1"/>
<rect x="260" y="158" width="140" height="34" stroke="#BF4400" fill="#FFF4ED" stroke-width="2" rx="4" opacity="1"/>
<text x="330" y="180" font-size="13" fill="#BF4400" text-anchor="middle" class="excalidraw-text" opacity="1">Szerepkorok (7)</text>
<text x="490" y="180" font-size="13" fill="#4A5568" text-anchor="middle" class="excalidraw-text" opacity="1">Jogosultsagok (42)</text>
<text x="630" y="180" font-size="13" fill="#4A5568" text-anchor="middle" class="excalidraw-text" opacity="1">Audit Log</text>
<rect x="250" y="215" width="400" height="560" stroke="#D0D4D9" fill="#F8F9FA" stroke-width="1" rx="8" opacity="1"/>
<text x="270" y="246" font-size="16" fill="#1A1F26" text-anchor="start" class="excalidraw-text" opacity="1">Szerepkorok</text>
<rect x="265" y="265" width="370" height="60" stroke="#BF4400" fill="#FFF4ED" stroke-width="2" rx="6" opacity="1"/>
<text x="295" y="294" font-size="14" fill="#BF4400" text-anchor="middle" class="excalidraw-text" opacity="1">SA</text>
<text x="320" y="289" font-size="14" fill="#1A1F26" text-anchor="start" class="excalidraw-text" opacity="1">Super Admin</text>
<text x="320" y="307" font-size="12" fill="#4A5568" text-anchor="start" class="excalidraw-text" opacity="1">Teljes rendszer hozzaferes</text>
<text x="620" y="297" font-size="12" fill="#718096" text-anchor="end" class="excalidraw-text" opacity="1">2 fo</text>
<rect x="265" y="335" width="370" height="60" stroke="#D0D4D9" fill="#F8F9FA" stroke-width="1" rx="6" opacity="1"/>
<text x="295" y="364" font-size="14" fill="#1565A8" text-anchor="middle" class="excalidraw-text" opacity="1">FA</text>
<text x="320" y="359" font-size="14" fill="#1A1F26" text-anchor="start" class="excalidraw-text" opacity="1">Franchise Admin</text>
<text x="320" y="377" font-size="12" fill="#4A5568" text-anchor="start" class="excalidraw-text" opacity="1">Franchise szintu kezeles</text>
<text x="620" y="367" font-size="12" fill="#718096" text-anchor="end" class="excalidraw-text" opacity="1">3 fo</text>
<rect x="265" y="405" width="370" height="60" stroke="#D0D4D9" fill="#F8F9FA" stroke-width="1" rx="6" opacity="1"/>
<text x="295" y="434" font-size="14" fill="#9c27b0" text-anchor="middle" class="excalidraw-text" opacity="1">BV</text>
<text x="320" y="429" font-size="14" fill="#1A1F26" text-anchor="start" class="excalidraw-text" opacity="1">Boltvezeto</text>
<text x="320" y="447" font-size="12" fill="#4A5568" text-anchor="start" class="excalidraw-text" opacity="1">Uzlet kezeles, +-20% kedvezmeny</text>
<rect x="430" y="412" width="45" height="20" stroke="#4caf50" fill="#e8f5e9" stroke-width="1" rx="10" opacity="1"/>
<text x="453" y="425" font-size="10" fill="#4caf50" text-anchor="middle" class="excalidraw-text" opacity="1">NEW</text>
<text x="620" y="437" font-size="12" fill="#718096" text-anchor="end" class="excalidraw-text" opacity="1">5 fo</text>
<rect x="265" y="475" width="370" height="60" stroke="#D0D4D9" fill="#F8F9FA" stroke-width="1" rx="6" opacity="1"/>
<text x="295" y="504" font-size="14" fill="#ff9800" text-anchor="middle" class="excalidraw-text" opacity="1">EL</text>
<text x="320" y="499" font-size="14" fill="#1A1F26" text-anchor="start" class="excalidraw-text" opacity="1">Elado/Pultos</text>
<text x="320" y="517" font-size="12" fill="#4A5568" text-anchor="start" class="excalidraw-text" opacity="1">Ertekesites, berles, penztar</text>
<text x="620" y="507" font-size="12" fill="#718096" text-anchor="end" class="excalidraw-text" opacity="1">8 fo</text>
<rect x="265" y="545" width="370" height="60" stroke="#D0D4D9" fill="#F8F9FA" stroke-width="1" rx="6" opacity="1"/>
<text x="295" y="574" font-size="14" fill="#00bcd4" text-anchor="middle" class="excalidraw-text" opacity="1">SZ</text>
<text x="320" y="569" font-size="14" fill="#1A1F26" text-anchor="start" class="excalidraw-text" opacity="1">Szerviz Technikus</text>
<text x="320" y="587" font-size="12" fill="#4A5568" text-anchor="start" class="excalidraw-text" opacity="1">Munkalap, szerviz muveletek</text>
<text x="620" y="577" font-size="12" fill="#718096" text-anchor="end" class="excalidraw-text" opacity="1">6 fo</text>
<rect x="265" y="615" width="370" height="60" stroke="#D0D4D9" fill="#F8F9FA" stroke-width="1" rx="6" opacity="1"/>
<text x="295" y="644" font-size="14" fill="#607d8b" text-anchor="middle" class="excalidraw-text" opacity="1">RK</text>
<text x="320" y="639" font-size="14" fill="#1A1F26" text-anchor="start" class="excalidraw-text" opacity="1">Raktaros</text>
<text x="320" y="657" font-size="12" fill="#4A5568" text-anchor="start" class="excalidraw-text" opacity="1">Keszlet kezeles, arumozgas</text>
<text x="620" y="647" font-size="12" fill="#718096" text-anchor="end" class="excalidraw-text" opacity="1">4 fo</text>
<rect x="265" y="685" width="370" height="60" stroke="#D0D4D9" fill="#F8F9FA" stroke-width="1" rx="6" opacity="1"/>
<text x="295" y="714" font-size="14" fill="#795548" text-anchor="middle" class="excalidraw-text" opacity="1">KO</text>
<text x="320" y="709" font-size="14" fill="#1A1F26" text-anchor="start" class="excalidraw-text" opacity="1">Konyvelo</text>
<text x="320" y="727" font-size="12" fill="#4A5568" text-anchor="start" class="excalidraw-text" opacity="1">Riportok, szamlak, zarasok</text>
<text x="620" y="717" font-size="12" fill="#718096" text-anchor="end" class="excalidraw-text" opacity="1">2 fo</text>
<rect x="670" y="215" width="720" height="560" stroke="#D0D4D9" fill="#F8F9FA" stroke-width="1" rx="8" opacity="1"/>
<rect x="670" y="215" width="720" height="60" stroke="#BF4400" fill="#FFF4ED" stroke-width="1" rx="8" opacity="1"/>
<rect x="670" y="255" width="720" height="20" stroke="#FFF4ED" fill="#FFF4ED" stroke-width="1" rx="0" opacity="1"/>
<text x="700" y="253" font-size="18" fill="#BF4400" text-anchor="start" class="excalidraw-text" opacity="1">Super Admin</text>
<rect x="1260" y="229" width="110" height="36" stroke="#8A3200" fill="#8A3200" stroke-width="1" rx="4" opacity="1"/>
<rect x="1260" y="225" width="110" height="36" stroke="#BF4400" fill="#BF4400" stroke-width="1" rx="4" opacity="1"/>
<text x="1315" y="248" font-size="13" fill="#ffffff" text-anchor="middle" class="excalidraw-text" opacity="1">Szerkeszt</text>
<text x="700" y="304" font-size="14" fill="#1A1F26" text-anchor="start" class="excalidraw-text" opacity="1">Jogosultsagok</text>
<text x="700" y="331" font-size="11" fill="#718096" text-anchor="start" class="excalidraw-text" opacity="1">FELHASZNALOK</text>
<rect x="700" y="345" width="18" height="18" stroke="#4caf50" fill="#4caf50" stroke-width="1" rx="3" opacity="1"/>
<text x="725" y="359" font-size="12" fill="#1A1F26" text-anchor="start" class="excalidraw-text" opacity="1">users.create</text>
<rect x="860" y="345" width="18" height="18" stroke="#4caf50" fill="#4caf50" stroke-width="1" rx="3" opacity="1"/>
<text x="885" y="359" font-size="12" fill="#1A1F26" text-anchor="start" class="excalidraw-text" opacity="1">users.read</text>
<rect x="1010" y="345" width="18" height="18" stroke="#4caf50" fill="#4caf50" stroke-width="1" rx="3" opacity="1"/>
<text x="1035" y="359" font-size="12" fill="#1A1F26" text-anchor="start" class="excalidraw-text" opacity="1">users.update</text>
<rect x="1160" y="345" width="18" height="18" stroke="#4caf50" fill="#4caf50" stroke-width="1" rx="3" opacity="1"/>
<text x="1185" y="359" font-size="12" fill="#1A1F26" text-anchor="start" class="excalidraw-text" opacity="1">users.delete</text>
<text x="700" y="391" font-size="11" fill="#718096" text-anchor="start" class="excalidraw-text" opacity="1">BERLES</text>
<rect x="700" y="405" width="18" height="18" stroke="#4caf50" fill="#4caf50" stroke-width="1" rx="3" opacity="1"/>
<text x="725" y="419" font-size="12" fill="#1A1F26" text-anchor="start" class="excalidraw-text" opacity="1">rentals.create</text>
<rect x="860" y="405" width="18" height="18" stroke="#4caf50" fill="#4caf50" stroke-width="1" rx="3" opacity="1"/>
<text x="885" y="419" font-size="12" fill="#1A1F26" text-anchor="start" class="excalidraw-text" opacity="1">rentals.return</text>
<rect x="1010" y="405" width="18" height="18" stroke="#4caf50" fill="#4caf50" stroke-width="1" rx="3" opacity="1"/>
<text x="1035" y="419" font-size="12" fill="#1A1F26" text-anchor="start" class="excalidraw-text" opacity="1">rentals.cancel</text>
<rect x="1160" y="405" width="18" height="18" stroke="#4caf50" fill="#4caf50" stroke-width="1" rx="3" opacity="1"/>
<text x="1185" y="419" font-size="12" fill="#1A1F26" text-anchor="start" class="excalidraw-text" opacity="1">rentals.discount.max</text>
<text x="700" y="451" font-size="11" fill="#718096" text-anchor="start" class="excalidraw-text" opacity="1">SZERVIZ</text>
<rect x="700" y="465" width="18" height="18" stroke="#4caf50" fill="#4caf50" stroke-width="1" rx="3" opacity="1"/>
<text x="725" y="479" font-size="12" fill="#1A1F26" text-anchor="start" class="excalidraw-text" opacity="1">service.create</text>
<rect x="860" y="465" width="18" height="18" stroke="#4caf50" fill="#4caf50" stroke-width="1" rx="3" opacity="1"/>
<text x="885" y="479" font-size="12" fill="#1A1F26" text-anchor="start" class="excalidraw-text" opacity="1">service.close</text>
<rect x="1010" y="465" width="18" height="18" stroke="#4caf50" fill="#4caf50" stroke-width="1" rx="3" opacity="1"/>
<text x="1035" y="479" font-size="12" fill="#1A1F26" text-anchor="start" class="excalidraw-text" opacity="1">service.destroy</text>
<text x="700" y="511" font-size="11" fill="#718096" text-anchor="start" class="excalidraw-text" opacity="1">PENZUGY</text>
<rect x="700" y="525" width="18" height="18" stroke="#4caf50" fill="#4caf50" stroke-width="1" rx="3" opacity="1"/>
<text x="725" y="539" font-size="12" fill="#1A1F26" text-anchor="start" class="excalidraw-text" opacity="1">finance.invoices</text>
<rect x="860" y="525" width="18" height="18" stroke="#4caf50" fill="#4caf50" stroke-width="1" rx="3" opacity="1"/>
<text x="885" y="539" font-size="12" fill="#1A1F26" text-anchor="start" class="excalidraw-text" opacity="1">finance.reports</text>
<rect x="1010" y="525" width="18" height="18" stroke="#4caf50" fill="#4caf50" stroke-width="1" rx="3" opacity="1"/>
<text x="1035" y="539" font-size="12" fill="#1A1F26" text-anchor="start" class="excalidraw-text" opacity="1">finance.closing</text>
<rect x="1160" y="525" width="18" height="18" stroke="#4caf50" fill="#4caf50" stroke-width="1" rx="3" opacity="1"/>
<text x="1185" y="539" font-size="12" fill="#1A1F26" text-anchor="start" class="excalidraw-text" opacity="1">finance.invoice_visibility</text>
<text x="700" y="571" font-size="11" fill="#718096" text-anchor="start" class="excalidraw-text" opacity="1">ADMIN</text>
<rect x="700" y="585" width="18" height="18" stroke="#4caf50" fill="#4caf50" stroke-width="1" rx="3" opacity="1"/>
<text x="725" y="599" font-size="12" fill="#1A1F26" text-anchor="start" class="excalidraw-text" opacity="1">admin.settings</text>
<rect x="860" y="585" width="18" height="18" stroke="#4caf50" fill="#4caf50" stroke-width="1" rx="3" opacity="1"/>
<text x="885" y="599" font-size="12" fill="#1A1F26" text-anchor="start" class="excalidraw-text" opacity="1">admin.roles</text>
<rect x="1010" y="585" width="18" height="18" stroke="#4caf50" fill="#4caf50" stroke-width="1" rx="3" opacity="1"/>
<text x="1035" y="599" font-size="12" fill="#1A1F26" text-anchor="start" class="excalidraw-text" opacity="1">admin.audit</text>
<rect x="1160" y="585" width="18" height="18" stroke="#4caf50" fill="#4caf50" stroke-width="1" rx="3" opacity="1"/>
<text x="1185" y="599" font-size="12" fill="#1A1F26" text-anchor="start" class="excalidraw-text" opacity="1">admin.franchise</text>
<text x="700" y="644" font-size="14" fill="#1A1F26" text-anchor="start" class="excalidraw-text" opacity="1">Felhasznalok ezzel a szereppel (2)</text>
<rect x="700" y="660" width="320" height="50" stroke="#D0D4D9" fill="#EAECEF" stroke-width="1" rx="6" opacity="1"/>
<ellipse cx="732" cy="685" rx="17" ry="17" stroke="#BF4400" fill="#FFF4ED" stroke-width="1" opacity="1"/>
<text x="733" y="689" font-size="12" fill="#BF4400" text-anchor="middle" class="excalidraw-text" opacity="1">KJ</text>
<text x="760" y="685" font-size="13" fill="#1A1F26" text-anchor="start" class="excalidraw-text" opacity="1">Kovacs Janos</text>
<text x="760" y="701" font-size="11" fill="#4A5568" text-anchor="start" class="excalidraw-text" opacity="1">kovacs@kgc.hu</text>
<rect x="1040" y="660" width="320" height="50" stroke="#D0D4D9" fill="#EAECEF" stroke-width="1" rx="6" opacity="1"/>
<ellipse cx="1072" cy="685" rx="17" ry="17" stroke="#BF4400" fill="#FFF4ED" stroke-width="1" opacity="1"/>
<text x="1073" y="689" font-size="12" fill="#BF4400" text-anchor="middle" class="excalidraw-text" opacity="1">SG</text>
<text x="1100" y="685" font-size="13" fill="#1A1F26" text-anchor="start" class="excalidraw-text" opacity="1">Szabo Gabor</text>
<text x="1100" y="701" font-size="11" fill="#4A5568" text-anchor="start" class="excalidraw-text" opacity="1">szabo.g@kgc.hu</text>
<text x="250" y="812" font-size="12" fill="#718096" text-anchor="start" class="excalidraw-text" opacity="1">Osszesen: 7 szerepkor, 42 jogosultsag, 30 felhasznalo</text>
</svg>