<svg xmlns="http://www.w3.org/2000/svg" viewBox="-40 -40 1520 980" class="w-full h-auto">
<defs>
<style>.excalidraw-text { font-family: Segoe UI, Arial, sans-serif; }</style>
<marker id="ah" markerWidth="12" markerHeight="8" refX="10" refY="4" orient="auto" markerUnits="strokeWidth">
<polygon points="0 0, 12 4, 0 8" fill="#1e1e1e"/>
</marker>
<marker id="ah-blue" markerWidth="12" markerHeight="8" refX="10" refY="4" orient="auto" markerUnits="strokeWidth">
<polygon points="0 0, 12 4, 0 8" fill="#1976d2"/>
</marker>
<marker id="ah-green" markerWidth="12" markerHeight="8" refX="10" refY="4" orient="auto" markerUnits="strokeWidth">
<polygon points="0 0, 12 4, 0 8" fill="#388e3c"/>
</marker>
<marker id="ah-orange" markerWidth="12" markerHeight="8" refX="10" refY="4" orient="auto" markerUnits="strokeWidth">
<polygon points="0 0, 12 4, 0 8" fill="#f57c00"/>
</marker>
</defs>
<rect x="-40" y="-40" width="1520" height="980" fill="#EAECEF"/>
<rect x="0" y="0" width="1440" height="900" stroke="#D0D4D9" fill="#EAECEF" stroke-width="1" rx="0" opacity="1"/>
<rect x="0" y="0" width="1440" height="64" stroke="#1A2634" fill="#1A2634" stroke-width="1" rx="0" opacity="1"/>
<text x="20" y="40" font-size="22" fill="#BF4400" text-anchor="start" class="excalidraw-text" opacity="1">KGC ERP</text>
<text x="130" y="36" font-size="14" fill="#718096" text-anchor="start" class="excalidraw-text" opacity="1">/ Admin / Franchise Konfiguracio</text>
<text x="1350" y="32" font-size="14" fill="#ffffff" text-anchor="middle" class="excalidraw-text" opacity="1">Super Admin</text>
<rect x="0" y="64" width="220" height="836" stroke="#D0D4D9" fill="#F8F9FA" stroke-width="1" rx="0" opacity="1"/>
<text x="20" y="91" font-size="11" fill="#718096" text-anchor="start" class="excalidraw-text" opacity="1">FRANCHISE ADMIN</text>
<rect x="10" y="105" width="200" height="40" stroke="#FFF4ED" fill="#FFF4ED" stroke-width="1" rx="6" opacity="1"/>
<text x="25" y="131" font-size="14" fill="#BF4400" text-anchor="start" class="excalidraw-text" opacity="1">Franchise-ok</text>
<text x="25" y="174" font-size="14" fill="#4A5568" text-anchor="start" class="excalidraw-text" opacity="1">Uzletek</text>
<text x="25" y="214" font-size="14" fill="#4A5568" text-anchor="start" class="excalidraw-text" opacity="1">White Label</text>
<text x="25" y="254" font-size="14" fill="#4A5568" text-anchor="start" class="excalidraw-text" opacity="1">Arkepzes</text>
<text x="25" y="294" font-size="14" fill="#4A5568" text-anchor="start" class="excalidraw-text" opacity="1">Integraciok</text>
<rect x="220" y="64" width="1220" height="836" stroke="transparent" fill="#EAECEF" stroke-width="1" rx="0" opacity="1"/>
<text x="250" y="111" font-size="26" fill="#1A1F26" text-anchor="start" class="excalidraw-text" opacity="1">Franchise-ok</text>
<text x="250" y="131" font-size="13" fill="#4A5568" text-anchor="start" class="excalidraw-text" opacity="1">Franchise halozat es uzletek kezelese</text>
<rect x="1230" y="89" width="160" height="44" stroke="#8A3200" fill="#8A3200" stroke-width="1" rx="4" opacity="1"/>
<rect x="1230" y="85" width="160" height="44" stroke="#BF4400" fill="#BF4400" stroke-width="1" rx="4" opacity="1"/>
<text x="1310" y="111" font-size="14" fill="#ffffff" text-anchor="middle" class="excalidraw-text" opacity="1">+ Uj Franchise</text>
<rect x="250" y="150" width="360" height="280" stroke="#BF4400" fill="#F8F9FA" stroke-width="2" rx="8" opacity="1"/>
<rect x="250" y="150" width="360" height="60" stroke="#BF4400" fill="#BF4400" stroke-width="1" rx="8" opacity="1"/>
<rect x="250" y="190" width="360" height="20" stroke="#BF4400" fill="#BF4400" stroke-width="1" rx="0" opacity="1"/>
<text x="270" y="186" font-size="18" fill="#ffffff" text-anchor="start" class="excalidraw-text" opacity="1">KGC Kisgepcentrum</text>
<rect x="530" y="165" width="60" height="24" stroke="#4caf50" fill="#e8f5e9" stroke-width="1" rx="12" opacity="1"/>
<text x="560" y="181" font-size="11" fill="#4caf50" text-anchor="middle" class="excalidraw-text" opacity="1">Aktiv</text>
<text x="270" y="237" font-size="12" fill="#4A5568" text-anchor="start" class="excalidraw-text" opacity="1">Uzletek:</text>
<text x="335" y="237" font-size="12" fill="#1A1F26" text-anchor="start" class="excalidraw-text" opacity="1">5 uzlet</text>
<text x="430" y="237" font-size="12" fill="#4A5568" text-anchor="start" class="excalidraw-text" opacity="1">Felhasznalok:</text>
<text x="520" y="237" font-size="12" fill="#1A1F26" text-anchor="start" class="excalidraw-text" opacity="1">18 fo</text>
<path d="M 270 255 L 590 255" stroke="#D0D4D9" fill="none" stroke-width="1" opacity="1"/>
<text x="280" y="283" font-size="13" fill="#1A1F26" text-anchor="start" class="excalidraw-text" opacity="1">KGC Erd</text>
<ellipse cx="270" cy="277" rx="5" ry="5" stroke="#4caf50" fill="#4caf50" stroke-width="1" opacity="1"/>
<text x="280" y="308" font-size="13" fill="#1A1F26" text-anchor="start" class="excalidraw-text" opacity="1">KGC Buda</text>
<ellipse cx="270" cy="302" rx="5" ry="5" stroke="#4caf50" fill="#4caf50" stroke-width="1" opacity="1"/>
<text x="280" y="333" font-size="13" fill="#1A1F26" text-anchor="start" class="excalidraw-text" opacity="1">KGC Pest</text>
<ellipse cx="270" cy="327" rx="5" ry="5" stroke="#4caf50" fill="#4caf50" stroke-width="1" opacity="1"/>
<text x="280" y="358" font-size="13" fill="#1A1F26" text-anchor="start" class="excalidraw-text" opacity="1">KGC Debrecen</text>
<ellipse cx="270" cy="352" rx="5" ry="5" stroke="#ff9800" fill="#ff9800" stroke-width="1" opacity="1"/>
<text x="280" y="382" font-size="12" fill="#718096" text-anchor="start" class="excalidraw-text" opacity="1">+1 masik...</text>
<rect x="270" y="399" width="150" height="36" stroke="#8A3200" fill="#8A3200" stroke-width="1" rx="4" opacity="1"/>
<rect x="270" y="395" width="150" height="36" stroke="#BF4400" fill="#BF4400" stroke-width="1" rx="4" opacity="1"/>
<text x="345" y="418" font-size="13" fill="#ffffff" text-anchor="middle" class="excalidraw-text" opacity="1">Reszletek</text>
<rect x="440" y="395" width="150" height="36" stroke="#D0D4D9" fill="#F8F9FA" stroke-width="1" rx="4" opacity="1"/>
<text x="515" y="418" font-size="13" fill="#4A5568" text-anchor="middle" class="excalidraw-text" opacity="1">Beallitasok</text>
<rect x="630" y="150" width="360" height="280" stroke="#D0D4D9" fill="#F8F9FA" stroke-width="1" rx="8" opacity="1"/>
<rect x="630" y="150" width="360" height="60" stroke="#1565A8" fill="#1565A8" stroke-width="1" rx="8" opacity="1"/>
<rect x="630" y="190" width="360" height="20" stroke="#1565A8" fill="#1565A8" stroke-width="1" rx="0" opacity="1"/>
<text x="650" y="186" font-size="18" fill="#ffffff" text-anchor="start" class="excalidraw-text" opacity="1">ProfiGep Partner</text>
<rect x="910" y="165" width="60" height="24" stroke="#4caf50" fill="#e8f5e9" stroke-width="1" rx="12" opacity="1"/>
<text x="940" y="181" font-size="11" fill="#4caf50" text-anchor="middle" class="excalidraw-text" opacity="1">Aktiv</text>
<text x="650" y="237" font-size="12" fill="#4A5568" text-anchor="start" class="excalidraw-text" opacity="1">Uzletek:</text>
<text x="715" y="237" font-size="12" fill="#1A1F26" text-anchor="start" class="excalidraw-text" opacity="1">3 uzlet</text>
<text x="810" y="237" font-size="12" fill="#4A5568" text-anchor="start" class="excalidraw-text" opacity="1">Felhasznalok:</text>
<text x="900" y="237" font-size="12" fill="#1A1F26" text-anchor="start" class="excalidraw-text" opacity="1">9 fo</text>
<path d="M 650 255 L 970 255" stroke="#D0D4D9" fill="none" stroke-width="1" opacity="1"/>
<text x="660" y="283" font-size="13" fill="#1A1F26" text-anchor="start" class="excalidraw-text" opacity="1">ProfiGep Szeged</text>
<ellipse cx="650" cy="277" rx="5" ry="5" stroke="#4caf50" fill="#4caf50" stroke-width="1" opacity="1"/>
<text x="660" y="308" font-size="13" fill="#1A1F26" text-anchor="start" class="excalidraw-text" opacity="1">ProfiGep Gyor</text>
<ellipse cx="650" cy="302" rx="5" ry="5" stroke="#4caf50" fill="#4caf50" stroke-width="1" opacity="1"/>
<text x="660" y="333" font-size="13" fill="#1A1F26" text-anchor="start" class="excalidraw-text" opacity="1">ProfiGep Pecs</text>
<ellipse cx="650" cy="327" rx="5" ry="5" stroke="#4caf50" fill="#4caf50" stroke-width="1" opacity="1"/>
<rect x="650" y="399" width="150" height="36" stroke="#0d47a1" fill="#0d47a1" stroke-width="1" rx="4" opacity="1"/>
<rect x="650" y="395" width="150" height="36" stroke="#1565A8" fill="#1565A8" stroke-width="1" rx="4" opacity="1"/>
<text x="725" y="418" font-size="13" fill="#ffffff" text-anchor="middle" class="excalidraw-text" opacity="1">Reszletek</text>
<rect x="820" y="395" width="150" height="36" stroke="#D0D4D9" fill="#F8F9FA" stroke-width="1" rx="4" opacity="1"/>
<text x="895" y="418" font-size="13" fill="#4A5568" text-anchor="middle" class="excalidraw-text" opacity="1">Beallitasok</text>
<rect x="1010" y="150" width="360" height="280" stroke="#D0D4D9" fill="#F8F9FA" stroke-width="1" rx="8" opacity="1"/>
<rect x="1010" y="150" width="360" height="60" stroke="#718096" fill="#718096" stroke-width="1" rx="8" opacity="1"/>
<rect x="1010" y="190" width="360" height="20" stroke="#718096" fill="#718096" stroke-width="1" rx="0" opacity="1"/>
<text x="1030" y="186" font-size="18" fill="#ffffff" text-anchor="start" class="excalidraw-text" opacity="1">Test Franchise</text>
<rect x="1280" y="165" width="70" height="24" stroke="#718096" fill="#EAECEF" stroke-width="1" rx="12" opacity="1"/>
<text x="1315" y="181" font-size="11" fill="#718096" text-anchor="middle" class="excalidraw-text" opacity="1">Inaktiv</text>
<text x="1030" y="237" font-size="12" fill="#4A5568" text-anchor="start" class="excalidraw-text" opacity="1">Uzletek:</text>
<text x="1095" y="237" font-size="12" fill="#718096" text-anchor="start" class="excalidraw-text" opacity="1">1 uzlet</text>
<text x="1190" y="237" font-size="12" fill="#4A5568" text-anchor="start" class="excalidraw-text" opacity="1">Felhasznalok:</text>
<text x="1280" y="237" font-size="12" fill="#718096" text-anchor="start" class="excalidraw-text" opacity="1">2 fo</text>
<path d="M 1030 255 L 1350 255" stroke="#D0D4D9" fill="none" stroke-width="1" opacity="1"/>
<text x="1040" y="283" font-size="13" fill="#718096" text-anchor="start" class="excalidraw-text" opacity="1">Test Uzlet #1</text>
<ellipse cx="1030" cy="277" rx="5" ry="5" stroke="#718096" fill="#718096" stroke-width="1" opacity="1"/>
<rect x="1030" y="395" width="150" height="36" stroke="#D0D4D9" fill="#EAECEF" stroke-width="1" rx="4" opacity="1"/>
<text x="1105" y="418" font-size="13" fill="#718096" text-anchor="middle" class="excalidraw-text" opacity="1">Reszletek</text>
<rect x="1200" y="395" width="150" height="36" stroke="#4caf50" fill="#F8F9FA" stroke-width="1" rx="4" opacity="1"/>
<text x="1275" y="418" font-size="13" fill="#4caf50" text-anchor="middle" class="excalidraw-text" opacity="1">Aktivalas</text>
<rect x="250" y="460" width="1120" height="100" stroke="#D0D4D9" fill="#F8F9FA" stroke-width="1" rx="8" opacity="1"/>
<text x="270" y="491" font-size="16" fill="#1A1F26" text-anchor="start" class="excalidraw-text" opacity="1">Osszesites</text>
<text x="270" y="534" font-size="24" fill="#BF4400" text-anchor="start" class="excalidraw-text" opacity="1">3</text>
<text x="300" y="528" font-size="13" fill="#4A5568" text-anchor="start" class="excalidraw-text" opacity="1">Franchise</text>
<path d="M 420 480 L 420 540" stroke="#D0D4D9" fill="none" stroke-width="1" opacity="1"/>
<text x="450" y="534" font-size="24" fill="#1565A8" text-anchor="start" class="excalidraw-text" opacity="1">9</text>
<text x="480" y="528" font-size="13" fill="#4A5568" text-anchor="start" class="excalidraw-text" opacity="1">Uzlet</text>
<path d="M 580 480 L 580 540" stroke="#D0D4D9" fill="none" stroke-width="1" opacity="1"/>
<text x="610" y="534" font-size="24" fill="#4caf50" text-anchor="start" class="excalidraw-text" opacity="1">29</text>
<text x="660" y="528" font-size="13" fill="#4A5568" text-anchor="start" class="excalidraw-text" opacity="1">Aktiv felhasznalo</text>
<path d="M 800 480 L 800 540" stroke="#D0D4D9" fill="none" stroke-width="1" opacity="1"/>
<text x="830" y="534" font-size="24" fill="#4caf50" text-anchor="start" class="excalidraw-text" opacity="1">8</text>
<text x="860" y="528" font-size="13" fill="#4A5568" text-anchor="start" class="excalidraw-text" opacity="1">Online most</text>
<path d="M 1000 480 L 1000 540" stroke="#D0D4D9" fill="none" stroke-width="1" opacity="1"/>
<text x="1030" y="534" font-size="24" fill="#ff9800" text-anchor="start" class="excalidraw-text" opacity="1">1</text>
<text x="1060" y="528" font-size="13" fill="#4A5568" text-anchor="start" class="excalidraw-text" opacity="1">Szinkron kesz</text>
<rect x="250" y="580" width="700" height="200" stroke="#D0D4D9" fill="#F8F9FA" stroke-width="1" rx="8" opacity="1"/>
<text x="270" y="611" font-size="16" fill="#1A1F26" text-anchor="start" class="excalidraw-text" opacity="1">Legutobbi Aktivitasok</text>
<text x="280" y="643" font-size="13" fill="#4A5568" text-anchor="start" class="excalidraw-text" opacity="1">KGC Erd - Uj berles #B-2026-0142 letrehozva</text>
<text x="930" y="642" font-size="12" fill="#718096" text-anchor="end" class="excalidraw-text" opacity="1">2 perce</text>
<text x="280" y="673" font-size="13" fill="#4A5568" text-anchor="start" class="excalidraw-text" opacity="1">KGC Buda - Napi zaras befejezve (OK)</text>
<text x="930" y="672" font-size="12" fill="#718096" text-anchor="end" class="excalidraw-text" opacity="1">15 perce</text>
<text x="280" y="703" font-size="13" fill="#4A5568" text-anchor="start" class="excalidraw-text" opacity="1">ProfiGep Szeged - Uj szerviz munkalap #M-2026-089</text>
<text x="930" y="702" font-size="12" fill="#718096" text-anchor="end" class="excalidraw-text" opacity="1">32 perce</text>
<text x="280" y="733" font-size="13" fill="#ff9800" text-anchor="start" class="excalidraw-text" opacity="1">KGC Debrecen - Offline mode bekapcsolt (szinkron kesz)</text>
<text x="930" y="732" font-size="12" fill="#718096" text-anchor="end" class="excalidraw-text" opacity="1">1 oraja</text>
<rect x="970" y="580" width="400" height="200" stroke="#D0D4D9" fill="#F8F9FA" stroke-width="1" rx="8" opacity="1"/>
<text x="990" y="611" font-size="16" fill="#1A1F26" text-anchor="start" class="excalidraw-text" opacity="1">Gyors Muveletek</text>
<rect x="990" y="634" width="170" height="50" stroke="#8A3200" fill="#8A3200" stroke-width="1" rx="4" opacity="1"/>
<rect x="990" y="630" width="170" height="50" stroke="#BF4400" fill="#BF4400" stroke-width="1" rx="4" opacity="1"/>
<text x="1075" y="660" font-size="12" fill="#ffffff" text-anchor="middle" class="excalidraw-text" opacity="1">+ Uj Uzlet</text>
<rect x="1180" y="634" width="170" height="50" stroke="#0d47a1" fill="#0d47a1" stroke-width="1" rx="4" opacity="1"/>
<rect x="1180" y="630" width="170" height="50" stroke="#1565A8" fill="#1565A8" stroke-width="1" rx="4" opacity="1"/>
<text x="1265" y="660" font-size="12" fill="#ffffff" text-anchor="middle" class="excalidraw-text" opacity="1">Riportok</text>
<rect x="990" y="700" width="170" height="50" stroke="#D0D4D9" fill="#EAECEF" stroke-width="1" rx="4" opacity="1"/>
<text x="1075" y="730" font-size="12" fill="#4A5568" text-anchor="middle" class="excalidraw-text" opacity="1">White Label Beall.</text>
<rect x="1180" y="700" width="170" height="50" stroke="#D0D4D9" fill="#EAECEF" stroke-width="1" rx="4" opacity="1"/>
<text x="1265" y="730" font-size="12" fill="#4A5568" text-anchor="middle" class="excalidraw-text" opacity="1">Integraciok</text>
</svg>