<svg xmlns="http://www.w3.org/2000/svg" viewBox="10 -10 1280 795" class="w-full h-auto">
<defs>
<style>.excalidraw-text { font-family: Segoe UI, Arial, sans-serif; }</style>
<marker id="ah" markerWidth="12" markerHeight="8" refX="10" refY="4" orient="auto" markerUnits="strokeWidth">
<polygon points="0 0, 12 4, 0 8" fill="#1e1e1e"/>
</marker>
<marker id="ah-blue" markerWidth="12" markerHeight="8" refX="10" refY="4" orient="auto" markerUnits="strokeWidth">
<polygon points="0 0, 12 4, 0 8" fill="#1976d2"/>
</marker>
<marker id="ah-green" markerWidth="12" markerHeight="8" refX="10" refY="4" orient="auto" markerUnits="strokeWidth">
<polygon points="0 0, 12 4, 0 8" fill="#388e3c"/>
</marker>
<marker id="ah-orange" markerWidth="12" markerHeight="8" refX="10" refY="4" orient="auto" markerUnits="strokeWidth">
<polygon points="0 0, 12 4, 0 8" fill="#f57c00"/>
</marker>
</defs>
<rect x="10" y="-10" width="1280" height="795" fill="#ffffff"/>
<text x="50" y="62" font-size="32" fill="#1a1f26" text-anchor="start" class="excalidraw-text" opacity="1">KGC ERP - 3D Gomb Stilusok</text>
<text x="50" y="101" font-size="16" fill="#4a5568" text-anchor="start" class="excalidraw-text" opacity="1">Szogletes (4px radius) + 4px also arnyek + gradient hatter</text>
<path d="M 50 120 L 1250 120" stroke="#d0d4d9" fill="none" stroke-width="2" opacity="1"/>
<text x="50" y="156" font-size="16" fill="#bf4400" text-anchor="start" class="excalidraw-text" opacity="1">PRIMARY 3D BUTTONS</text>
<rect x="50" y="228" width="160" height="8" stroke="#8a3200" fill="#8a3200" stroke-width="1" rx="4" opacity="1"/>
<rect x="50" y="180" width="160" height="48" stroke="#bf4400" fill="#bf4400" stroke-width="1" rx="4" opacity="1"/>
<rect x="50" y="180" width="160" height="24" stroke="#d45500" fill="#d45500" stroke-width="1" rx="4" opacity="1"/>
<text x="130" y="211" font-size="16" fill="#ffffff" text-anchor="middle" class="excalidraw-text" opacity="1">MENTES</text>
<text x="130" y="264" font-size="14" fill="#4a5568" text-anchor="middle" class="excalidraw-text" opacity="1">Default</text>
<rect x="230" y="228" width="160" height="8" stroke="#8a3200" fill="#8a3200" stroke-width="1" rx="4" opacity="1"/>
<rect x="230" y="180" width="160" height="48" stroke="#d45500" fill="#d45500" stroke-width="1" rx="4" opacity="1"/>
<rect x="230" y="180" width="160" height="24" stroke="#e66000" fill="#e66000" stroke-width="1" rx="4" opacity="1"/>
<text x="310" y="211" font-size="16" fill="#ffffff" text-anchor="middle" class="excalidraw-text" opacity="1">MENTES</text>
<text x="310" y="264" font-size="14" fill="#4a5568" text-anchor="middle" class="excalidraw-text" opacity="1">Hover</text>
<rect x="410" y="230" width="160" height="4" stroke="#8a3200" fill="#8a3200" stroke-width="1" rx="4" opacity="1"/>
<rect x="410" y="184" width="160" height="48" stroke="#993700" fill="#993700" stroke-width="1" rx="4" opacity="1"/>
<rect x="410" y="184" width="160" height="24" stroke="#bf4400" fill="#bf4400" stroke-width="1" rx="4" opacity="1"/>
<text x="490" y="215" font-size="16" fill="#ffffff" text-anchor="middle" class="excalidraw-text" opacity="1">MENTES</text>
<text x="490" y="264" font-size="14" fill="#4a5568" text-anchor="middle" class="excalidraw-text" opacity="1">Pressed (+2px Y)</text>
<rect x="590" y="228" width="160" height="8" stroke="#a0a4a9" fill="#a0a4a9" stroke-width="1" rx="4" opacity="1"/>
<rect x="590" y="180" width="160" height="48" stroke="#d0d4d9" fill="#d0d4d9" stroke-width="1" rx="4" opacity="1"/>
<text x="670" y="211" font-size="16" fill="#718096" text-anchor="middle" class="excalidraw-text" opacity="1">MENTES</text>
<text x="670" y="264" font-size="14" fill="#4a5568" text-anchor="middle" class="excalidraw-text" opacity="1">Disabled</text>
<text x="50" y="306" font-size="16" fill="#1565a8" text-anchor="start" class="excalidraw-text" opacity="1">SECONDARY 3D BUTTONS</text>
<rect x="50" y="378" width="160" height="8" stroke="#0e4a7a" fill="#0e4a7a" stroke-width="1" rx="4" opacity="1"/>
<rect x="50" y="330" width="160" height="48" stroke="#1565a8" fill="#1565a8" stroke-width="1" rx="4" opacity="1"/>
<rect x="50" y="330" width="160" height="24" stroke="#1976b8" fill="#1976b8" stroke-width="1" rx="4" opacity="1"/>
<text x="130" y="361" font-size="16" fill="#ffffff" text-anchor="middle" class="excalidraw-text" opacity="1">MEGSE</text>
<text x="130" y="414" font-size="14" fill="#4a5568" text-anchor="middle" class="excalidraw-text" opacity="1">Secondary</text>
<text x="50" y="456" font-size="16" fill="#9b2c2c" text-anchor="start" class="excalidraw-text" opacity="1">DANGER 3D BUTTONS</text>
<rect x="50" y="528" width="160" height="8" stroke="#6b1f1f" fill="#6b1f1f" stroke-width="1" rx="4" opacity="1"/>
<rect x="50" y="480" width="160" height="48" stroke="#9b2c2c" fill="#9b2c2c" stroke-width="1" rx="4" opacity="1"/>
<rect x="50" y="480" width="160" height="24" stroke="#b33333" fill="#b33333" stroke-width="1" rx="4" opacity="1"/>
<text x="130" y="511" font-size="16" fill="#ffffff" text-anchor="middle" class="excalidraw-text" opacity="1">TORLES</text>
<text x="130" y="564" font-size="14" fill="#4a5568" text-anchor="middle" class="excalidraw-text" opacity="1">Danger</text>
<text x="230" y="456" font-size="16" fill="#276749" text-anchor="start" class="excalidraw-text" opacity="1">SUCCESS 3D BUTTONS</text>
<rect x="230" y="528" width="180" height="8" stroke="#1a4a33" fill="#1a4a33" stroke-width="1" rx="4" opacity="1"/>
<rect x="230" y="480" width="180" height="48" stroke="#276749" fill="#276749" stroke-width="1" rx="4" opacity="1"/>
<rect x="230" y="480" width="180" height="24" stroke="#2f7a56" fill="#2f7a56" stroke-width="1" rx="4" opacity="1"/>
<text x="320" y="511" font-size="16" fill="#ffffff" text-anchor="middle" class="excalidraw-text" opacity="1">JOVAHAGYVA</text>
<text x="320" y="564" font-size="14" fill="#4a5568" text-anchor="middle" class="excalidraw-text" opacity="1">Success</text>
<text x="50" y="616" font-size="16" fill="#4a5568" text-anchor="start" class="excalidraw-text" opacity="1">BUTTON SIZES (3D)</text>
<rect x="50" y="676" width="100" height="6" stroke="#8a3200" fill="#8a3200" stroke-width="1" rx="4" opacity="1"/>
<rect x="50" y="640" width="100" height="36" stroke="#bf4400" fill="#bf4400" stroke-width="1" rx="4" opacity="1"/>
<rect x="50" y="640" width="100" height="18" stroke="#d45500" fill="#d45500" stroke-width="1" rx="4" opacity="1"/>
<text x="100" y="665" font-size="14" fill="#ffffff" text-anchor="middle" class="excalidraw-text" opacity="1">Small</text>
<text x="100" y="707" font-size="12" fill="#718096" text-anchor="middle" class="excalidraw-text" opacity="1">36px height</text>
<rect x="170" y="688" width="140" height="8" stroke="#8a3200" fill="#8a3200" stroke-width="1" rx="4" opacity="1"/>
<rect x="170" y="640" width="140" height="48" stroke="#bf4400" fill="#bf4400" stroke-width="1" rx="4" opacity="1"/>
<rect x="170" y="640" width="140" height="24" stroke="#d45500" fill="#d45500" stroke-width="1" rx="4" opacity="1"/>
<text x="240" y="671" font-size="16" fill="#ffffff" text-anchor="middle" class="excalidraw-text" opacity="1">Medium</text>
<text x="240" y="722" font-size="12" fill="#718096" text-anchor="middle" class="excalidraw-text" opacity="1">48px (default)</text>
<rect x="330" y="700" width="180" height="10" stroke="#8a3200" fill="#8a3200" stroke-width="1" rx="4" opacity="1"/>
<rect x="330" y="640" width="180" height="60" stroke="#bf4400" fill="#bf4400" stroke-width="1" rx="4" opacity="1"/>
<rect x="330" y="640" width="180" height="30" stroke="#d45500" fill="#d45500" stroke-width="1" rx="4" opacity="1"/>
<text x="420" y="678" font-size="18" fill="#ffffff" text-anchor="middle" class="excalidraw-text" opacity="1">Large</text>
<text x="420" y="737" font-size="12" fill="#718096" text-anchor="middle" class="excalidraw-text" opacity="1">60px (touch)</text>
<text x="800" y="156" font-size="16" fill="#4a5568" text-anchor="start" class="excalidraw-text" opacity="1">3D BUTTON ANATOMY</text>
<rect x="800" y="180" width="200" height="30" stroke="#d45500" fill="#d45500" stroke-width="1" rx="4" opacity="1"/>
<text x="1020" y="200" font-size="12" fill="#4a5568" text-anchor="start" class="excalidraw-text" opacity="1">← Highlight (#D45500)</text>
<rect x="800" y="210" width="200" height="30" stroke="#bf4400" fill="#bf4400" stroke-width="1" rx="0" opacity="1"/>
<text x="1020" y="230" font-size="12" fill="#4a5568" text-anchor="start" class="excalidraw-text" opacity="1">← Base (#BF4400)</text>
<rect x="800" y="240" width="200" height="10" stroke="#8a3200" fill="#8a3200" stroke-width="1" rx="4" opacity="1"/>
<text x="1020" y="252" font-size="12" fill="#4a5568" text-anchor="start" class="excalidraw-text" opacity="1">← 3D Shadow (#8A3200)</text>
<text x="900" y="219" font-size="16" fill="#ffffff" text-anchor="middle" class="excalidraw-text" opacity="1">BUTTON</text>
</svg>