<svg xmlns="http://www.w3.org/2000/svg" viewBox="10 -10 1430 540" class="w-full h-auto">
<defs>
<style>.excalidraw-text { font-family: Segoe UI, Arial, sans-serif; }</style>
<marker id="ah" markerWidth="12" markerHeight="8" refX="10" refY="4" orient="auto" markerUnits="strokeWidth">
<polygon points="0 0, 12 4, 0 8" fill="#1e1e1e"/>
</marker>
<marker id="ah-blue" markerWidth="12" markerHeight="8" refX="10" refY="4" orient="auto" markerUnits="strokeWidth">
<polygon points="0 0, 12 4, 0 8" fill="#1976d2"/>
</marker>
<marker id="ah-green" markerWidth="12" markerHeight="8" refX="10" refY="4" orient="auto" markerUnits="strokeWidth">
<polygon points="0 0, 12 4, 0 8" fill="#388e3c"/>
</marker>
<marker id="ah-orange" markerWidth="12" markerHeight="8" refX="10" refY="4" orient="auto" markerUnits="strokeWidth">
<polygon points="0 0, 12 4, 0 8" fill="#f57c00"/>
</marker>
</defs>
<rect x="10" y="-10" width="1430" height="540" fill="#ffffff"/>
<text x="50" y="62" font-size="32" fill="#1a1f26" text-anchor="start" class="excalidraw-text" opacity="1">KGC ERP - Light vs Dark Mode</text>
<text x="50" y="120" font-size="20" fill="#bf4400" text-anchor="start" class="excalidraw-text" opacity="1">LIGHT MODE</text>
<rect x="50" y="140" width="650" height="350" stroke="#d0d4d9" fill="#eaecef" stroke-width="2" rx="8" opacity="1"/>
<rect x="50" y="140" width="650" height="56" stroke="#1a1f26" fill="#1a1f26" stroke-width="1" rx="0" opacity="1"/>
<text x="70" y="175" font-size="18" fill="#bf4400" text-anchor="start" class="excalidraw-text" opacity="1">KGC ERP</text>
<text x="300" y="171" font-size="14" fill="#e6edf3" text-anchor="start" class="excalidraw-text" opacity="1">Berles   Szerviz   Keszlet</text>
<rect x="50" y="196" width="180" height="294" stroke="#d0d4d9" fill="#f8f9fa" stroke-width="1" rx="0" opacity="1"/>
<rect x="60" y="210" width="160" height="40" stroke="#bf440030" fill="#bf440015" stroke-width="1" rx="4" opacity="1"/>
<text x="80" y="236" font-size="14" fill="#bf4400" text-anchor="start" class="excalidraw-text" opacity="1">Dashboard</text>
<text x="80" y="282" font-size="14" fill="#4a5568" text-anchor="start" class="excalidraw-text" opacity="1">Berlesek</text>
<text x="80" y="322" font-size="14" fill="#4a5568" text-anchor="start" class="excalidraw-text" opacity="1">Szerviz</text>
<text x="80" y="362" font-size="14" fill="#4a5568" text-anchor="start" class="excalidraw-text" opacity="1">Keszlet</text>
<rect x="250" y="210" width="200" height="100" stroke="#d0d4d9" fill="#ffffff" stroke-width="1" rx="4" opacity="1"/>
<text x="265" y="239" font-size="14" fill="#4a5568" text-anchor="start" class="excalidraw-text" opacity="1">Aktiv berlesek</text>
<text x="265" y="291" font-size="36" fill="#bf4400" text-anchor="start" class="excalidraw-text" opacity="1">24</text>
<rect x="470" y="210" width="200" height="100" stroke="#d0d4d9" fill="#ffffff" stroke-width="1" rx="4" opacity="1"/>
<rect x="470" y="210" width="200" height="4" stroke="#9b2c2c" fill="#9b2c2c" stroke-width="1" rx="0" opacity="1"/>
<text x="485" y="239" font-size="14" fill="#4a5568" text-anchor="start" class="excalidraw-text" opacity="1">Kesedelmes</text>
<text x="485" y="291" font-size="36" fill="#9b2c2c" text-anchor="start" class="excalidraw-text" opacity="1">2</text>
<rect x="250" y="330" width="150" height="44" stroke="#bf4400" fill="#bf4400" stroke-width="1" rx="4" opacity="1"/>
<text x="325" y="358" font-size="14" fill="#ffffff" text-anchor="middle" class="excalidraw-text" opacity="1">Uj berles</text>
<rect x="420" y="330" width="150" height="44" stroke="#d0d4d9" fill="transparent" stroke-width="2" rx="4" opacity="1"/>
<text x="495" y="358" font-size="14" fill="#4a5568" text-anchor="middle" class="excalidraw-text" opacity="1">Szures</text>
<rect x="250" y="395" width="420" height="36" stroke="#d0d4d9" fill="#eaecef" stroke-width="1" rx="0" opacity="1"/>
<rect x="250" y="431" width="420" height="40" stroke="#d0d4d9" fill="#ffffff" stroke-width="1" rx="0" opacity="1"/>
<text x="265" y="455" font-size="12" fill="#1a1f26" text-anchor="start" class="excalidraw-text" opacity="1">B-2024-0142  |  Kovacs I.</text>
<text x="750" y="120" font-size="20" fill="#bf4400" text-anchor="start" class="excalidraw-text" opacity="1">DARK MODE</text>
<rect x="750" y="140" width="650" height="350" stroke="#30363d" fill="#0d1117" stroke-width="2" rx="8" opacity="1"/>
<rect x="750" y="140" width="650" height="56" stroke="#30363d" fill="#161b22" stroke-width="1" rx="0" opacity="1"/>
<text x="770" y="175" font-size="18" fill="#d45500" text-anchor="start" class="excalidraw-text" opacity="1">KGC ERP</text>
<text x="1000" y="171" font-size="14" fill="#8b949e" text-anchor="start" class="excalidraw-text" opacity="1">Berles   Szerviz   Keszlet</text>
<rect x="750" y="196" width="180" height="294" stroke="#30363d" fill="#161b22" stroke-width="1" rx="0" opacity="1"/>
<rect x="760" y="210" width="160" height="40" stroke="#d4550030" fill="#d4550020" stroke-width="1" rx="4" opacity="1"/>
<text x="780" y="236" font-size="14" fill="#d45500" text-anchor="start" class="excalidraw-text" opacity="1">Dashboard</text>
<text x="780" y="282" font-size="14" fill="#8b949e" text-anchor="start" class="excalidraw-text" opacity="1">Berlesek</text>
<text x="780" y="322" font-size="14" fill="#8b949e" text-anchor="start" class="excalidraw-text" opacity="1">Szerviz</text>
<text x="780" y="362" font-size="14" fill="#8b949e" text-anchor="start" class="excalidraw-text" opacity="1">Keszlet</text>
<rect x="950" y="210" width="200" height="100" stroke="#30363d" fill="#1c2128" stroke-width="1" rx="4" opacity="1"/>
<text x="965" y="239" font-size="14" fill="#8b949e" text-anchor="start" class="excalidraw-text" opacity="1">Aktiv berlesek</text>
<text x="965" y="291" font-size="36" fill="#d45500" text-anchor="start" class="excalidraw-text" opacity="1">24</text>
<rect x="1170" y="210" width="200" height="100" stroke="#30363d" fill="#1c2128" stroke-width="1" rx="4" opacity="1"/>
<rect x="1170" y="210" width="200" height="4" stroke="#f85149" fill="#f85149" stroke-width="1" rx="0" opacity="1"/>
<text x="1185" y="239" font-size="14" fill="#8b949e" text-anchor="start" class="excalidraw-text" opacity="1">Kesedelmes</text>
<text x="1185" y="291" font-size="36" fill="#f85149" text-anchor="start" class="excalidraw-text" opacity="1">2</text>
<rect x="950" y="330" width="150" height="44" stroke="#d45500" fill="#d45500" stroke-width="1" rx="4" opacity="1"/>
<text x="1025" y="358" font-size="14" fill="#ffffff" text-anchor="middle" class="excalidraw-text" opacity="1">Uj berles</text>
<rect x="1120" y="330" width="150" height="44" stroke="#30363d" fill="transparent" stroke-width="2" rx="4" opacity="1"/>
<text x="1195" y="358" font-size="14" fill="#8b949e" text-anchor="middle" class="excalidraw-text" opacity="1">Szures</text>
<rect x="950" y="395" width="420" height="36" stroke="#30363d" fill="#161b22" stroke-width="1" rx="0" opacity="1"/>
<rect x="950" y="431" width="420" height="40" stroke="#30363d" fill="#1c2128" stroke-width="1" rx="0" opacity="1"/>
<text x="965" y="455" font-size="12" fill="#e6edf3" text-anchor="start" class="excalidraw-text" opacity="1">B-2024-0142  |  Kovacs I.</text>
</svg>