<svg xmlns="http://www.w3.org/2000/svg" viewBox="-40 -40 1520 980" class="w-full h-auto">
<defs>
<style>.excalidraw-text { font-family: Segoe UI, Arial, sans-serif; }</style>
<marker id="ah" markerWidth="12" markerHeight="8" refX="10" refY="4" orient="auto" markerUnits="strokeWidth">
<polygon points="0 0, 12 4, 0 8" fill="#1e1e1e"/>
</marker>
<marker id="ah-blue" markerWidth="12" markerHeight="8" refX="10" refY="4" orient="auto" markerUnits="strokeWidth">
<polygon points="0 0, 12 4, 0 8" fill="#1976d2"/>
</marker>
<marker id="ah-green" markerWidth="12" markerHeight="8" refX="10" refY="4" orient="auto" markerUnits="strokeWidth">
<polygon points="0 0, 12 4, 0 8" fill="#388e3c"/>
</marker>
<marker id="ah-orange" markerWidth="12" markerHeight="8" refX="10" refY="4" orient="auto" markerUnits="strokeWidth">
<polygon points="0 0, 12 4, 0 8" fill="#f57c00"/>
</marker>
</defs>
<rect x="-40" y="-40" width="1520" height="980" fill="#EAECEF"/>
<rect x="0" y="0" width="1440" height="900" stroke="#D0D4D9" fill="#EAECEF" stroke-width="1" rx="0" opacity="1"/>
<rect x="0" y="0" width="1440" height="64" stroke="#1A2634" fill="#1A2634" stroke-width="1" rx="0" opacity="1"/>
<text x="20" y="42" font-size="24" fill="#ffffff" text-anchor="start" class="excalidraw-text" opacity="1">KGC ERP</text>
<text x="200" y="38" font-size="16" fill="#94A3B8" text-anchor="start" class="excalidraw-text" opacity="1">/ Keszlet</text>
<text x="1420" y="36" font-size="14" fill="#ffffff" text-anchor="end" class="excalidraw-text" opacity="1">Kiss Peter</text>
<rect x="0" y="64" width="240" height="836" stroke="#D0D4D9" fill="#F8F9FA" stroke-width="1" rx="0" opacity="1"/>
<text x="20" y="104" font-size="14" fill="#4A5568" text-anchor="start" class="excalidraw-text" opacity="1">Dashboard</text>
<text x="20" y="140" font-size="14" fill="#4A5568" text-anchor="start" class="excalidraw-text" opacity="1">Berles</text>
<text x="20" y="176" font-size="14" fill="#4A5568" text-anchor="start" class="excalidraw-text" opacity="1">Szerviz</text>
<rect x="0" y="188" width="240" height="40" stroke="#FFF0E6" fill="#FFF0E6" stroke-width="1" rx="0" opacity="1"/>
<text x="20" y="212" font-size="14" fill="#BF4400" text-anchor="start" class="excalidraw-text" opacity="1">Keszlet</text>
<text x="20" y="258" font-size="14" fill="#4A5568" text-anchor="start" class="excalidraw-text" opacity="1">Partnerek</text>
<text x="280" y="118" font-size="28" fill="#1A1F26" text-anchor="start" class="excalidraw-text" opacity="1">Keszlet kezeles</text>
<rect x="1230" y="88" width="150" height="44" stroke="#8A3200" fill="#8A3200" stroke-width="1" rx="8" opacity="1"/>
<rect x="1230" y="84" width="150" height="44" stroke="#BF4400" fill="#BF4400" stroke-width="1" rx="8" opacity="1"/>
<text x="1305" y="110" font-size="14" fill="#ffffff" text-anchor="middle" class="excalidraw-text" opacity="1">+ Uj gep</text>
<rect x="280" y="140" width="1100" height="50" stroke="transparent" fill="transparent" stroke-width="1" rx="0" opacity="1"/>
<rect x="280" y="140" width="100" height="44" stroke="#BF4400" fill="#F8F9FA" stroke-width="2" rx="8" opacity="1"/>
<text x="330" y="167" font-size="13" fill="#BF4400" text-anchor="middle" class="excalidraw-text" opacity="1">Mind (256)</text>
<rect x="400" y="140" width="130" height="44" stroke="#D0D4D9" fill="#F8F9FA" stroke-width="1" rx="8" opacity="1"/>
<text x="465" y="167" font-size="13" fill="#4A5568" text-anchor="middle" class="excalidraw-text" opacity="1">Berlesre (180)</text>
<rect x="550" y="140" width="120" height="44" stroke="#D0D4D9" fill="#F8F9FA" stroke-width="1" rx="8" opacity="1"/>
<text x="610" y="167" font-size="13" fill="#4A5568" text-anchor="middle" class="excalidraw-text" opacity="1">Eladasra (76)</text>
<rect x="690" y="140" width="120" height="44" stroke="#D0D4D9" fill="#F8F9FA" stroke-width="1" rx="8" opacity="1"/>
<text x="750" y="167" font-size="13" fill="#BF4400" text-anchor="middle" class="excalidraw-text" opacity="1">Szervizben (12)</text>
<rect x="830" y="140" width="110" height="44" stroke="#D0D4D9" fill="#F8F9FA" stroke-width="1" rx="8" opacity="1"/>
<text x="885" y="167" font-size="13" fill="#1A2634" text-anchor="middle" class="excalidraw-text" opacity="1">Kint (45)</text>
<rect x="280" y="200" width="1100" height="56" stroke="#D0D4D9" fill="#F8F9FA" stroke-width="1" rx="8" opacity="1"/>
<rect x="300" y="212" width="350" height="36" stroke="#D0D4D9" fill="#ffffff" stroke-width="1" rx="4" opacity="1"/>
<text x="316" y="235" font-size="13" fill="#718096" text-anchor="start" class="excalidraw-text" opacity="1">Vonalkod, gep nev, gyarto...</text>
<rect x="670" y="212" width="160" height="36" stroke="#D0D4D9" fill="#ffffff" stroke-width="1" rx="4" opacity="1"/>
<text x="686" y="235" font-size="13" fill="#4A5568" text-anchor="start" class="excalidraw-text" opacity="1">Kategoria: Mind</text>
<rect x="850" y="212" width="140" height="36" stroke="#D0D4D9" fill="#ffffff" stroke-width="1" rx="4" opacity="1"/>
<text x="866" y="235" font-size="13" fill="#4A5568" text-anchor="start" class="excalidraw-text" opacity="1">Marka: Mind</text>
<rect x="1010" y="212" width="140" height="36" stroke="#D0D4D9" fill="#ffffff" stroke-width="1" rx="4" opacity="1"/>
<text x="1026" y="235" font-size="13" fill="#4A5568" text-anchor="start" class="excalidraw-text" opacity="1">Allapot: Mind</text>
<rect x="1280" y="212" width="80" height="36" stroke="#D0D4D9" fill="#ffffff" stroke-width="1" rx="4" opacity="1"/>
<text x="1320" y="236" font-size="14" fill="#4A5568" text-anchor="middle" class="excalidraw-text" opacity="1">Grid | List</text>
<rect x="280" y="276" width="1100" height="560" stroke="#D0D4D9" fill="#F8F9FA" stroke-width="1" rx="8" opacity="1"/>
<rect x="280" y="276" width="1100" height="44" stroke="#D0D4D9" fill="#EAECEF" stroke-width="1" rx="8" opacity="1"/>
<rect x="300" y="290" width="18" height="18" stroke="#D0D4D9" fill="#ffffff" stroke-width="1" rx="2" opacity="1"/>
<text x="340" y="301" font-size="13" fill="#4A5568" text-anchor="start" class="excalidraw-text" opacity="1">Kep</text>
<text x="420" y="301" font-size="13" fill="#4A5568" text-anchor="start" class="excalidraw-text" opacity="1">Gep neve</text>
<text x="620" y="301" font-size="13" fill="#4A5568" text-anchor="start" class="excalidraw-text" opacity="1">Vonalkod</text>
<text x="750" y="301" font-size="13" fill="#4A5568" text-anchor="start" class="excalidraw-text" opacity="1">Kategoria</text>
<text x="880" y="301" font-size="13" fill="#4A5568" text-anchor="start" class="excalidraw-text" opacity="1">Napi dij</text>
<text x="980" y="301" font-size="13" fill="#4A5568" text-anchor="start" class="excalidraw-text" opacity="1">Kaucio</text>
<text x="1100" y="301" font-size="13" fill="#4A5568" text-anchor="start" class="excalidraw-text" opacity="1">Allapot</text>
<text x="1300" y="301" font-size="13" fill="#4A5568" text-anchor="middle" class="excalidraw-text" opacity="1">Muvelet</text>
<rect x="280" y="320" width="1100" height="64" stroke="#D0D4D9" fill="#F8F9FA" stroke-width="1" rx="0" opacity="1"/>
<rect x="300" y="343" width="18" height="18" stroke="#D0D4D9" fill="#ffffff" stroke-width="1" rx="2" opacity="1"/>
<rect x="340" y="330" width="50" height="44" stroke="#D0D4D9" fill="#EAECEF" stroke-width="1" rx="4" opacity="1"/>
<text x="365" y="354" font-size="10" fill="#718096" text-anchor="middle" class="excalidraw-text" opacity="1">[img]</text>
<text x="420" y="352" font-size="14" fill="#1A1F26" text-anchor="start" class="excalidraw-text" opacity="1">Makita HR2470 Furo</text>
<text x="420" y="369" font-size="11" fill="#718096" text-anchor="start" class="excalidraw-text" opacity="1">Makita</text>
<text x="620" y="357" font-size="13" fill="#4A5568" text-anchor="start" class="excalidraw-text" opacity="1">BG-001234</text>
<text x="750" y="357" font-size="13" fill="#4A5568" text-anchor="start" class="excalidraw-text" opacity="1">Furogep</text>
<text x="880" y="357" font-size="13" fill="#1A1F26" text-anchor="start" class="excalidraw-text" opacity="1">4 500 Ft</text>
<text x="980" y="357" font-size="13" fill="#1A1F26" text-anchor="start" class="excalidraw-text" opacity="1">45 000 Ft</text>
<rect x="1100" y="340" width="80" height="24" stroke="#4caf50" fill="#e8f5e9" stroke-width="1" rx="12" opacity="1"/>
<text x="1140" y="355" font-size="11" fill="#2e7d32" text-anchor="middle" class="excalidraw-text" opacity="1">Elerheto</text>
<text x="1300" y="362" font-size="18" fill="#718096" text-anchor="middle" class="excalidraw-text" opacity="1">...</text>
<rect x="280" y="384" width="1100" height="64" stroke="#D0D4D9" fill="#EAECEF" stroke-width="1" rx="0" opacity="1"/>
<rect x="300" y="407" width="18" height="18" stroke="#D0D4D9" fill="#ffffff" stroke-width="1" rx="2" opacity="1"/>
<rect x="340" y="394" width="50" height="44" stroke="#D0D4D9" fill="#F8F9FA" stroke-width="1" rx="4" opacity="1"/>
<text x="365" y="418" font-size="10" fill="#718096" text-anchor="middle" class="excalidraw-text" opacity="1">[img]</text>
<text x="420" y="416" font-size="14" fill="#1A1F26" text-anchor="start" class="excalidraw-text" opacity="1">Bosch GWS 750 Flex</text>
<text x="420" y="433" font-size="11" fill="#718096" text-anchor="start" class="excalidraw-text" opacity="1">Bosch</text>
<text x="620" y="421" font-size="13" fill="#4A5568" text-anchor="start" class="excalidraw-text" opacity="1">BG-002567</text>
<text x="750" y="421" font-size="13" fill="#4A5568" text-anchor="start" class="excalidraw-text" opacity="1">Sarokcsisszolo</text>
<text x="880" y="421" font-size="13" fill="#1A1F26" text-anchor="start" class="excalidraw-text" opacity="1">3 500 Ft</text>
<text x="980" y="421" font-size="13" fill="#1A1F26" text-anchor="start" class="excalidraw-text" opacity="1">35 000 Ft</text>
<rect x="1100" y="404" width="80" height="24" stroke="#1A2634" fill="#E2E8F0" stroke-width="1" rx="12" opacity="1"/>
<text x="1140" y="419" font-size="11" fill="#1A2634" text-anchor="middle" class="excalidraw-text" opacity="1">Kinn</text>
<text x="1300" y="426" font-size="18" fill="#718096" text-anchor="middle" class="excalidraw-text" opacity="1">...</text>
<rect x="280" y="448" width="1100" height="64" stroke="#D0D4D9" fill="#F8F9FA" stroke-width="1" rx="0" opacity="1"/>
<rect x="300" y="471" width="18" height="18" stroke="#D0D4D9" fill="#ffffff" stroke-width="1" rx="2" opacity="1"/>
<rect x="340" y="458" width="50" height="44" stroke="#D0D4D9" fill="#EAECEF" stroke-width="1" rx="4" opacity="1"/>
<text x="365" y="482" font-size="10" fill="#718096" text-anchor="middle" class="excalidraw-text" opacity="1">[img]</text>
<text x="420" y="480" font-size="14" fill="#1A1F26" text-anchor="start" class="excalidraw-text" opacity="1">DeWalt DWE4257</text>
<text x="420" y="497" font-size="11" fill="#718096" text-anchor="start" class="excalidraw-text" opacity="1">DeWalt</text>
<text x="620" y="485" font-size="13" fill="#4A5568" text-anchor="start" class="excalidraw-text" opacity="1">BG-003891</text>
<text x="750" y="485" font-size="13" fill="#4A5568" text-anchor="start" class="excalidraw-text" opacity="1">Sarokcsisszolo</text>
<text x="880" y="485" font-size="13" fill="#1A1F26" text-anchor="start" class="excalidraw-text" opacity="1">4 000 Ft</text>
<text x="980" y="485" font-size="13" fill="#1A1F26" text-anchor="start" class="excalidraw-text" opacity="1">40 000 Ft</text>
<rect x="1100" y="468" width="80" height="24" stroke="#BF4400" fill="#FFF0E6" stroke-width="1" rx="12" opacity="1"/>
<text x="1140" y="483" font-size="11" fill="#8A3200" text-anchor="middle" class="excalidraw-text" opacity="1">Szerviz</text>
<text x="1300" y="490" font-size="18" fill="#718096" text-anchor="middle" class="excalidraw-text" opacity="1">...</text>
<rect x="280" y="512" width="1100" height="64" stroke="#D0D4D9" fill="#EAECEF" stroke-width="1" rx="0" opacity="1"/>
<rect x="300" y="535" width="18" height="18" stroke="#D0D4D9" fill="#ffffff" stroke-width="1" rx="2" opacity="1"/>
<rect x="340" y="522" width="50" height="44" stroke="#D0D4D9" fill="#F8F9FA" stroke-width="1" rx="4" opacity="1"/>
<text x="365" y="546" font-size="10" fill="#718096" text-anchor="middle" class="excalidraw-text" opacity="1">[img]</text>
<text x="420" y="544" font-size="14" fill="#1A1F26" text-anchor="start" class="excalidraw-text" opacity="1">Makita LS1018L</text>
<text x="420" y="561" font-size="11" fill="#718096" text-anchor="start" class="excalidraw-text" opacity="1">Makita</text>
<text x="620" y="549" font-size="13" fill="#4A5568" text-anchor="start" class="excalidraw-text" opacity="1">BG-004123</text>
<text x="750" y="549" font-size="13" fill="#4A5568" text-anchor="start" class="excalidraw-text" opacity="1">Gervago</text>
<text x="880" y="549" font-size="13" fill="#1A1F26" text-anchor="start" class="excalidraw-text" opacity="1">8 000 Ft</text>
<text x="980" y="549" font-size="13" fill="#1A1F26" text-anchor="start" class="excalidraw-text" opacity="1">80 000 Ft</text>
<rect x="1100" y="532" width="80" height="24" stroke="#4caf50" fill="#e8f5e9" stroke-width="1" rx="12" opacity="1"/>
<text x="1140" y="547" font-size="11" fill="#2e7d32" text-anchor="middle" class="excalidraw-text" opacity="1">Elerheto</text>
<text x="1300" y="554" font-size="18" fill="#718096" text-anchor="middle" class="excalidraw-text" opacity="1">...</text>
<text x="300" y="814" font-size="14" fill="#718096" text-anchor="start" class="excalidraw-text" opacity="1">1-20 / 256 gep</text>
<rect x="1186" y="796" width="36" height="36" stroke="#8A3200" fill="#8A3200" stroke-width="1" rx="4" opacity="1"/>
<rect x="1186" y="792" width="36" height="36" stroke="#BF4400" fill="#BF4400" stroke-width="1" rx="4" opacity="1"/>
<text x="1204" y="816" font-size="14" fill="#ffffff" text-anchor="middle" class="excalidraw-text" opacity="1">1</text>
<rect x="1232" y="792" width="36" height="36" stroke="#D0D4D9" fill="#F8F9FA" stroke-width="1" rx="4" opacity="1"/>
<text x="1250" y="816" font-size="14" fill="#4A5568" text-anchor="middle" class="excalidraw-text" opacity="1">2</text>
<rect x="1324" y="792" width="36" height="36" stroke="#D0D4D9" fill="#F8F9FA" stroke-width="1" rx="4" opacity="1"/>
<text x="1342" y="816" font-size="14" fill="#4A5568" text-anchor="middle" class="excalidraw-text" opacity="1">&gt;</text>
</svg>