<svg xmlns="http://www.w3.org/2000/svg" viewBox="-40 -40 1520 980" class="w-full h-auto">
<defs>
<style>.excalidraw-text { font-family: Segoe UI, Arial, sans-serif; }</style>
<marker id="ah" markerWidth="12" markerHeight="8" refX="10" refY="4" orient="auto" markerUnits="strokeWidth">
<polygon points="0 0, 12 4, 0 8" fill="#1e1e1e"/>
</marker>
<marker id="ah-blue" markerWidth="12" markerHeight="8" refX="10" refY="4" orient="auto" markerUnits="strokeWidth">
<polygon points="0 0, 12 4, 0 8" fill="#1976d2"/>
</marker>
<marker id="ah-green" markerWidth="12" markerHeight="8" refX="10" refY="4" orient="auto" markerUnits="strokeWidth">
<polygon points="0 0, 12 4, 0 8" fill="#388e3c"/>
</marker>
<marker id="ah-orange" markerWidth="12" markerHeight="8" refX="10" refY="4" orient="auto" markerUnits="strokeWidth">
<polygon points="0 0, 12 4, 0 8" fill="#f57c00"/>
</marker>
</defs>
<rect x="-40" y="-40" width="1520" height="980" fill="#EAECEF"/>
<rect x="0" y="0" width="1440" height="900" stroke="#D0D4D9" fill="#EAECEF" stroke-width="1" rx="0" opacity="1"/>
<rect x="0" y="0" width="1440" height="64" stroke="#1A2634" fill="#1A2634" stroke-width="1" rx="0" opacity="1"/>
<text x="20" y="42" font-size="24" fill="#ffffff" text-anchor="start" class="excalidraw-text" opacity="1">KGC ERP</text>
<text x="200" y="38" font-size="16" fill="#718096" text-anchor="start" class="excalidraw-text" opacity="1">/ Szerviz / Munkalapok</text>
<text x="1240" y="36" font-size="14" fill="#ffffff" text-anchor="middle" class="excalidraw-text" opacity="1">4:15</text>
<text x="1420" y="36" font-size="14" fill="#ffffff" text-anchor="end" class="excalidraw-text" opacity="1">Nagy Janos</text>
<rect x="0" y="64" width="240" height="836" stroke="#D0D4D9" fill="#F8F9FA" stroke-width="1" rx="0" opacity="1"/>
<text x="20" y="104" font-size="14" fill="#4A5568" text-anchor="start" class="excalidraw-text" opacity="1">Dashboard</text>
<text x="20" y="140" font-size="14" fill="#4A5568" text-anchor="start" class="excalidraw-text" opacity="1">Berles</text>
<rect x="0" y="152" width="240" height="40" stroke="#BF4400" fill="#FFF5EB" stroke-width="1" rx="0" opacity="1"/>
<text x="20" y="176" font-size="14" fill="#BF4400" text-anchor="start" class="excalidraw-text" opacity="1">Szerviz</text>
<text x="20" y="222" font-size="14" fill="#4A5568" text-anchor="start" class="excalidraw-text" opacity="1">Keszlet</text>
<text x="20" y="258" font-size="14" fill="#4A5568" text-anchor="start" class="excalidraw-text" opacity="1">Partnerek</text>
<text x="20" y="294" font-size="14" fill="#4A5568" text-anchor="start" class="excalidraw-text" opacity="1">Penztar</text>
<rect x="260" y="84" width="1160" height="796" stroke="transparent" fill="transparent" stroke-width="1" rx="0" opacity="1"/>
<text x="280" y="128" font-size="28" fill="#1A1F26" text-anchor="start" class="excalidraw-text" opacity="1">Munkalapok</text>
<rect x="1203" y="97" width="180" height="44" stroke="#8A3200" fill="#8A3200" stroke-width="1" rx="8" opacity="1"/>
<rect x="1200" y="94" width="180" height="44" stroke="#BF4400" fill="#BF4400" stroke-width="1" rx="8" opacity="1"/>
<text x="1290" y="120" font-size="14" fill="#ffffff" text-anchor="middle" class="excalidraw-text" opacity="1">+ Uj munkalap</text>
<rect x="280" y="150" width="1100" height="60" stroke="#D0D4D9" fill="#F8F9FA" stroke-width="1" rx="8" opacity="1"/>
<rect x="300" y="165" width="300" height="36" stroke="#D0D4D9" fill="#ffffff" stroke-width="1" rx="4" opacity="1"/>
<text x="316" y="188" font-size="13" fill="#718096" text-anchor="start" class="excalidraw-text" opacity="1">Munkalap szam, ugyfel, gep...</text>
<rect x="620" y="165" width="160" height="36" stroke="#D0D4D9" fill="#ffffff" stroke-width="1" rx="4" opacity="1"/>
<text x="636" y="188" font-size="13" fill="#4A5568" text-anchor="start" class="excalidraw-text" opacity="1">Statusz: Mind</text>
<rect x="800" y="165" width="160" height="36" stroke="#D0D4D9" fill="#ffffff" stroke-width="1" rx="4" opacity="1"/>
<text x="816" y="188" font-size="13" fill="#4A5568" text-anchor="start" class="excalidraw-text" opacity="1">Tipus: Mind</text>
<rect x="980" y="165" width="180" height="36" stroke="#D0D4D9" fill="#ffffff" stroke-width="1" rx="4" opacity="1"/>
<text x="996" y="188" font-size="13" fill="#4A5568" text-anchor="start" class="excalidraw-text" opacity="1">Utolso 30 nap</text>
<rect x="1280" y="165" width="80" height="36" stroke="#D0D4D9" fill="#ffffff" stroke-width="1" rx="4" opacity="1"/>
<text x="1320" y="187" font-size="12" fill="#4A5568" text-anchor="middle" class="excalidraw-text" opacity="1">Export</text>
<rect x="280" y="230" width="1100" height="70" stroke="transparent" fill="transparent" stroke-width="1" rx="0" opacity="1"/>
<rect x="280" y="230" width="180" height="70" stroke="#D0D4D9" fill="#F8F9FA" stroke-width="1" rx="8" opacity="1"/>
<text x="300" y="269" font-size="24" fill="#2B6CB0" text-anchor="start" class="excalidraw-text" opacity="1">24</text>
<text x="300" y="287" font-size="12" fill="#718096" text-anchor="start" class="excalidraw-text" opacity="1">Nyitott munkalap</text>
<rect x="480" y="230" width="180" height="70" stroke="#D0D4D9" fill="#F8F9FA" stroke-width="1" rx="8" opacity="1"/>
<text x="500" y="269" font-size="24" fill="#B7791F" text-anchor="start" class="excalidraw-text" opacity="1">8</text>
<text x="500" y="287" font-size="12" fill="#718096" text-anchor="start" class="excalidraw-text" opacity="1">Alkatreszre var</text>
<rect x="680" y="230" width="180" height="70" stroke="#D0D4D9" fill="#F8F9FA" stroke-width="1" rx="8" opacity="1"/>
<text x="700" y="269" font-size="24" fill="#276749" text-anchor="start" class="excalidraw-text" opacity="1">5</text>
<text x="700" y="287" font-size="12" fill="#718096" text-anchor="start" class="excalidraw-text" opacity="1">Kiadasra kesz</text>
<rect x="880" y="230" width="180" height="70" stroke="#D0D4D9" fill="#F8F9FA" stroke-width="1" rx="8" opacity="1"/>
<text x="900" y="269" font-size="24" fill="#9B2C2C" text-anchor="start" class="excalidraw-text" opacity="1">3</text>
<text x="900" y="287" font-size="12" fill="#718096" text-anchor="start" class="excalidraw-text" opacity="1">Lejart hatarido</text>
<rect x="1080" y="230" width="180" height="70" stroke="#D0D4D9" fill="#F8F9FA" stroke-width="1" rx="8" opacity="1"/>
<text x="1100" y="269" font-size="24" fill="#4A5568" text-anchor="start" class="excalidraw-text" opacity="1">156</text>
<text x="1100" y="287" font-size="12" fill="#718096" text-anchor="start" class="excalidraw-text" opacity="1">Lezart (30 nap)</text>
<rect x="280" y="320" width="1100" height="520" stroke="#D0D4D9" fill="#F8F9FA" stroke-width="1" rx="8" opacity="1"/>
<rect x="280" y="320" width="1100" height="44" stroke="#D0D4D9" fill="#EAECEF" stroke-width="1" rx="8" opacity="1"/>
<text x="300" y="345" font-size="13" fill="#4A5568" text-anchor="start" class="excalidraw-text" opacity="1">ML Szam</text>
<text x="420" y="345" font-size="13" fill="#4A5568" text-anchor="start" class="excalidraw-text" opacity="1">Tipus</text>
<text x="540" y="345" font-size="13" fill="#4A5568" text-anchor="start" class="excalidraw-text" opacity="1">Gep</text>
<text x="720" y="345" font-size="13" fill="#4A5568" text-anchor="start" class="excalidraw-text" opacity="1">Ugyfel</text>
<text x="870" y="345" font-size="13" fill="#4A5568" text-anchor="start" class="excalidraw-text" opacity="1">Hiba leiras</text>
<text x="1050" y="345" font-size="13" fill="#4A5568" text-anchor="start" class="excalidraw-text" opacity="1">Statusz</text>
<text x="1180" y="345" font-size="13" fill="#4A5568" text-anchor="start" class="excalidraw-text" opacity="1">Hatarido</text>
<text x="1330" y="345" font-size="13" fill="#4A5568" text-anchor="middle" class="excalidraw-text" opacity="1"></text>
<rect x="280" y="364" width="1100" height="56" stroke="#D0D4D9" fill="#ffffff" stroke-width="1" rx="0" opacity="1"/>
<text x="300" y="396" font-size="14" fill="#BF4400" text-anchor="start" class="excalidraw-text" opacity="1">ML-2026-0142</text>
<rect x="420" y="378" width="80" height="24" stroke="#BF4400" fill="#FFF5EB" stroke-width="1" rx="12" opacity="1"/>
<text x="460" y="393" font-size="11" fill="#BF4400" text-anchor="middle" class="excalidraw-text" opacity="1">Garancia</text>
<text x="540" y="396" font-size="14" fill="#1A1F26" text-anchor="start" class="excalidraw-text" opacity="1">Makita DHP484</text>
<text x="720" y="396" font-size="14" fill="#1A1F26" text-anchor="start" class="excalidraw-text" opacity="1">Kovacs Istvan</text>
<text x="870" y="396" font-size="14" fill="#4A5568" text-anchor="start" class="excalidraw-text" opacity="1">Motor nem indul</text>
<rect x="1050" y="378" width="100" height="24" stroke="#2B6CB0" fill="#EBF4FF" stroke-width="1" rx="12" opacity="1"/>
<text x="1100" y="393" font-size="11" fill="#2B6CB0" text-anchor="middle" class="excalidraw-text" opacity="1">Folyamatban</text>
<text x="1180" y="396" font-size="14" fill="#1A1F26" text-anchor="start" class="excalidraw-text" opacity="1">2026.01.08</text>
<text x="1330" y="400" font-size="18" fill="#718096" text-anchor="middle" class="excalidraw-text" opacity="1">...</text>
<rect x="280" y="420" width="1100" height="56" stroke="#D0D4D9" fill="#EAECEF" stroke-width="1" rx="0" opacity="1"/>
<text x="300" y="452" font-size="14" fill="#BF4400" text-anchor="start" class="excalidraw-text" opacity="1">ML-2026-0141</text>
<rect x="420" y="434" width="80" height="24" stroke="#4A5568" fill="#EAECEF" stroke-width="1" rx="12" opacity="1"/>
<text x="460" y="449" font-size="11" fill="#4A5568" text-anchor="middle" class="excalidraw-text" opacity="1">Fizetos</text>
<text x="540" y="452" font-size="14" fill="#1A1F26" text-anchor="start" class="excalidraw-text" opacity="1">Bosch GBH 2-26</text>
<text x="720" y="452" font-size="14" fill="#1A1F26" text-anchor="start" class="excalidraw-text" opacity="1">Toth Peter</text>
<text x="870" y="452" font-size="14" fill="#4A5568" text-anchor="start" class="excalidraw-text" opacity="1">Szenkefe csere</text>
<rect x="1050" y="434" width="100" height="24" stroke="#B7791F" fill="#FFFBEB" stroke-width="1" rx="12" opacity="1"/>
<text x="1100" y="449" font-size="11" fill="#B7791F" text-anchor="middle" class="excalidraw-text" opacity="1">Alkatresz var</text>
<text x="1180" y="452" font-size="14" fill="#1A1F26" text-anchor="start" class="excalidraw-text" opacity="1">2026.01.06</text>
<text x="1330" y="456" font-size="18" fill="#718096" text-anchor="middle" class="excalidraw-text" opacity="1">...</text>
<rect x="280" y="476" width="1100" height="56" stroke="#D0D4D9" fill="#ffffff" stroke-width="1" rx="0" opacity="1"/>
<text x="300" y="508" font-size="14" fill="#BF4400" text-anchor="start" class="excalidraw-text" opacity="1">ML-2026-0140</text>
<rect x="420" y="490" width="80" height="24" stroke="#2B6CB0" fill="#EBF4FF" stroke-width="1" rx="12" opacity="1"/>
<text x="460" y="505" font-size="11" fill="#2B6CB0" text-anchor="middle" class="excalidraw-text" opacity="1">Berles</text>
<text x="540" y="508" font-size="14" fill="#1A1F26" text-anchor="start" class="excalidraw-text" opacity="1">DeWalt DWE4257</text>
<text x="720" y="508" font-size="14" fill="#1A1F26" text-anchor="start" class="excalidraw-text" opacity="1">Nagy Epito Kft.</text>
<text x="870" y="508" font-size="14" fill="#4A5568" text-anchor="start" class="excalidraw-text" opacity="1">Visszavetelkor serult</text>
<rect x="1050" y="490" width="100" height="24" stroke="#276749" fill="#F0FFF4" stroke-width="1" rx="12" opacity="1"/>
<text x="1100" y="505" font-size="11" fill="#276749" text-anchor="middle" class="excalidraw-text" opacity="1">Kiadasra kesz</text>
<text x="1180" y="508" font-size="14" fill="#1A1F26" text-anchor="start" class="excalidraw-text" opacity="1">2026.01.05</text>
<text x="1330" y="512" font-size="18" fill="#718096" text-anchor="middle" class="excalidraw-text" opacity="1">...</text>
<rect x="280" y="532" width="1100" height="56" stroke="#9B2C2C" fill="#FFF5F5" stroke-width="2" rx="0" opacity="1"/>
<text x="300" y="564" font-size="14" fill="#9B2C2C" text-anchor="start" class="excalidraw-text" opacity="1">ML-2026-0135</text>
<rect x="420" y="546" width="80" height="24" stroke="#BF4400" fill="#FFF5EB" stroke-width="1" rx="12" opacity="1"/>
<text x="460" y="561" font-size="11" fill="#BF4400" text-anchor="middle" class="excalidraw-text" opacity="1">Garancia</text>
<text x="540" y="564" font-size="14" fill="#1A1F26" text-anchor="start" class="excalidraw-text" opacity="1">Makita LS1018L</text>
<text x="720" y="564" font-size="14" fill="#1A1F26" text-anchor="start" class="excalidraw-text" opacity="1">Szabo Gabor</text>
<text x="870" y="564" font-size="14" fill="#4A5568" text-anchor="start" class="excalidraw-text" opacity="1">Lezer nem mukodik</text>
<rect x="1050" y="546" width="100" height="24" stroke="#9B2C2C" fill="#FFF5F5" stroke-width="1" rx="12" opacity="1"/>
<text x="1100" y="561" font-size="11" fill="#9B2C2C" text-anchor="middle" class="excalidraw-text" opacity="1">LEJART</text>
<text x="1180" y="564" font-size="14" fill="#9B2C2C" text-anchor="start" class="excalidraw-text" opacity="1">2026.01.02</text>
<text x="1330" y="568" font-size="18" fill="#718096" text-anchor="middle" class="excalidraw-text" opacity="1">...</text>
<rect x="280" y="588" width="1100" height="56" stroke="#D0D4D9" fill="#ffffff" stroke-width="1" rx="0" opacity="1"/>
<text x="300" y="620" font-size="14" fill="#BF4400" text-anchor="start" class="excalidraw-text" opacity="1">ML-2026-0139</text>
<rect x="420" y="602" width="80" height="24" stroke="#4A5568" fill="#EAECEF" stroke-width="1" rx="12" opacity="1"/>
<text x="460" y="617" font-size="11" fill="#4A5568" text-anchor="middle" class="excalidraw-text" opacity="1">Fizetos</text>
<text x="540" y="620" font-size="14" fill="#1A1F26" text-anchor="start" class="excalidraw-text" opacity="1">Hitachi C10FCE2</text>
<text x="720" y="620" font-size="14" fill="#1A1F26" text-anchor="start" class="excalidraw-text" opacity="1">Varga Laszlo</text>
<text x="870" y="620" font-size="14" fill="#4A5568" text-anchor="start" class="excalidraw-text" opacity="1">Tarcsa csereje</text>
<rect x="1050" y="602" width="100" height="24" stroke="#718096" fill="#EAECEF" stroke-width="1" rx="12" opacity="1"/>
<text x="1100" y="617" font-size="11" fill="#4A5568" text-anchor="middle" class="excalidraw-text" opacity="1">Felveve</text>
<text x="1180" y="620" font-size="14" fill="#1A1F26" text-anchor="start" class="excalidraw-text" opacity="1">2026.01.10</text>
<text x="1330" y="624" font-size="18" fill="#718096" text-anchor="middle" class="excalidraw-text" opacity="1">...</text>
<rect x="280" y="800" width="1100" height="50" stroke="transparent" fill="transparent" stroke-width="1" rx="0" opacity="1"/>
<text x="300" y="829" font-size="14" fill="#718096" text-anchor="start" class="excalidraw-text" opacity="1">1-20 / 156 munkalap</text>
<rect x="1140" y="808" width="36" height="36" stroke="#D0D4D9" fill="#F8F9FA" stroke-width="1" rx="4" opacity="1"/>
<text x="1158" y="832" font-size="14" fill="#4A5568" text-anchor="middle" class="excalidraw-text" opacity="1">&lt;</text>
<rect x="1189" y="811" width="36" height="36" stroke="#8A3200" fill="#8A3200" stroke-width="1" rx="4" opacity="1"/>
<rect x="1186" y="808" width="36" height="36" stroke="#BF4400" fill="#BF4400" stroke-width="1" rx="4" opacity="1"/>
<text x="1204" y="832" font-size="14" fill="#ffffff" text-anchor="middle" class="excalidraw-text" opacity="1">1</text>
<rect x="1232" y="808" width="36" height="36" stroke="#D0D4D9" fill="#F8F9FA" stroke-width="1" rx="4" opacity="1"/>
<text x="1250" y="832" font-size="14" fill="#4A5568" text-anchor="middle" class="excalidraw-text" opacity="1">2</text>
<rect x="1278" y="808" width="36" height="36" stroke="#D0D4D9" fill="#F8F9FA" stroke-width="1" rx="4" opacity="1"/>
<text x="1296" y="832" font-size="14" fill="#4A5568" text-anchor="middle" class="excalidraw-text" opacity="1">3</text>
<rect x="1324" y="808" width="36" height="36" stroke="#D0D4D9" fill="#F8F9FA" stroke-width="1" rx="4" opacity="1"/>
<text x="1342" y="832" font-size="14" fill="#4A5568" text-anchor="middle" class="excalidraw-text" opacity="1">&gt;</text>
</svg>