<svg xmlns="http://www.w3.org/2000/svg" viewBox="-40 -40 1520 980" class="w-full h-auto">
<defs>
<style>.excalidraw-text { font-family: Segoe UI, Arial, sans-serif; }</style>
<marker id="ah" markerWidth="12" markerHeight="8" refX="10" refY="4" orient="auto" markerUnits="strokeWidth">
<polygon points="0 0, 12 4, 0 8" fill="#1e1e1e"/>
</marker>
<marker id="ah-blue" markerWidth="12" markerHeight="8" refX="10" refY="4" orient="auto" markerUnits="strokeWidth">
<polygon points="0 0, 12 4, 0 8" fill="#1976d2"/>
</marker>
<marker id="ah-green" markerWidth="12" markerHeight="8" refX="10" refY="4" orient="auto" markerUnits="strokeWidth">
<polygon points="0 0, 12 4, 0 8" fill="#388e3c"/>
</marker>
<marker id="ah-orange" markerWidth="12" markerHeight="8" refX="10" refY="4" orient="auto" markerUnits="strokeWidth">
<polygon points="0 0, 12 4, 0 8" fill="#f57c00"/>
</marker>
</defs>
<rect x="-40" y="-40" width="1520" height="980" fill="#0D1117"/>
<rect x="0" y="0" width="1440" height="900" stroke="#30363D" fill="#0D1117" stroke-width="1" rx="0" opacity="1"/>
<rect x="0" y="0" width="1440" height="64" stroke="#21262D" fill="#161B22" stroke-width="1" rx="0" opacity="1"/>
<text x="20" y="42" font-size="24" fill="#E6EDF3" text-anchor="start" class="excalidraw-text" opacity="1">KGC ERP</text>
<text x="200" y="38" font-size="16" fill="#8B949E" text-anchor="start" class="excalidraw-text" opacity="1">/ Cash Register</text>
<text x="1420" y="36" font-size="14" fill="#E6EDF3" text-anchor="end" class="excalidraw-text" opacity="1">Peter Kiss</text>
<rect x="0" y="64" width="240" height="836" stroke="#30363D" fill="#161B22" stroke-width="1" rx="0" opacity="1"/>
<rect x="0" y="260" width="240" height="40" stroke="#BF4400" fill="#2D1810" stroke-width="1" rx="0" opacity="1"/>
<text x="20" y="284" font-size="14" fill="#BF4400" text-anchor="start" class="excalidraw-text" opacity="1">Cash Register</text>
<text x="280" y="118" font-size="28" fill="#E6EDF3" text-anchor="start" class="excalidraw-text" opacity="1">Cash Register</text>
<text x="280" y="138" font-size="14" fill="#8B949E" text-anchor="start" class="excalidraw-text" opacity="1">January 04, 2026 Saturday</text>
<rect x="1180" y="88" width="200" height="44" stroke="#8A3200" fill="#8A3200" stroke-width="1" rx="8" opacity="1"/>
<rect x="1180" y="84" width="200" height="44" stroke="#BF4400" fill="#BF4400" stroke-width="1" rx="8" opacity="1"/>
<text x="1280" y="110" font-size="14" fill="#ffffff" text-anchor="middle" class="excalidraw-text" opacity="1">Close Day</text>
<rect x="280" y="160" width="1100" height="120" stroke="transparent" fill="transparent" stroke-width="1" rx="0" opacity="1"/>
<rect x="280" y="160" width="250" height="100" stroke="#30363D" fill="#161B22" stroke-width="1" rx="12" opacity="1"/>
<text x="300" y="193" font-size="13" fill="#8B949E" text-anchor="start" class="excalidraw-text" opacity="1">Opening Balance</text>
<text x="300" y="234" font-size="26" fill="#E6EDF3" text-anchor="start" class="excalidraw-text" opacity="1">150 000 Ft</text>
<rect x="560" y="160" width="250" height="100" stroke="#3FB950" fill="#0D2818" stroke-width="2" rx="12" opacity="1"/>
<text x="580" y="193" font-size="13" fill="#3FB950" text-anchor="start" class="excalidraw-text" opacity="1">Today&apos;s Income</text>
<text x="580" y="234" font-size="26" fill="#3FB950" text-anchor="start" class="excalidraw-text" opacity="1">+285 500 Ft</text>
<rect x="840" y="160" width="250" height="100" stroke="#F85149" fill="#2D1215" stroke-width="2" rx="12" opacity="1"/>
<text x="860" y="193" font-size="13" fill="#F85149" text-anchor="start" class="excalidraw-text" opacity="1">Today&apos;s Expenses</text>
<text x="860" y="234" font-size="26" fill="#F85149" text-anchor="start" class="excalidraw-text" opacity="1">-45 000 Ft</text>
<rect x="1120" y="160" width="260" height="100" stroke="#58A6FF" fill="#0D1D2D" stroke-width="2" rx="12" opacity="1"/>
<text x="1140" y="193" font-size="13" fill="#58A6FF" text-anchor="start" class="excalidraw-text" opacity="1">Current Balance</text>
<text x="1140" y="234" font-size="26" fill="#58A6FF" text-anchor="start" class="excalidraw-text" opacity="1">390 500 Ft</text>
<rect x="280" y="290" width="1100" height="80" stroke="#30363D" fill="#161B22" stroke-width="1" rx="12" opacity="1"/>
<rect x="300" y="314" width="160" height="44" stroke="#1B4D36" fill="#1B4D36" stroke-width="1" rx="8" opacity="1"/>
<rect x="300" y="310" width="160" height="44" stroke="#3FB950" fill="#238636" stroke-width="1" rx="8" opacity="1"/>
<text x="380" y="336" font-size="14" fill="#ffffff" text-anchor="middle" class="excalidraw-text" opacity="1">+ Income</text>
<rect x="480" y="314" width="160" height="44" stroke="#7A2020" fill="#7A2020" stroke-width="1" rx="8" opacity="1"/>
<rect x="480" y="310" width="160" height="44" stroke="#F85149" fill="#B62324" stroke-width="1" rx="8" opacity="1"/>
<text x="560" y="336" font-size="14" fill="#ffffff" text-anchor="middle" class="excalidraw-text" opacity="1">- Expense</text>
<rect x="660" y="314" width="180" height="44" stroke="#0E4A7A" fill="#0E4A7A" stroke-width="1" rx="8" opacity="1"/>
<rect x="660" y="310" width="180" height="44" stroke="#58A6FF" fill="#21262D" stroke-width="1" rx="8" opacity="1"/>
<text x="750" y="335" font-size="13" fill="#58A6FF" text-anchor="middle" class="excalidraw-text" opacity="1">Refund Deposit</text>
<rect x="860" y="314" width="160" height="44" stroke="#0E4A7A" fill="#0E4A7A" stroke-width="1" rx="8" opacity="1"/>
<rect x="860" y="310" width="160" height="44" stroke="#58A6FF" fill="#21262D" stroke-width="1" rx="8" opacity="1"/>
<text x="940" y="335" font-size="13" fill="#58A6FF" text-anchor="middle" class="excalidraw-text" opacity="1">Card Payment</text>
<rect x="1040" y="310" width="160" height="44" stroke="#30363D" fill="#21262D" stroke-width="1" rx="8" opacity="1"/>
<text x="1120" y="335" font-size="13" fill="#8B949E" text-anchor="middle" class="excalidraw-text" opacity="1">Invoicing</text>
<rect x="1220" y="310" width="140" height="44" stroke="#30363D" fill="#21262D" stroke-width="1" rx="8" opacity="1"/>
<text x="1290" y="335" font-size="13" fill="#8B949E" text-anchor="middle" class="excalidraw-text" opacity="1">Export</text>
<text x="280" y="418" font-size="18" fill="#E6EDF3" text-anchor="start" class="excalidraw-text" opacity="1">Today&apos;s Transactions</text>
<rect x="280" y="440" width="1100" height="420" stroke="#30363D" fill="#161B22" stroke-width="1" rx="8" opacity="1"/>
<rect x="280" y="440" width="1100" height="44" stroke="#30363D" fill="#21262D" stroke-width="1" rx="8" opacity="1"/>
<text x="300" y="467" font-size="13" fill="#8B949E" text-anchor="start" class="excalidraw-text" opacity="1">Time</text>
<text x="400" y="467" font-size="13" fill="#8B949E" text-anchor="start" class="excalidraw-text" opacity="1">Type</text>
<text x="530" y="467" font-size="13" fill="#8B949E" text-anchor="start" class="excalidraw-text" opacity="1">Description</text>
<text x="780" y="467" font-size="13" fill="#8B949E" text-anchor="start" class="excalidraw-text" opacity="1">Customer</text>
<text x="930" y="467" font-size="13" fill="#8B949E" text-anchor="start" class="excalidraw-text" opacity="1">Payment</text>
<text x="1160" y="467" font-size="13" fill="#8B949E" text-anchor="end" class="excalidraw-text" opacity="1">Amount</text>
<text x="1310" y="467" font-size="13" fill="#8B949E" text-anchor="middle" class="excalidraw-text" opacity="1"></text>
<rect x="280" y="484" width="1100" height="56" stroke="#30363D" fill="#161B22" stroke-width="1" rx="0" opacity="1"/>
<text x="300" y="518" font-size="14" fill="#E6EDF3" text-anchor="start" class="excalidraw-text" opacity="1">14:35</text>
<rect x="400" y="500" width="100" height="24" stroke="#3FB950" fill="#0D2818" stroke-width="1" rx="12" opacity="1"/>
<text x="450" y="515" font-size="11" fill="#3FB950" text-anchor="middle" class="excalidraw-text" opacity="1">Rental Fee</text>
<text x="530" y="517" font-size="13" fill="#E6EDF3" text-anchor="start" class="excalidraw-text" opacity="1">Makita HR2470 - 3 day rental</text>
<text x="780" y="517" font-size="13" fill="#8B949E" text-anchor="start" class="excalidraw-text" opacity="1">Stephen Kovacs</text>
<text x="930" y="516" font-size="12" fill="#8B949E" text-anchor="start" class="excalidraw-text" opacity="1">Cash</text>
<text x="1180" y="518" font-size="14" fill="#3FB950" text-anchor="end" class="excalidraw-text" opacity="1">+13 500 Ft</text>
<text x="1320" y="522" font-size="18" fill="#8B949E" text-anchor="middle" class="excalidraw-text" opacity="1">...</text>
<rect x="280" y="540" width="1100" height="56" stroke="#30363D" fill="#21262D" stroke-width="1" rx="0" opacity="1"/>
<text x="300" y="574" font-size="14" fill="#E6EDF3" text-anchor="start" class="excalidraw-text" opacity="1">14:20</text>
<rect x="400" y="556" width="100" height="24" stroke="#58A6FF" fill="#0D1D2D" stroke-width="1" rx="12" opacity="1"/>
<text x="450" y="571" font-size="11" fill="#58A6FF" text-anchor="middle" class="excalidraw-text" opacity="1">Deposit</text>
<text x="530" y="573" font-size="13" fill="#E6EDF3" text-anchor="start" class="excalidraw-text" opacity="1">Deposit - Makita HR2470</text>
<text x="780" y="573" font-size="13" fill="#8B949E" text-anchor="start" class="excalidraw-text" opacity="1">Stephen Kovacs</text>
<text x="930" y="572" font-size="12" fill="#8B949E" text-anchor="start" class="excalidraw-text" opacity="1">Card</text>
<text x="1180" y="574" font-size="14" fill="#3FB950" text-anchor="end" class="excalidraw-text" opacity="1">+45 000 Ft</text>
<text x="1320" y="578" font-size="18" fill="#8B949E" text-anchor="middle" class="excalidraw-text" opacity="1">...</text>
<rect x="280" y="596" width="1100" height="56" stroke="#30363D" fill="#161B22" stroke-width="1" rx="0" opacity="1"/>
<text x="300" y="630" font-size="14" fill="#E6EDF3" text-anchor="start" class="excalidraw-text" opacity="1">13:45</text>
<rect x="400" y="612" width="100" height="24" stroke="#F85149" fill="#2D1215" stroke-width="1" rx="12" opacity="1"/>
<text x="450" y="627" font-size="11" fill="#F85149" text-anchor="middle" class="excalidraw-text" opacity="1">Refund</text>
<text x="530" y="629" font-size="13" fill="#E6EDF3" text-anchor="start" class="excalidraw-text" opacity="1">Returned item - Bosch GWS 750</text>
<text x="780" y="629" font-size="13" fill="#8B949E" text-anchor="start" class="excalidraw-text" opacity="1">Nagy Construction</text>
<text x="930" y="628" font-size="12" fill="#8B949E" text-anchor="start" class="excalidraw-text" opacity="1">Cash</text>
<text x="1180" y="630" font-size="14" fill="#F85149" text-anchor="end" class="excalidraw-text" opacity="1">-35 000 Ft</text>
<text x="1320" y="634" font-size="18" fill="#8B949E" text-anchor="middle" class="excalidraw-text" opacity="1">...</text>
<rect x="280" y="652" width="1100" height="56" stroke="#30363D" fill="#21262D" stroke-width="1" rx="0" opacity="1"/>
<text x="300" y="686" font-size="14" fill="#E6EDF3" text-anchor="start" class="excalidraw-text" opacity="1">12:30</text>
<rect x="400" y="668" width="100" height="24" stroke="#D29922" fill="#2D2410" stroke-width="1" rx="12" opacity="1"/>
<text x="450" y="683" font-size="11" fill="#D29922" text-anchor="middle" class="excalidraw-text" opacity="1">Service</text>
<text x="530" y="685" font-size="13" fill="#E6EDF3" text-anchor="start" class="excalidraw-text" opacity="1">ML-2026-0140 repair fee</text>
<text x="780" y="685" font-size="13" fill="#8B949E" text-anchor="start" class="excalidraw-text" opacity="1">Peter Toth</text>
<text x="930" y="684" font-size="12" fill="#8B949E" text-anchor="start" class="excalidraw-text" opacity="1">Cash</text>
<text x="1180" y="686" font-size="14" fill="#3FB950" text-anchor="end" class="excalidraw-text" opacity="1">+12 500 Ft</text>
<text x="1320" y="690" font-size="18" fill="#8B949E" text-anchor="middle" class="excalidraw-text" opacity="1">...</text>
</svg>