<svg xmlns="http://www.w3.org/2000/svg" viewBox="-40 -40 1680 1880" class="w-full h-auto">
<defs>
<style>.excalidraw-text { font-family: Segoe UI, Arial, sans-serif; }</style>
<marker id="ah" markerWidth="12" markerHeight="8" refX="10" refY="4" orient="auto" markerUnits="strokeWidth">
<polygon points="0 0, 12 4, 0 8" fill="#1e1e1e"/>
</marker>
<marker id="ah-blue" markerWidth="12" markerHeight="8" refX="10" refY="4" orient="auto" markerUnits="strokeWidth">
<polygon points="0 0, 12 4, 0 8" fill="#1976d2"/>
</marker>
<marker id="ah-green" markerWidth="12" markerHeight="8" refX="10" refY="4" orient="auto" markerUnits="strokeWidth">
<polygon points="0 0, 12 4, 0 8" fill="#388e3c"/>
</marker>
<marker id="ah-orange" markerWidth="12" markerHeight="8" refX="10" refY="4" orient="auto" markerUnits="strokeWidth">
<polygon points="0 0, 12 4, 0 8" fill="#f57c00"/>
</marker>
</defs>
<rect x="-40" y="-40" width="1680" height="1880" fill="#EAECEF"/>
<rect x="0" y="0" width="1600" height="1800" stroke="#D0D4D9" fill="#EAECEF" stroke-width="1" rx="0" opacity="1"/>
<text x="50" y="62" font-size="32" fill="#1A2634" text-anchor="start" class="excalidraw-text" opacity="1">0% AFA Dontesi Flow - Wireframe</text>
<text x="50" y="101" font-size="16" fill="#4A5568" text-anchor="start" class="excalidraw-text" opacity="1">Modul 2: UX Design Specification (ADR-028)</text>
<path d="M 50 120 L 1550 120" stroke="#D0D4D9" fill="none" stroke-width="2" opacity="1"/>
<text x="50" y="158" font-size="18" fill="#BF4400" text-anchor="start" class="excalidraw-text" opacity="1">1. ERTEKESITES - Tetel hozzaadasa kontextus</text>
<rect x="50" y="180" width="700" height="400" stroke="#1A2634" fill="#F8F9FA" stroke-width="2" rx="8" opacity="1"/>
<rect x="50" y="180" width="700" height="50" stroke="#1A2634" fill="#1A2634" stroke-width="1" rx="8" opacity="1"/>
<text x="70" y="211" font-size="18" fill="#ffffff" text-anchor="start" class="excalidraw-text" opacity="1">ERTEKESITES - Tetel hozzaadasa</text>
<text x="70" y="264" font-size="14" fill="#4A5568" text-anchor="start" class="excalidraw-text" opacity="1">Termek:</text>
<rect x="70" y="275" width="560" height="44" stroke="#D0D4D9" fill="#F8F9FA" stroke-width="1" rx="4" opacity="1"/>
<text x="86" y="301" font-size="14" fill="#1A1F26" text-anchor="start" class="excalidraw-text" opacity="1">Acel lemez 2mm - FAD jelolesU</text>
<text x="605" y="299" font-size="12" fill="#1565A8" text-anchor="middle" class="excalidraw-text" opacity="1">[Keres]</text>
<rect x="640" y="280" width="80" height="32" stroke="#BF4400" fill="#FFF3E0" stroke-width="2" rx="16" opacity="1"/>
<text x="680" y="300" font-size="12" fill="#BF4400" text-anchor="middle" class="excalidraw-text" opacity="1">FAD</text>
<rect x="70" y="340" width="560" height="160" stroke="#1565A8" fill="#E3F2FD" stroke-width="2" rx="8" opacity="1"/>
<text x="90" y="369" font-size="14" fill="#1565A8" text-anchor="start" class="excalidraw-text" opacity="1">AFA MEGHATAROZAS</text>
<path d="M 90 378 L 610 378" stroke="#1565A8" fill="none" stroke-width="1" opacity="1"/>
<text x="90" y="403" font-size="13" fill="#2e7d32" text-anchor="start" class="excalidraw-text" opacity="1">[OK] FAD termek (femkereskedes/acel alapanyag)</text>
<text x="90" y="425" font-size="13" fill="#2e7d32" text-anchor="start" class="excalidraw-text" opacity="1">[OK] Partner: FGSZ Zrt. - FAD jogosult</text>
<text x="90" y="458" font-size="13" fill="#4A5568" text-anchor="start" class="excalidraw-text" opacity="1">Eredmeny:</text>
<rect x="180" y="448" width="220" height="4" stroke="#1a4a33" fill="#1a4a33" stroke-width="1" rx="4" opacity="1"/>
<rect x="180" y="440" width="220" height="32" stroke="#276749" fill="#276749" stroke-width="1" rx="4" opacity="1"/>
<text x="285" y="462" font-size="14" fill="#ffffff" text-anchor="middle" class="excalidraw-text" opacity="1">0% AFA (FAD)</text>
<text x="420" y="460" font-size="12" fill="#4A5568" text-anchor="start" class="excalidraw-text" opacity="1">NAV kod: &quot;AAM&quot;</text>
<text x="70" y="532" font-size="12" fill="#4A5568" text-anchor="start" class="excalidraw-text" opacity="1">Mennyiseg:</text>
<rect x="70" y="540" width="80" height="36" stroke="#D0D4D9" fill="#F8F9FA" stroke-width="1" rx="4" opacity="1"/>
<text x="115" y="564" font-size="14" fill="#1A1F26" text-anchor="middle" class="excalidraw-text" opacity="1">10</text>
<text x="180" y="532" font-size="12" fill="#4A5568" text-anchor="start" class="excalidraw-text" opacity="1">Egysegar:</text>
<rect x="180" y="540" width="120" height="36" stroke="#D0D4D9" fill="#F8F9FA" stroke-width="1" rx="4" opacity="1"/>
<text x="240" y="564" font-size="14" fill="#1A1F26" text-anchor="middle" class="excalidraw-text" opacity="1">5.000 Ft</text>
<text x="340" y="532" font-size="12" fill="#4A5568" text-anchor="start" class="excalidraw-text" opacity="1">Osszesen:</text>
<text x="340" y="563" font-size="18" fill="#1A2634" text-anchor="start" class="excalidraw-text" opacity="1">50.000 Ft</text>
<rect x="470" y="548" width="80" height="4" stroke="#a0a4a9" fill="#a0a4a9" stroke-width="1" rx="4" opacity="1"/>
<rect x="470" y="520" width="80" height="32" stroke="#D0D4D9" fill="#EAECEF" stroke-width="1" rx="4" opacity="1"/>
<text x="510" y="540" font-size="12" fill="#4A5568" text-anchor="middle" class="excalidraw-text" opacity="1">Megse</text>
<rect x="560" y="548" width="120" height="4" stroke="#8a3200" fill="#8a3200" stroke-width="1" rx="4" opacity="1"/>
<rect x="560" y="520" width="120" height="32" stroke="#BF4400" fill="#BF4400" stroke-width="1" rx="4" opacity="1"/>
<text x="620" y="540" font-size="12" fill="#ffffff" text-anchor="middle" class="excalidraw-text" opacity="1">[OK] Hozzaad</text>
<text x="800" y="158" font-size="18" fill="#BF4400" text-anchor="start" class="excalidraw-text" opacity="1">2. VAT DECISION CARD Tipusok</text>
<rect x="800" y="180" width="350" height="120" stroke="#2e7d32" fill="#e8f5e9" stroke-width="2" rx="8" opacity="1"/>
<text x="820" y="209" font-size="14" fill="#2e7d32" text-anchor="start" class="excalidraw-text" opacity="1">KAUCIO TIPUS</text>
<path d="M 820 218 L 1130 218" stroke="#2e7d32" fill="none" stroke-width="1" opacity="1"/>
<text x="820" y="241" font-size="13" fill="#2e7d32" text-anchor="start" class="excalidraw-text" opacity="1">[OK] Kaucio tetel detektalva</text>
<rect x="820" y="268" width="120" height="4" stroke="#1a4a33" fill="#1a4a33" stroke-width="1" rx="4" opacity="1"/>
<rect x="820" y="255" width="120" height="32" stroke="#276749" fill="#276749" stroke-width="1" rx="4" opacity="1"/>
<text x="880" y="277" font-size="14" fill="#ffffff" text-anchor="middle" class="excalidraw-text" opacity="1">0% AFA</text>
<text x="960" y="274" font-size="11" fill="#4A5568" text-anchor="start" class="excalidraw-text" opacity="1">(nem termek/szolgaltatas)</text>
<rect x="800" y="320" width="350" height="130" stroke="#BF4400" fill="#FFF3E0" stroke-width="2" rx="8" opacity="1"/>
<text x="820" y="349" font-size="14" fill="#BF4400" text-anchor="start" class="excalidraw-text" opacity="1">FAD TERMEK</text>
<path d="M 820 358 L 1130 358" stroke="#BF4400" fill="none" stroke-width="1" opacity="1"/>
<text x="820" y="381" font-size="13" fill="#2e7d32" text-anchor="start" class="excalidraw-text" opacity="1">[OK] FAD termek (femkereskedes)</text>
<text x="820" y="401" font-size="13" fill="#2e7d32" text-anchor="start" class="excalidraw-text" opacity="1">[OK] Partner FAD jogosult</text>
<rect x="820" y="422" width="180" height="4" stroke="#1a4a33" fill="#1a4a33" stroke-width="1" rx="4" opacity="1"/>
<rect x="820" y="408" width="180" height="32" stroke="#276749" fill="#276749" stroke-width="1" rx="4" opacity="1"/>
<text x="910" y="430" font-size="14" fill="#ffffff" text-anchor="middle" class="excalidraw-text" opacity="1">0% AFA (FAD)</text>
<rect x="800" y="470" width="350" height="110" stroke="#1565A8" fill="#E3F2FD" stroke-width="2" rx="8" opacity="1"/>
<text x="820" y="499" font-size="14" fill="#1565A8" text-anchor="start" class="excalidraw-text" opacity="1">NORMAL TERMEK</text>
<path d="M 820 508 L 1130 508" stroke="#1565A8" fill="none" stroke-width="1" opacity="1"/>
<text x="820" y="531" font-size="13" fill="#4A5568" text-anchor="start" class="excalidraw-text" opacity="1">Standard termek - 27% AFA alkalmazando</text>
<rect x="820" y="554" width="120" height="4" stroke="#0e4a7a" fill="#0e4a7a" stroke-width="1" rx="4" opacity="1"/>
<rect x="820" y="540" width="120" height="32" stroke="#1565A8" fill="#1565A8" stroke-width="1" rx="4" opacity="1"/>
<text x="880" y="562" font-size="14" fill="#ffffff" text-anchor="middle" class="excalidraw-text" opacity="1">27% AFA</text>
<text x="50" y="638" font-size="18" fill="#BF4400" text-anchor="start" class="excalidraw-text" opacity="1">3. FAD WARNING MODAL (Partner nem jogosult)</text>
<rect x="50" y="660" width="700" height="380" stroke="#1A2634" fill="rgba(26, 38, 52, 0.5)" stroke-width="1" rx="0" opacity="1"/>
<rect x="100" y="700" width="600" height="300" stroke="#c62828" fill="#F8F9FA" stroke-width="3" rx="12" opacity="1"/>
<rect x="100" y="700" width="600" height="50" stroke="#c62828" fill="#c62828" stroke-width="1" rx="12" opacity="1"/>
<text x="130" y="731" font-size="16" fill="#ffffff" text-anchor="start" class="excalidraw-text" opacity="1">[!] FAD TERMEK FIGYELMEZTETES</text>
<text x="675" y="731" font-size="16" fill="#ffffff" text-anchor="middle" class="excalidraw-text" opacity="1">[X]</text>
<text x="130" y="783" font-size="13" fill="#4A5568" text-anchor="start" class="excalidraw-text" opacity="1">A kivalasztott termek FAD jelolesu (femkereskedes/acel</text>
<text x="130" y="798.6" font-size="13" fill="#4A5568" text-anchor="start" class="excalidraw-text" opacity="1">alapanyag), de a partner NEM rendelkezik FAD jogosultsaggal.</text>
<rect x="130" y="820" width="540" height="60" stroke="#D0D4D9" fill="#EAECEF" stroke-width="1" rx="8" opacity="1"/>
<text x="150" y="849" font-size="14" fill="#1A1F26" text-anchor="start" class="excalidraw-text" opacity="1">Partner: Kiss Janos (Maganszemely)</text>
<text x="150" y="872" font-size="14" fill="#c62828" text-anchor="start" class="excalidraw-text" opacity="1">FAD statusz: [X] Nem jogosult</text>
<text x="130" y="908" font-size="13" fill="#c62828" text-anchor="start" class="excalidraw-text" opacity="1">[X] Ez a tranzakcio NEM folytatodhat ezzel a partnerrel.</text>
<text x="130" y="933" font-size="13" fill="#4A5568" text-anchor="start" class="excalidraw-text" opacity="1">Lehetosegek:</text>
<text x="150" y="952" font-size="12" fill="#4A5568" text-anchor="start" class="excalidraw-text" opacity="1">* Valasszon masik partnert (FAD jogosultat)</text>
<text x="150" y="970" font-size="12" fill="#4A5568" text-anchor="start" class="excalidraw-text" opacity="1">* Valasszon masik termeket (nem FAD)</text>
<rect x="430" y="958" width="130" height="4" stroke="#0e4a7a" fill="#0e4a7a" stroke-width="1" rx="4" opacity="1"/>
<rect x="430" y="930" width="130" height="32" stroke="#1565A8" fill="#1565A8" stroke-width="1" rx="4" opacity="1"/>
<text x="495" y="949" font-size="11" fill="#ffffff" text-anchor="middle" class="excalidraw-text" opacity="1">Partner modositas</text>
<rect x="570" y="958" width="80" height="4" stroke="#a0a4a9" fill="#a0a4a9" stroke-width="1" rx="4" opacity="1"/>
<rect x="570" y="930" width="80" height="32" stroke="#D0D4D9" fill="#EAECEF" stroke-width="1" rx="4" opacity="1"/>
<text x="610" y="949" font-size="11" fill="#4A5568" text-anchor="middle" class="excalidraw-text" opacity="1">Vissza</text>
<text x="800" y="638" font-size="18" fill="#BF4400" text-anchor="start" class="excalidraw-text" opacity="1">4. PARTNER VAT BADGE Komponensek</text>
<text x="800" y="678" font-size="13" fill="#4A5568" text-anchor="start" class="excalidraw-text" opacity="1">FAD jogosult partner:</text>
<rect x="800" y="690" width="200" height="40" stroke="#2e7d32" fill="#e8f5e9" stroke-width="2" rx="8" opacity="1"/>
<text x="830" y="712" font-size="12" fill="#2e7d32" text-anchor="middle" class="excalidraw-text" opacity="1">[OK]</text>
<text x="850" y="715" font-size="13" fill="#2e7d32" text-anchor="start" class="excalidraw-text" opacity="1">FAD JOGOSULT</text>
<text x="1020" y="678" font-size="13" fill="#4A5568" text-anchor="start" class="excalidraw-text" opacity="1">Forditott AFA nyilatkozat:</text>
<rect x="1020" y="690" width="200" height="40" stroke="#1565A8" fill="#E3F2FD" stroke-width="2" rx="8" opacity="1"/>
<text x="1050" y="712" font-size="12" fill="#1565A8" text-anchor="middle" class="excalidraw-text" opacity="1">[&lt;&gt;]</text>
<text x="1070" y="715" font-size="13" fill="#1565A8" text-anchor="start" class="excalidraw-text" opacity="1">FORDITOTT AFA</text>
<text x="800" y="763" font-size="13" fill="#4A5568" text-anchor="start" class="excalidraw-text" opacity="1">Standard partner (27%):</text>
<rect x="800" y="775" width="200" height="40" stroke="#D0D4D9" fill="#EAECEF" stroke-width="1" rx="8" opacity="1"/>
<text x="900" y="800" font-size="12" fill="#4A5568" text-anchor="middle" class="excalidraw-text" opacity="1">STANDARD (27%)</text>
<text x="1020" y="763" font-size="13" fill="#4A5568" text-anchor="start" class="excalidraw-text" opacity="1">FAD nem jogosult:</text>
<rect x="1020" y="775" width="200" height="40" stroke="#c62828" fill="#ffebee" stroke-width="2" rx="8" opacity="1"/>
<text x="1050" y="797" font-size="12" fill="#c62828" text-anchor="middle" class="excalidraw-text" opacity="1">[X]</text>
<text x="1070" y="799" font-size="11" fill="#c62828" text-anchor="start" class="excalidraw-text" opacity="1">FAD NEM JOGOSULT</text>
<text x="50" y="1098" font-size="18" fill="#BF4400" text-anchor="start" class="excalidraw-text" opacity="1">5. VIZUALIS DONTESI FA</text>
<rect x="50" y="1120" width="1500" height="620" stroke="#D0D4D9" fill="#F8F9FA" stroke-width="1" rx="8" opacity="1"/>
<ellipse cx="780" cy="1175" rx="60" ry="25" stroke="#1565A8" fill="#E3F2FD" stroke-width="2" opacity="1"/>
<text x="780" y="1179" font-size="14" fill="#1565A8" text-anchor="middle" class="excalidraw-text" opacity="1">TETEL</text>
<path d="M 780 1200 L 780 1240" stroke="#4A5568" fill="none" stroke-width="2" marker-end="url(#ah)" opacity="1"/>
<polygon points="780,1250 900,1300 780,1350 660,1300" stroke="#BF4400" fill="#FFF3E0" stroke-width="2" opacity="1"/>
<text x="780" y="1299" font-size="14" fill="#1A1F26" text-anchor="middle" class="excalidraw-text" opacity="1">Tetel tipusa?</text>
<path d="M 660 1300 L 460 1300" stroke="#2e7d32" fill="none" stroke-width="2" marker-end="url(#ah)" opacity="1"/>
<text x="520" y="1292" font-size="12" fill="#2e7d32" text-anchor="middle" class="excalidraw-text" opacity="1">Kaucio</text>
<rect x="280" y="1270" width="160" height="60" stroke="#2e7d32" fill="#e8f5e9" stroke-width="3" rx="8" opacity="1"/>
<text x="360" y="1306" font-size="16" fill="#2e7d32" text-anchor="middle" class="excalidraw-text" opacity="1">0% AFA</text>
<path d="M 900 1300 L 1100 1300" stroke="#BF4400" fill="none" stroke-width="2" marker-end="url(#ah)" opacity="1"/>
<text x="1010" y="1292" font-size="12" fill="#BF4400" text-anchor="middle" class="excalidraw-text" opacity="1">FAD termek</text>
<polygon points="1220,1250 1340,1300 1220,1350 1100,1300" stroke="#BF4400" fill="#FFF3E0" stroke-width="2" opacity="1"/>
<text x="1220" y="1293" font-size="13" fill="#1A1F26" text-anchor="middle" class="excalidraw-text" opacity="1">Partner FAD</text>
<text x="1220" y="1308.6" font-size="13" fill="#1A1F26" text-anchor="middle" class="excalidraw-text" opacity="1">jogosult?</text>
<path d="M 1220 1350 L 1220 1400" stroke="#2e7d32" fill="none" stroke-width="2" marker-end="url(#ah)" opacity="1"/>
<text x="1230" y="1382" font-size="12" fill="#2e7d32" text-anchor="start" class="excalidraw-text" opacity="1">Igen</text>
<rect x="1140" y="1410" width="160" height="60" stroke="#2e7d32" fill="#e8f5e9" stroke-width="3" rx="8" opacity="1"/>
<text x="1220" y="1439" font-size="14" fill="#2e7d32" text-anchor="middle" class="excalidraw-text" opacity="1">0% AFA</text>
<text x="1220" y="1455.8" font-size="14" fill="#2e7d32" text-anchor="middle" class="excalidraw-text" opacity="1">(FAD)</text>
<path d="M 1340 1300 L 1420 1300" stroke="#c62828" fill="none" stroke-width="2" marker-end="url(#ah)" opacity="1"/>
<text x="1380" y="1292" font-size="12" fill="#c62828" text-anchor="middle" class="excalidraw-text" opacity="1">Nem</text>
<rect x="1420" y="1260" width="120" height="80" stroke="#c62828" fill="#ffebee" stroke-width="3" rx="8" opacity="1"/>
<text x="1480" y="1297" font-size="12" fill="#c62828" text-anchor="middle" class="excalidraw-text" opacity="1">BLOCK!</text>
<text x="1480" y="1311.4" font-size="12" fill="#c62828" text-anchor="middle" class="excalidraw-text" opacity="1">Modal</text>
<path d="M 780 1350 L 780 1400" stroke="#1565A8" fill="none" stroke-width="2" marker-end="url(#ah)" opacity="1"/>
<text x="790" y="1372" font-size="12" fill="#1565A8" text-anchor="start" class="excalidraw-text" opacity="1">Normal termek</text>
<polygon points="780,1410 900,1460 780,1510 660,1460" stroke="#BF4400" fill="#FFF3E0" stroke-width="2" opacity="1"/>
<text x="780" y="1459" font-size="14" fill="#1A1F26" text-anchor="middle" class="excalidraw-text" opacity="1">Ugyfel tipusa?</text>
<path d="M 660 1460 L 460 1460" stroke="#1565A8" fill="none" stroke-width="2" marker-end="url(#ah)" opacity="1"/>
<text x="530" y="1452" font-size="12" fill="#1565A8" text-anchor="middle" class="excalidraw-text" opacity="1">Maganszemely</text>
<rect x="280" y="1430" width="160" height="60" stroke="#1565A8" fill="#E3F2FD" stroke-width="3" rx="8" opacity="1"/>
<text x="360" y="1466" font-size="16" fill="#1565A8" text-anchor="middle" class="excalidraw-text" opacity="1">27% AFA</text>
<path d="M 780 1510 L 780 1560" stroke="#BF4400" fill="none" stroke-width="2" marker-end="url(#ah)" opacity="1"/>
<text x="790" y="1532" font-size="12" fill="#BF4400" text-anchor="start" class="excalidraw-text" opacity="1">Ceg</text>
<polygon points="780,1570 920,1620 780,1670 640,1620" stroke="#BF4400" fill="#FFF3E0" stroke-width="2" opacity="1"/>
<text x="780" y="1613" font-size="13" fill="#1A1F26" text-anchor="middle" class="excalidraw-text" opacity="1">Forditott AFA</text>
<text x="780" y="1628.6" font-size="13" fill="#1A1F26" text-anchor="middle" class="excalidraw-text" opacity="1">nyilatkozat van?</text>
<path d="M 640 1620 L 440 1620" stroke="#2e7d32" fill="none" stroke-width="2" marker-end="url(#ah)" opacity="1"/>
<text x="520" y="1612" font-size="12" fill="#2e7d32" text-anchor="middle" class="excalidraw-text" opacity="1">Van</text>
<rect x="280" y="1590" width="160" height="60" stroke="#2e7d32" fill="#e8f5e9" stroke-width="3" rx="8" opacity="1"/>
<text x="360" y="1618" font-size="13" fill="#2e7d32" text-anchor="middle" class="excalidraw-text" opacity="1">0% AFA</text>
<text x="360" y="1633.6" font-size="13" fill="#2e7d32" text-anchor="middle" class="excalidraw-text" opacity="1">(NAV: AAM)</text>
<path d="M 920 1620 L 1120 1620" stroke="#1565A8" fill="none" stroke-width="2" marker-end="url(#ah)" opacity="1"/>
<text x="1020" y="1612" font-size="12" fill="#1565A8" text-anchor="middle" class="excalidraw-text" opacity="1">Nincs</text>
<rect x="1120" y="1590" width="160" height="60" stroke="#1565A8" fill="#E3F2FD" stroke-width="3" rx="8" opacity="1"/>
<text x="1200" y="1626" font-size="16" fill="#1565A8" text-anchor="middle" class="excalidraw-text" opacity="1">27% AFA</text>
<rect x="80" y="1680" width="500" height="50" stroke="#D0D4D9" fill="#EAECEF" stroke-width="1" rx="8" opacity="1"/>
<text x="100" y="1707" font-size="12" fill="#4A5568" text-anchor="start" class="excalidraw-text" opacity="1">Jelmagyarazat:</text>
<rect x="220" y="1693" width="20" height="20" stroke="#2e7d32" fill="#e8f5e9" stroke-width="2" rx="4" opacity="1"/>
<text x="248" y="1709" font-size="11" fill="#2e7d32" text-anchor="start" class="excalidraw-text" opacity="1">0% AFA</text>
<rect x="320" y="1693" width="20" height="20" stroke="#1565A8" fill="#E3F2FD" stroke-width="2" rx="4" opacity="1"/>
<text x="348" y="1709" font-size="11" fill="#1565A8" text-anchor="start" class="excalidraw-text" opacity="1">27% AFA</text>
<rect x="420" y="1693" width="20" height="20" stroke="#c62828" fill="#ffebee" stroke-width="2" rx="4" opacity="1"/>
<text x="448" y="1709" font-size="11" fill="#c62828" text-anchor="start" class="excalidraw-text" opacity="1">Block/Hiba</text>
<polygon points="793,1690 806,1703 793,1716 780,1703" stroke="#BF4400" fill="#FFF3E0" stroke-width="2" opacity="1"/>
<text x="815" y="1709" font-size="11" fill="#BF4400" text-anchor="start" class="excalidraw-text" opacity="1">Dontesi pont</text>
</svg>