<svg xmlns="http://www.w3.org/2000/svg" viewBox="-20 -20 1290 1410" class="w-full h-auto">
<defs>
<style>.excalidraw-text { font-family: Segoe UI, Arial, sans-serif; }</style>
<marker id="ah" markerWidth="12" markerHeight="8" refX="10" refY="4" orient="auto" markerUnits="strokeWidth">
<polygon points="0 0, 12 4, 0 8" fill="#1e1e1e"/>
</marker>
<marker id="ah-blue" markerWidth="12" markerHeight="8" refX="10" refY="4" orient="auto" markerUnits="strokeWidth">
<polygon points="0 0, 12 4, 0 8" fill="#1976d2"/>
</marker>
<marker id="ah-green" markerWidth="12" markerHeight="8" refX="10" refY="4" orient="auto" markerUnits="strokeWidth">
<polygon points="0 0, 12 4, 0 8" fill="#388e3c"/>
</marker>
<marker id="ah-orange" markerWidth="12" markerHeight="8" refX="10" refY="4" orient="auto" markerUnits="strokeWidth">
<polygon points="0 0, 12 4, 0 8" fill="#f57c00"/>
</marker>
</defs>
<rect x="-20" y="-20" width="1290" height="1410" fill="#ffffff"/>
<ellipse cx="460" cy="50" rx="60" ry="30" stroke="#1976d2" fill="#e3f2fd" stroke-width="2" opacity="1"/>
<text x="460" y="55" font-size="20" fill="#1e1e1e" text-anchor="middle" class="excalidraw-text" opacity="1">START</text>
<path d="M 460 90 L 460 130" stroke="#1976d2" fill="none" stroke-width="2" marker-end="url(#ah-blue)" opacity="1"/>
<rect x="360" y="140" width="200" height="80" stroke="#1976d2" fill="#e3f2fd" stroke-width="2" rx="8" opacity="1"/>
<text x="460" y="173" font-size="18" fill="#1e1e1e" text-anchor="middle" class="excalidraw-text" opacity="1">1. Ügyfél</text>
<text x="460" y="194.6" font-size="18" fill="#1e1e1e" text-anchor="middle" class="excalidraw-text" opacity="1">kiválasztás</text>
<path d="M 460 230 L 460 270" stroke="#1976d2" fill="none" stroke-width="2" marker-end="url(#ah-blue)" opacity="1"/>
<rect x="320" y="280" width="280" height="80" stroke="#1976d2" fill="#e3f2fd" stroke-width="2" rx="8" opacity="1"/>
<text x="460" y="313" font-size="18" fill="#1e1e1e" text-anchor="middle" class="excalidraw-text" opacity="1">2. Státusz lekérés:</text>
<text x="460" y="334.6" font-size="18" fill="#1e1e1e" text-anchor="middle" class="excalidraw-text" opacity="1">getValidationStatus()</text>
<path d="M 460 370 L 460 410" stroke="#1976d2" fill="none" stroke-width="2" marker-end="url(#ah-blue)" opacity="1"/>
<polygon points="460,420 580,490 460,560 340,490" stroke="#f57c00" fill="#fff3e0" stroke-width="2" opacity="1"/>
<text x="460" y="483" font-size="18" fill="#1e1e1e" text-anchor="middle" class="excalidraw-text" opacity="1">Utolsó ellenőrzés</text>
<text x="460" y="504.6" font-size="18" fill="#1e1e1e" text-anchor="middle" class="excalidraw-text" opacity="1">óta eltelt idő?</text>
<path d="M 220 490 L 110 490" stroke="#2e7d32" fill="none" stroke-width="2" marker-end="url(#ah)" opacity="1"/>
<text x="180" y="481" font-size="16" fill="#2e7d32" text-anchor="middle" class="excalidraw-text" opacity="1">&lt; 90 nap</text>
<rect x="20" y="450" width="180" height="80" stroke="#2e7d32" fill="#c8e6c9" stroke-width="3" rx="8" opacity="1"/>
<text x="110" y="481" font-size="16" fill="#1e1e1e" text-anchor="middle" class="excalidraw-text" opacity="1">🟢 ZÖLD:</text>
<text x="110" y="500.2" font-size="16" fill="#1e1e1e" text-anchor="middle" class="excalidraw-text" opacity="1">Auto-jóváhagyás</text>
<path d="M 460 570 L 460 620" stroke="#f57f17" fill="none" stroke-width="2" marker-end="url(#ah)" opacity="1"/>
<text x="525" y="601" font-size="16" fill="#f57f17" text-anchor="middle" class="excalidraw-text" opacity="1">90-180 nap</text>
<rect x="360" y="630" width="200" height="80" stroke="#f57f17" fill="#fff9c4" stroke-width="3" rx="8" opacity="1"/>
<text x="460" y="661" font-size="16" fill="#1e1e1e" text-anchor="middle" class="excalidraw-text" opacity="1">🟡 SÁRGA:</text>
<text x="460" y="680.2" font-size="16" fill="#1e1e1e" text-anchor="middle" class="excalidraw-text" opacity="1">Figyelmeztetés</text>
<path d="M 700 490 L 810 490" stroke="#c62828" fill="none" stroke-width="2" marker-end="url(#ah)" opacity="1"/>
<text x="760" y="481" font-size="16" fill="#c62828" text-anchor="middle" class="excalidraw-text" opacity="1">&gt; 180 nap</text>
<rect x="720" y="450" width="200" height="80" stroke="#c62828" fill="#ffcdd2" stroke-width="3" rx="8" opacity="1"/>
<text x="820" y="480" font-size="15" fill="#1e1e1e" text-anchor="middle" class="excalidraw-text" opacity="1">🔴 PIROS:</text>
<text x="820" y="498" font-size="15" fill="#1e1e1e" text-anchor="middle" class="excalidraw-text" opacity="1">Kötelező validáció</text>
<path d="M 460 720 L 460 770" stroke="#1976d2" fill="none" stroke-width="2" marker-end="url(#ah-blue)" opacity="1"/>
<polygon points="460,780 540,840 460,900 380,840" stroke="#f57c00" fill="#fff3e0" stroke-width="2" opacity="1"/>
<text x="460" y="833" font-size="18" fill="#1e1e1e" text-anchor="middle" class="excalidraw-text" opacity="1">Validál vagy</text>
<text x="460" y="854.6" font-size="18" fill="#1e1e1e" text-anchor="middle" class="excalidraw-text" opacity="1">folytat?</text>
<path d="M 820 540 L 820 600" stroke="#1976d2" fill="none" stroke-width="2" marker-end="url(#ah-blue)" opacity="1"/>
<polygon points="820,610 900,670 820,730 740,670" stroke="#f57c00" fill="#fff3e0" stroke-width="2" opacity="1"/>
<text x="820" y="663" font-size="18" fill="#1e1e1e" text-anchor="middle" class="excalidraw-text" opacity="1">Admin</text>
<text x="820" y="684.6" font-size="18" fill="#1e1e1e" text-anchor="middle" class="excalidraw-text" opacity="1">override?</text>
<path d="M 940 670 L 1020 670" stroke="#1976d2" fill="none" stroke-width="2" marker-end="url(#ah-blue)" opacity="1"/>
<text x="985" y="666" font-size="16" fill="#1976d2" text-anchor="middle" class="excalidraw-text" opacity="1">Igen</text>
<rect x="1030" y="630" width="200" height="80" stroke="#1976d2" fill="#e3f2fd" stroke-width="2" rx="8" opacity="1"/>
<text x="1130" y="660" font-size="15" fill="#1e1e1e" text-anchor="middle" class="excalidraw-text" opacity="1">6. Override</text>
<text x="1130" y="678" font-size="15" fill="#1e1e1e" text-anchor="middle" class="excalidraw-text" opacity="1">indoklás rögzítése</text>
<path d="M 300 840 L 230 840" stroke="#1976d2" fill="none" stroke-width="2" marker-end="url(#ah-blue)" opacity="1"/>
<text x="280" y="836" font-size="16" fill="#1976d2" text-anchor="middle" class="excalidraw-text" opacity="1">Folytat</text>
<rect x="40" y="800" width="180" height="80" stroke="#1976d2" fill="#e3f2fd" stroke-width="2" rx="8" opacity="1"/>
<text x="130" y="833" font-size="18" fill="#1e1e1e" text-anchor="middle" class="excalidraw-text" opacity="1">4. Munka</text>
<text x="130" y="854.6" font-size="18" fill="#1e1e1e" text-anchor="middle" class="excalidraw-text" opacity="1">folytatása</text>
<path d="M 460 910 L 460 960" stroke="#1976d2" fill="none" stroke-width="2" marker-end="url(#ah-blue)" opacity="1"/>
<text x="505" y="941" font-size="16" fill="#1976d2" text-anchor="middle" class="excalidraw-text" opacity="1">Validál</text>
<path d="M 820 740 L 820 840 L 460 840 L 460 860" stroke="#1976d2" fill="none" stroke-width="2" marker-end="url(#ah-blue)" opacity="1"/>
<text x="850" y="766" font-size="16" fill="#1976d2" text-anchor="middle" class="excalidraw-text" opacity="1">Nem</text>
<rect x="360" y="970" width="200" height="100" stroke="#1976d2" fill="#e3f2fd" stroke-width="2" rx="8" opacity="1"/>
<text x="460" y="1001" font-size="16" fill="#1e1e1e" text-anchor="middle" class="excalidraw-text" opacity="1">5. Validációs</text>
<text x="460" y="1020.2" font-size="16" fill="#1e1e1e" text-anchor="middle" class="excalidraw-text" opacity="1">Dialog</text>
<text x="460" y="1039.4" font-size="16" fill="#1e1e1e" text-anchor="middle" class="excalidraw-text" opacity="1">(Scan/Manual/OK)</text>
<path d="M 110 540 L 110 800 L 460 800" stroke="#2e7d32" fill="none" stroke-width="2" marker-end="url(#ah)" opacity="1"/>
<path d="M 1130 720 L 1130 800 L 460 800" stroke="#1976d2" fill="none" stroke-width="2" marker-end="url(#ah-blue)" opacity="1"/>
<path d="M 130 890 L 130 1000 L 460 1000" stroke="#1976d2" fill="none" stroke-width="2" marker-end="url(#ah-blue)" opacity="1"/>
<path d="M 460 1080 L 460 1130" stroke="#1976d2" fill="none" stroke-width="2" marker-end="url(#ah-blue)" opacity="1"/>
<rect x="360" y="1140" width="200" height="80" stroke="#388e3c" fill="#e8f5e9" stroke-width="2" rx="8" opacity="1"/>
<text x="460" y="1173" font-size="18" fill="#1e1e1e" text-anchor="middle" class="excalidraw-text" opacity="1">7. Audit Log</text>
<text x="460" y="1194.6" font-size="18" fill="#1e1e1e" text-anchor="middle" class="excalidraw-text" opacity="1">rögzítése</text>
<path d="M 460 1230 L 460 1280" stroke="#1976d2" fill="none" stroke-width="2" marker-end="url(#ah-blue)" opacity="1"/>
<ellipse cx="460" cy="1320" rx="60" ry="30" stroke="#1976d2" fill="#e3f2fd" stroke-width="2" opacity="1"/>
<text x="460" y="1325" font-size="20" fill="#1e1e1e" text-anchor="middle" class="excalidraw-text" opacity="1">END</text>
</svg>