<svg xmlns="http://www.w3.org/2000/svg" viewBox="60 -20 1020 1810" class="w-full h-auto">
<defs>
<style>.excalidraw-text { font-family: Segoe UI, Arial, sans-serif; }</style>
<marker id="ah" markerWidth="12" markerHeight="8" refX="10" refY="4" orient="auto" markerUnits="strokeWidth">
<polygon points="0 0, 12 4, 0 8" fill="#1e1e1e"/>
</marker>
<marker id="ah-blue" markerWidth="12" markerHeight="8" refX="10" refY="4" orient="auto" markerUnits="strokeWidth">
<polygon points="0 0, 12 4, 0 8" fill="#1976d2"/>
</marker>
<marker id="ah-green" markerWidth="12" markerHeight="8" refX="10" refY="4" orient="auto" markerUnits="strokeWidth">
<polygon points="0 0, 12 4, 0 8" fill="#388e3c"/>
</marker>
<marker id="ah-orange" markerWidth="12" markerHeight="8" refX="10" refY="4" orient="auto" markerUnits="strokeWidth">
<polygon points="0 0, 12 4, 0 8" fill="#f57c00"/>
</marker>
</defs>
<rect x="60" y="-20" width="1020" height="1810" fill="#ffffff"/>
<text x="525" y="48" font-size="28" fill="#1e1e1e" text-anchor="middle" class="excalidraw-text" opacity="1">Minőségellenőrzés (QA) Flow</text>
<ellipse cx="500" cy="120" rx="40" ry="40" stroke="#1e1e1e" fill="#d3f9d8" stroke-width="2" opacity="1"/>
<text x="500" y="122" font-size="14" fill="#1e1e1e" text-anchor="middle" class="excalidraw-text" opacity="1">START</text>
<path d="M 500 160 L 500 200" stroke="#1e1e1e" fill="none" stroke-width="2" marker-end="url(#ah)" opacity="1"/>
<rect x="380" y="210" width="240" height="60" stroke="#1971c2" fill="#e7f5ff" stroke-width="2" rx="0" opacity="1"/>
<text x="500" y="237" font-size="12" fill="#1e1e1e" text-anchor="middle" class="excalidraw-text" opacity="1">Gyártási fázis befejezése</text>
<text x="500" y="251.4" font-size="12" fill="#1e1e1e" text-anchor="middle" class="excalidraw-text" opacity="1">(phase status → completed)</text>
<path d="M 500 270 L 500 310" stroke="#1e1e1e" fill="none" stroke-width="2" marker-end="url(#ah)" opacity="1"/>
<polygon points="500,320 580,370 500,420 420,370" stroke="#e67700" fill="#fff3bf" stroke-width="2" opacity="1"/>
<text x="500" y="367" font-size="12" fill="#1e1e1e" text-anchor="middle" class="excalidraw-text" opacity="1">QA kötelező</text>
<text x="500" y="381.4" font-size="12" fill="#1e1e1e" text-anchor="middle" class="excalidraw-text" opacity="1">a fázishoz?</text>
<path d="M 500 420 L 500 470" stroke="#2f9e44" fill="none" stroke-width="2" marker-end="url(#ah)" opacity="1"/>
<text x="510" y="442" font-size="12" fill="#2f9e44" text-anchor="start" class="excalidraw-text" opacity="1">IGEN</text>
<path d="M 580 370 L 720 370" stroke="#e03131" fill="none" stroke-width="2" marker-end="url(#ah)" opacity="1"/>
<text x="620" y="362" font-size="12" fill="#e03131" text-anchor="start" class="excalidraw-text" opacity="1">NEM</text>
<rect x="720" y="340" width="180" height="60" stroke="#868e96" fill="#f1f3f5" stroke-width="2" rx="0" opacity="1"/>
<text x="810" y="367" font-size="12" fill="#1e1e1e" text-anchor="middle" class="excalidraw-text" opacity="1">QA kihagyása</text>
<text x="810" y="381.4" font-size="12" fill="#1e1e1e" text-anchor="middle" class="excalidraw-text" opacity="1">Auto-jóváhagyás</text>
<rect x="380" y="480" width="240" height="60" stroke="#1971c2" fill="#e7f5ff" stroke-width="2" rx="0" opacity="1"/>
<text x="500" y="507" font-size="12" fill="#1e1e1e" text-anchor="middle" class="excalidraw-text" opacity="1">Mintavételezés</text>
<text x="500" y="521.4" font-size="12" fill="#1e1e1e" text-anchor="middle" class="excalidraw-text" opacity="1">(sampling_percentage %)</text>
<path d="M 500 540 L 500 580" stroke="#1e1e1e" fill="none" stroke-width="2" marker-end="url(#ah)" opacity="1"/>
<rect x="380" y="590" width="240" height="60" stroke="#1971c2" fill="#e7f5ff" stroke-width="2" rx="0" opacity="1"/>
<text x="500" y="617" font-size="12" fill="#1e1e1e" text-anchor="middle" class="excalidraw-text" opacity="1">Minőségi ellenőrzés</text>
<text x="500" y="631.4" font-size="12" fill="#1e1e1e" text-anchor="middle" class="excalidraw-text" opacity="1">végrehajtása</text>
<path d="M 500 650 L 500 690" stroke="#1e1e1e" fill="none" stroke-width="2" marker-end="url(#ah)" opacity="1"/>
<polygon points="500,700 580,750 500,800 420,750" stroke="#e67700" fill="#fff3bf" stroke-width="2" opacity="1"/>
<text x="500" y="749" font-size="14" fill="#1e1e1e" text-anchor="middle" class="excalidraw-text" opacity="1">Eredmény?</text>
<path d="M 580 750 L 720 750" stroke="#2f9e44" fill="none" stroke-width="2" marker-end="url(#ah)" opacity="1"/>
<text x="655" y="742" font-size="12" fill="#2f9e44" text-anchor="middle" class="excalidraw-text" opacity="1">MEGFELELT</text>
<path d="M 420 750 L 300 750" stroke="#e03131" fill="none" stroke-width="2" marker-end="url(#ah)" opacity="1"/>
<text x="335" y="741" font-size="11" fill="#e03131" text-anchor="middle" class="excalidraw-text" opacity="1">NEM FELELT MEG</text>
<rect x="720" y="720" width="180" height="60" stroke="#2f9e44" fill="#d3f9d8" stroke-width="2" rx="0" opacity="1"/>
<text x="810" y="747" font-size="12" fill="#1e1e1e" text-anchor="middle" class="excalidraw-text" opacity="1">QA jóváhagyás</text>
<text x="810" y="761.4" font-size="12" fill="#1e1e1e" text-anchor="middle" class="excalidraw-text" opacity="1">qa_status = &apos;passed&apos;</text>
<polygon points="220,700 300,750 220,800 140,750" stroke="#e03131" fill="#ffe3e3" stroke-width="2" opacity="1"/>
<text x="220" y="749" font-size="14" fill="#1e1e1e" text-anchor="middle" class="excalidraw-text" opacity="1">Javítható?</text>
<path d="M 220 700 L 220 640" stroke="#e67700" fill="none" stroke-width="2" marker-end="url(#ah)" opacity="1"/>
<text x="230" y="672" font-size="12" fill="#e67700" text-anchor="start" class="excalidraw-text" opacity="1">IGEN</text>
<path d="M 220 800 L 220 850" stroke="#e03131" fill="none" stroke-width="2" marker-end="url(#ah)" opacity="1"/>
<text x="230" y="822" font-size="12" fill="#e03131" text-anchor="start" class="excalidraw-text" opacity="1">NEM</text>
<rect x="120" y="570" width="200" height="70" stroke="#e67700" fill="#fff3bf" stroke-width="2" rx="0" opacity="1"/>
<text x="220" y="596" font-size="11" fill="#1e1e1e" text-anchor="middle" class="excalidraw-text" opacity="1">Újramunkálás</text>
<text x="220" y="609.2" font-size="11" fill="#1e1e1e" text-anchor="middle" class="excalidraw-text" opacity="1">(rework)</text>
<text x="220" y="622.4" font-size="11" fill="#1e1e1e" text-anchor="middle" class="excalidraw-text" opacity="1">qa_status = &apos;rework&apos;</text>
<rect x="120" y="860" width="200" height="70" stroke="#e03131" fill="#ffe3e3" stroke-width="2" rx="0" opacity="1"/>
<text x="220" y="886" font-size="11" fill="#1e1e1e" text-anchor="middle" class="excalidraw-text" opacity="1">Selejtezés (scrap)</text>
<text x="220" y="899.2" font-size="11" fill="#1e1e1e" text-anchor="middle" class="excalidraw-text" opacity="1">qa_status = &apos;rejected&apos;</text>
<text x="220" y="912.4" font-size="11" fill="#1e1e1e" text-anchor="middle" class="excalidraw-text" opacity="1">PRODUCTION_SCRAP</text>
<path d="M 220 570 L 220 290 L 380 290" stroke="#e67700" fill="none" stroke-width="2" marker-end="url(#ah)" opacity="1"/>
<text x="180" y="331" font-size="11" fill="#e67700" text-anchor="middle" class="excalidraw-text" opacity="1">Újra fázis eleje</text>
<path d="M 810 400 L 810 580" stroke="#868e96" fill="none" stroke-width="2" marker-end="url(#ah)" opacity="1"/>
<path d="M 810 780 L 810 930" stroke="#2f9e44" fill="none" stroke-width="2" marker-end="url(#ah)" opacity="1"/>
<polygon points="810,940 890,990 810,1040 730,990" stroke="#e67700" fill="#fff3bf" stroke-width="2" opacity="1"/>
<text x="810" y="987" font-size="12" fill="#1e1e1e" text-anchor="middle" class="excalidraw-text" opacity="1">Van több</text>
<text x="810" y="1001.4" font-size="12" fill="#1e1e1e" text-anchor="middle" class="excalidraw-text" opacity="1">fázis?</text>
<path d="M 730 990 L 540 990 L 540 230 L 620 230" stroke="#1971c2" fill="none" stroke-width="2" marker-end="url(#ah)" opacity="1"/>
<text x="650" y="981" font-size="11" fill="#1971c2" text-anchor="middle" class="excalidraw-text" opacity="1">IGEN → Köv. fázis</text>
<path d="M 890 990 L 950 990" stroke="#2f9e44" fill="none" stroke-width="2" marker-end="url(#ah)" opacity="1"/>
<text x="900" y="982" font-size="12" fill="#2f9e44" text-anchor="start" class="excalidraw-text" opacity="1">NEM</text>
<ellipse cx="1000" cy="990" rx="40" ry="40" stroke="#2f9e44" fill="#d3f9d8" stroke-width="2" opacity="1"/>
<text x="1000" y="984" font-size="12" fill="#1e1e1e" text-anchor="middle" class="excalidraw-text" opacity="1">GYÁRTÁS</text>
<text x="1000" y="998.4" font-size="12" fill="#1e1e1e" text-anchor="middle" class="excalidraw-text" opacity="1">KÉSZ</text>
<path d="M 320 895 L 960 895 L 960 990" stroke="#e03131" fill="none" stroke-width="2" marker-end="url(#ah)" opacity="1"/>
<rect x="100" y="100" width="220" height="180" stroke="#868e96" fill="#f8f9fa" stroke-width="1" rx="0" opacity="1"/>
<text x="210" y="124" font-size="14" fill="#1e1e1e" text-anchor="middle" class="excalidraw-text" opacity="1">JELMAGYARÁZAT</text>
<rect x="120" y="145" width="25" height="18" stroke="#2f9e44" fill="#d3f9d8" stroke-width="1" rx="0" opacity="1"/>
<text x="155" y="156" font-size="11" fill="#1e1e1e" text-anchor="start" class="excalidraw-text" opacity="1">Sikeres / Jóváhagyott</text>
<rect x="120" y="170" width="25" height="18" stroke="#e67700" fill="#fff3bf" stroke-width="1" rx="0" opacity="1"/>
<text x="155" y="181" font-size="11" fill="#1e1e1e" text-anchor="start" class="excalidraw-text" opacity="1">Újramunkálás (rework)</text>
<rect x="120" y="195" width="25" height="18" stroke="#e03131" fill="#ffe3e3" stroke-width="1" rx="0" opacity="1"/>
<text x="155" y="206" font-size="11" fill="#1e1e1e" text-anchor="start" class="excalidraw-text" opacity="1">Elutasított / Selejt</text>
<rect x="120" y="220" width="25" height="18" stroke="#868e96" fill="#f1f3f5" stroke-width="1" rx="0" opacity="1"/>
<text x="155" y="231" font-size="11" fill="#1e1e1e" text-anchor="start" class="excalidraw-text" opacity="1">Kihagyott (optional)</text>
<text x="120" y="260" font-size="10" fill="#868e96" text-anchor="start" class="excalidraw-text" opacity="1">qa_required: true/false fázisonként</text>
</svg>