<svg xmlns="http://www.w3.org/2000/svg" viewBox="-20 -20 1000 1380" class="w-full h-auto">
<defs>
<style>.excalidraw-text { font-family: Segoe UI, Arial, sans-serif; }</style>
<marker id="ah" markerWidth="12" markerHeight="8" refX="10" refY="4" orient="auto" markerUnits="strokeWidth">
<polygon points="0 0, 12 4, 0 8" fill="#1e1e1e"/>
</marker>
<marker id="ah-blue" markerWidth="12" markerHeight="8" refX="10" refY="4" orient="auto" markerUnits="strokeWidth">
<polygon points="0 0, 12 4, 0 8" fill="#1976d2"/>
</marker>
<marker id="ah-green" markerWidth="12" markerHeight="8" refX="10" refY="4" orient="auto" markerUnits="strokeWidth">
<polygon points="0 0, 12 4, 0 8" fill="#388e3c"/>
</marker>
<marker id="ah-orange" markerWidth="12" markerHeight="8" refX="10" refY="4" orient="auto" markerUnits="strokeWidth">
<polygon points="0 0, 12 4, 0 8" fill="#f57c00"/>
</marker>
</defs>
<rect x="-20" y="-20" width="1000" height="1380" fill="#ffffff"/>
<ellipse cx="460" cy="50" rx="60" ry="30" stroke="#1976d2" fill="#e3f2fd" stroke-width="2" opacity="1"/>
<text x="460" y="55" font-size="20" fill="#1e1e1e" text-anchor="middle" class="excalidraw-text" opacity="1">START</text>
<path d="M 460 90 L 460 130" stroke="#1976d2" fill="none" stroke-width="2" marker-end="url(#ah-blue)" opacity="1"/>
<rect x="340" y="140" width="240" height="80" stroke="#1976d2" fill="#e3f2fd" stroke-width="2" rx="8" opacity="1"/>
<text x="460" y="173" font-size="18" fill="#1e1e1e" text-anchor="middle" class="excalidraw-text" opacity="1">Bérlés visszahozás</text>
<text x="460" y="194.6" font-size="18" fill="#1e1e1e" text-anchor="middle" class="excalidraw-text" opacity="1">inicializálás</text>
<path d="M 460 230 L 460 270" stroke="#1976d2" fill="none" stroke-width="2" marker-end="url(#ah-blue)" opacity="1"/>
<rect x="320" y="280" width="280" height="80" stroke="#1976d2" fill="#e3f2fd" stroke-width="2" rx="8" opacity="1"/>
<text x="460" y="313" font-size="18" fill="#1e1e1e" text-anchor="middle" class="excalidraw-text" opacity="1">Díjszámítási szabály</text>
<text x="460" y="334.6" font-size="18" fill="#1e1e1e" text-anchor="middle" class="excalidraw-text" opacity="1">betöltése</text>
<path d="M 460 370 L 460 410" stroke="#1976d2" fill="none" stroke-width="2" marker-end="url(#ah-blue)" opacity="1"/>
<rect x="320" y="420" width="280" height="80" stroke="#388e3c" fill="#e8f5e9" stroke-width="2" rx="8" opacity="1"/>
<text x="460" y="453" font-size="18" fill="#1e1e1e" text-anchor="middle" class="excalidraw-text" opacity="1">UNNEPNAP_NAPTAR</text>
<text x="460" y="474.6" font-size="18" fill="#1e1e1e" text-anchor="middle" class="excalidraw-text" opacity="1">betöltése időszakra</text>
<path d="M 460 510 L 460 550" stroke="#1976d2" fill="none" stroke-width="2" marker-end="url(#ah-blue)" opacity="1"/>
<rect x="320" y="560" width="280" height="100" stroke="#7b1fa2" fill="#f3e5f5" stroke-width="3" rx="8" opacity="1"/>
<text x="460" y="591" font-size="16" fill="#1e1e1e" text-anchor="middle" class="excalidraw-text" opacity="1">FOR EACH nap</text>
<text x="460" y="610.2" font-size="16" fill="#1e1e1e" text-anchor="middle" class="excalidraw-text" opacity="1">(kiadás → visszahozás)</text>
<text x="460" y="629.4" font-size="16" fill="#1e1e1e" text-anchor="middle" class="excalidraw-text" opacity="1">fizetendoNapok = 0</text>
<path d="M 460 670 L 460 710" stroke="#1976d2" fill="none" stroke-width="2" marker-end="url(#ah-blue)" opacity="1"/>
<polygon points="460,720 560,780 460,840 360,780" stroke="#f57c00" fill="#fff3e0" stroke-width="2" opacity="1"/>
<text x="460" y="773" font-size="18" fill="#1e1e1e" text-anchor="middle" class="excalidraw-text" opacity="1">Ünnepnap</text>
<text x="460" y="794.6" font-size="18" fill="#1e1e1e" text-anchor="middle" class="excalidraw-text" opacity="1">(NAPTAR)?</text>
<path d="M 200 780 L 50 780" stroke="#c62828" fill="none" stroke-width="2" marker-end="url(#ah)" opacity="1"/>
<text x="280" y="776" font-size="16" fill="#c62828" text-anchor="middle" class="excalidraw-text" opacity="1">Igen</text>
<rect x="20" y="740" width="170" height="80" stroke="#c62828" fill="#ffcdd2" stroke-width="2" rx="8" opacity="1"/>
<text x="105" y="771" font-size="16" fill="#1e1e1e" text-anchor="middle" class="excalidraw-text" opacity="1">Szorzó =</text>
<text x="105" y="790.2" font-size="16" fill="#1e1e1e" text-anchor="middle" class="excalidraw-text" opacity="1">NAPTAR.szorzo</text>
<path d="M 460 850 L 460 900" stroke="#1976d2" fill="none" stroke-width="2" marker-end="url(#ah-blue)" opacity="1"/>
<text x="495" y="881" font-size="16" fill="#1976d2" text-anchor="middle" class="excalidraw-text" opacity="1">Nem</text>
<polygon points="460,910 560,970 460,1030 360,970" stroke="#f57c00" fill="#fff3e0" stroke-width="2" opacity="1"/>
<text x="460" y="963" font-size="18" fill="#1e1e1e" text-anchor="middle" class="excalidraw-text" opacity="1">Hétvége</text>
<text x="460" y="984.6" font-size="18" fill="#1e1e1e" text-anchor="middle" class="excalidraw-text" opacity="1">(Szo/Vas)?</text>
<path d="M 700 970 L 830 970" stroke="#f57f17" fill="none" stroke-width="2" marker-end="url(#ah)" opacity="1"/>
<text x="765" y="966" font-size="16" fill="#f57f17" text-anchor="middle" class="excalidraw-text" opacity="1">Igen</text>
<rect x="740" y="930" width="180" height="80" stroke="#f57f17" fill="#fff9c4" stroke-width="2" rx="8" opacity="1"/>
<text x="830" y="961" font-size="16" fill="#1e1e1e" text-anchor="middle" class="excalidraw-text" opacity="1">Szorzó = 0.75</text>
<text x="830" y="980.2" font-size="16" fill="#1e1e1e" text-anchor="middle" class="excalidraw-text" opacity="1">(Szo+Vas=1.5)</text>
<path d="M 460 1040 L 460 1090" stroke="#1976d2" fill="none" stroke-width="2" marker-end="url(#ah-blue)" opacity="1"/>
<text x="495" y="1071" font-size="16" fill="#1976d2" text-anchor="middle" class="excalidraw-text" opacity="1">Nem</text>
<rect x="360" y="1100" width="200" height="80" stroke="#2e7d32" fill="#c8e6c9" stroke-width="2" rx="8" opacity="1"/>
<text x="460" y="1131" font-size="16" fill="#1e1e1e" text-anchor="middle" class="excalidraw-text" opacity="1">Szorzó = 1.0</text>
<text x="460" y="1150.2" font-size="16" fill="#1e1e1e" text-anchor="middle" class="excalidraw-text" opacity="1">(Munkanap)</text>
<path d="M 105 830 L 105 1030 L 360 1030" stroke="#1976d2" fill="none" stroke-width="2" marker-end="url(#ah-blue)" opacity="1"/>
<path d="M 830 1020 L 830 1130 L 360 1130" stroke="#1976d2" fill="none" stroke-width="2" marker-end="url(#ah-blue)" opacity="1"/>
<path d="M 460 1190 L 460 1230" stroke="#1976d2" fill="none" stroke-width="2" marker-end="url(#ah-blue)" opacity="1"/>
<rect x="320" y="1240" width="280" height="80" stroke="#1976d2" fill="#e3f2fd" stroke-width="2" rx="8" opacity="1"/>
<text x="460" y="1273" font-size="18" fill="#1e1e1e" text-anchor="middle" class="excalidraw-text" opacity="1">fizetendoNapok</text>
<text x="460" y="1294.6" font-size="18" fill="#1e1e1e" text-anchor="middle" class="excalidraw-text" opacity="1">+= szorzo</text>
<path d="M 320 1280 L 100 1280 L 100 610 L 460 610" stroke="#7b1fa2" fill="none" stroke-width="2" marker-end="url(#ah)" opacity="1"/>
<text x="120" y="1274" font-size="14" fill="#7b1fa2" text-anchor="middle" class="excalidraw-text" opacity="1">Következő nap</text>
<path d="M 610 610 L 690 610" stroke="#7b1fa2" fill="none" stroke-width="2" marker-end="url(#ah)" opacity="1"/>
<text x="655" y="604" font-size="14" fill="#7b1fa2" text-anchor="middle" class="excalidraw-text" opacity="1">Kész</text>
<rect x="700" y="570" width="240" height="80" stroke="#1976d2" fill="#e3f2fd" stroke-width="2" rx="8" opacity="1"/>
<text x="820" y="601" font-size="16" fill="#1e1e1e" text-anchor="middle" class="excalidraw-text" opacity="1">Díj kalkuláció:</text>
<text x="820" y="620.2" font-size="16" fill="#1e1e1e" text-anchor="middle" class="excalidraw-text" opacity="1">napok × napi_dij</text>
<path d="M 820 660 L 820 710" stroke="#1976d2" fill="none" stroke-width="2" marker-end="url(#ah-blue)" opacity="1"/>
<rect x="700" y="720" width="240" height="100" stroke="#388e3c" fill="#e8f5e9" stroke-width="2" rx="8" opacity="1"/>
<text x="820" y="751" font-size="16" fill="#1e1e1e" text-anchor="middle" class="excalidraw-text" opacity="1">UI megjelenítés:</text>
<text x="820" y="770.2" font-size="16" fill="#1e1e1e" text-anchor="middle" class="excalidraw-text" opacity="1">Napok részletezve</text>
<text x="820" y="789.4" font-size="16" fill="#1e1e1e" text-anchor="middle" class="excalidraw-text" opacity="1">+ Megtakarítás</text>
<path d="M 820 830 L 820 880" stroke="#1976d2" fill="none" stroke-width="2" marker-end="url(#ah-blue)" opacity="1"/>
<ellipse cx="820" cy="920" rx="60" ry="30" stroke="#1976d2" fill="#e3f2fd" stroke-width="2" opacity="1"/>
<text x="820" y="925" font-size="20" fill="#1e1e1e" text-anchor="middle" class="excalidraw-text" opacity="1">END</text>
</svg>