<svg xmlns="http://www.w3.org/2000/svg" viewBox="40 0 1640 1080" class="w-full h-auto">
<defs>
<style>.excalidraw-text { font-family: Segoe UI, Arial, sans-serif; }</style>
<marker id="ah-blue" markerWidth="12" markerHeight="8" refX="10" refY="4" orient="auto" markerUnits="strokeWidth">
<polygon points="0 0, 12 4, 0 8" fill="#1976d2"/>
</marker>
<marker id="ah-orange" markerWidth="12" markerHeight="8" refX="10" refY="4" orient="auto" markerUnits="strokeWidth">
<polygon points="0 0, 12 4, 0 8" fill="#f57c00"/>
</marker>
<marker id="ah-green" markerWidth="12" markerHeight="8" refX="10" refY="4" orient="auto" markerUnits="strokeWidth">
<polygon points="0 0, 12 4, 0 8" fill="#388e3c"/>
</marker>
</defs>
<rect x="40" y="0" width="1640" height="1080" fill="#ffffff"/>
<rect x="200" y="20" width="1400" height="80" stroke="#1976d2" fill="#1976d2" stroke-width="2" rx="8" opacity="1"/>
<ellipse cx="900.0" cy="190.0" rx="100.0" ry="30.0" stroke="#1976d2" fill="#e3f2fd" stroke-width="2" opacity="1"/>
<rect x="740" y="260" width="320" height="60" stroke="#1976d2" fill="#e3f2fd" stroke-width="2" rx="8" opacity="1"/>
<polygon points="900.0,360 1120,410.0 900.0,460 680,410.0" stroke="#f57c00" fill="#fff3e0" stroke-width="2" opacity="1"/>
<rect x="60" y="500" width="180" height="60" stroke="#1976d2" fill="#e3f2fd" stroke-width="2" rx="8" opacity="1"/>
<rect x="60" y="580" width="180" height="60" stroke="#1976d2" fill="#e3f2fd" stroke-width="2" rx="8" opacity="1"/>
<rect x="60" y="660" width="180" height="60" stroke="#1976d2" fill="#e3f2fd" stroke-width="2" rx="8" opacity="1"/>
<rect x="60" y="740" width="180" height="60" stroke="#1976d2" fill="#e3f2fd" stroke-width="2" rx="8" opacity="1"/>
<rect x="260" y="500" width="180" height="60" stroke="#1976d2" fill="#e3f2fd" stroke-width="2" rx="8" opacity="1"/>
<rect x="260" y="580" width="180" height="60" stroke="#1976d2" fill="#e3f2fd" stroke-width="2" rx="8" opacity="1"/>
<rect x="260" y="660" width="180" height="60" stroke="#1976d2" fill="#e3f2fd" stroke-width="2" rx="8" opacity="1"/>
<rect x="260" y="740" width="180" height="60" stroke="#1976d2" fill="#e3f2fd" stroke-width="2" rx="8" opacity="1"/>
<rect x="460" y="500" width="180" height="60" stroke="#1976d2" fill="#e3f2fd" stroke-width="2" rx="8" opacity="1"/>
<rect x="460" y="580" width="180" height="60" stroke="#1976d2" fill="#e3f2fd" stroke-width="2" rx="8" opacity="1"/>
<polygon points="550.0,660 610,700.0 550.0,740 490,700.0" stroke="#f57c00" fill="#fff3e0" stroke-width="2" opacity="1"/>
<rect x="460" y="760" width="180" height="60" stroke="#1976d2" fill="#e3f2fd" stroke-width="2" rx="8" opacity="1"/>
<rect x="660" y="500" width="180" height="60" stroke="#1976d2" fill="#e3f2fd" stroke-width="2" rx="8" opacity="1"/>
<rect x="660" y="580" width="180" height="60" stroke="#1976d2" fill="#e3f2fd" stroke-width="2" rx="8" opacity="1"/>
<rect x="660" y="660" width="180" height="60" stroke="#1976d2" fill="#e3f2fd" stroke-width="2" rx="8" opacity="1"/>
<rect x="660" y="740" width="180" height="60" stroke="#1976d2" fill="#e3f2fd" stroke-width="2" rx="8" opacity="1"/>
<rect x="860" y="500" width="180" height="60" stroke="#1976d2" fill="#e3f2fd" stroke-width="2" rx="8" opacity="1"/>
<rect x="860" y="580" width="180" height="60" stroke="#1976d2" fill="#e3f2fd" stroke-width="2" rx="8" opacity="1"/>
<rect x="860" y="660" width="180" height="60" stroke="#1976d2" fill="#e3f2fd" stroke-width="2" rx="8" opacity="1"/>
<rect x="860" y="740" width="180" height="60" stroke="#1976d2" fill="#e3f2fd" stroke-width="2" rx="8" opacity="1"/>
<rect x="1060" y="500" width="180" height="60" stroke="#1976d2" fill="#e3f2fd" stroke-width="2" rx="8" opacity="1"/>
<rect x="1060" y="580" width="180" height="60" stroke="#1976d2" fill="#e3f2fd" stroke-width="2" rx="8" opacity="1"/>
<rect x="1060" y="660" width="180" height="60" stroke="#1976d2" fill="#e3f2fd" stroke-width="2" rx="8" opacity="1"/>
<rect x="1060" y="740" width="180" height="60" stroke="#1976d2" fill="#e3f2fd" stroke-width="2" rx="8" opacity="1"/>
<rect x="1260" y="500" width="180" height="60" stroke="#1976d2" fill="#e3f2fd" stroke-width="2" rx="8" opacity="1"/>
<rect x="1260" y="580" width="180" height="60" stroke="#1976d2" fill="#e3f2fd" stroke-width="2" rx="8" opacity="1"/>
<rect x="1260" y="660" width="180" height="60" stroke="#1976d2" fill="#e3f2fd" stroke-width="2" rx="8" opacity="1"/>
<rect x="1260" y="740" width="180" height="60" stroke="#1976d2" fill="#e3f2fd" stroke-width="2" rx="8" opacity="1"/>
<rect x="1460" y="500" width="200" height="60" stroke="#1976d2" fill="#e3f2fd" stroke-width="2" rx="8" opacity="1"/>
<rect x="1460" y="580" width="200" height="60" stroke="#1976d2" fill="#e3f2fd" stroke-width="2" rx="8" opacity="1"/>
<rect x="1460" y="660" width="200" height="60" stroke="#1976d2" fill="#e3f2fd" stroke-width="2" rx="8" opacity="1"/>
<rect x="1460" y="740" width="200" height="60" stroke="#1976d2" fill="#e3f2fd" stroke-width="2" rx="8" opacity="1"/>
<rect x="200" y="880" width="680" height="180" stroke="#388e3c" fill="#e8f5e9" stroke-width="3" rx="8" opacity="1"/>
<rect x="920" y="880" width="680" height="180" stroke="#388e3c" fill="#e8f5e9" stroke-width="3" rx="8" opacity="1"/>
<path d="M 900 220 L 900 260" stroke="#1976d2" fill="none" stroke-width="2" marker-end="url(#ah-blue)" opacity="1"/>
<path d="M 900 320 L 900 360" stroke="#1976d2" fill="none" stroke-width="2" marker-end="url(#ah-blue)" opacity="1"/>
<path d="M 780 460 L 200 460 L 200 500" stroke="#1976d2" fill="none" stroke-width="2" marker-end="url(#ah-blue)" opacity="1"/>
<path d="M 150 560 L 150 580" stroke="#1976d2" fill="none" stroke-width="2" marker-end="url(#ah-blue)" opacity="1"/>
<path d="M 150 640 L 150 660" stroke="#1976d2" fill="none" stroke-width="2" marker-end="url(#ah-blue)" opacity="1"/>
<path d="M 150 720 L 150 740" stroke="#1976d2" fill="none" stroke-width="2" marker-end="url(#ah-blue)" opacity="1"/>
<path d="M 820 460 L 350 460 L 350 500" stroke="#1976d2" fill="none" stroke-width="2" marker-end="url(#ah-blue)" opacity="1"/>
<path d="M 350 560 L 350 580" stroke="#1976d2" fill="none" stroke-width="2" marker-end="url(#ah-blue)" opacity="1"/>
<path d="M 350 640 L 350 660" stroke="#1976d2" fill="none" stroke-width="2" marker-end="url(#ah-blue)" opacity="1"/>
<path d="M 350 720 L 350 740" stroke="#1976d2" fill="none" stroke-width="2" marker-end="url(#ah-blue)" opacity="1"/>
<path d="M 860 460 L 550 460 L 550 500" stroke="#1976d2" fill="none" stroke-width="2" marker-end="url(#ah-blue)" opacity="1"/>
<path d="M 550 560 L 550 580" stroke="#1976d2" fill="none" stroke-width="2" marker-end="url(#ah-blue)" opacity="1"/>
<path d="M 550 640 L 550 660" stroke="#1976d2" fill="none" stroke-width="2" marker-end="url(#ah-blue)" opacity="1"/>
<path d="M 550 740 L 550 760" stroke="#1976d2" fill="none" stroke-width="2" marker-end="url(#ah-blue)" opacity="1"/>
<path d="M 900 460 L 750 460 L 750 500" stroke="#1976d2" fill="none" stroke-width="2" marker-end="url(#ah-blue)" opacity="1"/>
<path d="M 750 560 L 750 580" stroke="#1976d2" fill="none" stroke-width="2" marker-end="url(#ah-blue)" opacity="1"/>
<path d="M 750 640 L 750 660" stroke="#1976d2" fill="none" stroke-width="2" marker-end="url(#ah-blue)" opacity="1"/>
<path d="M 750 720 L 750 740" stroke="#1976d2" fill="none" stroke-width="2" marker-end="url(#ah-blue)" opacity="1"/>
<path d="M 900 460 L 950 460 L 950 500" stroke="#1976d2" fill="none" stroke-width="2" marker-end="url(#ah-blue)" opacity="1"/>
<path d="M 950 560 L 950 580" stroke="#1976d2" fill="none" stroke-width="2" marker-end="url(#ah-blue)" opacity="1"/>
<path d="M 950 640 L 950 660" stroke="#1976d2" fill="none" stroke-width="2" marker-end="url(#ah-blue)" opacity="1"/>
<path d="M 950 720 L 950 740" stroke="#1976d2" fill="none" stroke-width="2" marker-end="url(#ah-blue)" opacity="1"/>
<path d="M 940 460 L 1150 460 L 1150 500" stroke="#1976d2" fill="none" stroke-width="2" marker-end="url(#ah-blue)" opacity="1"/>
<path d="M 1150 560 L 1150 580" stroke="#1976d2" fill="none" stroke-width="2" marker-end="url(#ah-blue)" opacity="1"/>
<path d="M 1150 640 L 1150 660" stroke="#1976d2" fill="none" stroke-width="2" marker-end="url(#ah-blue)" opacity="1"/>
<path d="M 1150 720 L 1150 740" stroke="#1976d2" fill="none" stroke-width="2" marker-end="url(#ah-blue)" opacity="1"/>
<path d="M 980 460 L 1350 460 L 1350 500" stroke="#1976d2" fill="none" stroke-width="2" marker-end="url(#ah-blue)" opacity="1"/>
<path d="M 1350 560 L 1350 580" stroke="#1976d2" fill="none" stroke-width="2" marker-end="url(#ah-blue)" opacity="1"/>
<path d="M 1350 640 L 1350 660" stroke="#1976d2" fill="none" stroke-width="2" marker-end="url(#ah-blue)" opacity="1"/>
<path d="M 1350 720 L 1350 740" stroke="#1976d2" fill="none" stroke-width="2" marker-end="url(#ah-blue)" opacity="1"/>
<path d="M 1020 460 L 1560 460 L 1560 500" stroke="#1976d2" fill="none" stroke-width="2" marker-end="url(#ah-blue)" opacity="1"/>
<path d="M 1560 560 L 1560 580" stroke="#1976d2" fill="none" stroke-width="2" marker-end="url(#ah-blue)" opacity="1"/>
<path d="M 1560 640 L 1560 660" stroke="#1976d2" fill="none" stroke-width="2" marker-end="url(#ah-blue)" opacity="1"/>
<path d="M 1560 720 L 1560 740" stroke="#1976d2" fill="none" stroke-width="2" marker-end="url(#ah-blue)" opacity="1"/>
<text x="900.0" y="68.0" font-size="28" fill="#ffffff" text-anchor="middle" class="excalidraw-text" opacity="1">KGC ERP v3.0 - MASTER FLOW</text>
<text x="900.0" y="126.0" font-size="16" fill="#616161" text-anchor="middle" class="excalidraw-text" opacity="1">Egyszerűsített | Ügyfél-központú | 8 üzleti ág</text>
<text x="900.0" y="192.0" font-size="14" fill="#1e1e1e" text-anchor="middle" class="excalidraw-text" opacity="1">ÜGYFÉL BELÉP</text>
<text x="900.0" y="292.0" font-size="14" fill="#1e1e1e" text-anchor="middle" class="excalidraw-text" opacity="1">Partner azonosítás / felvétel</text>
<text x="900.0" y="412.0" font-size="14" fill="#1e1e1e" text-anchor="middle" class="excalidraw-text" opacity="1">Milyen szolgáltatásra van szükség?</text>
<text x="150.0" y="532.0" font-size="14" fill="#1e1e1e" text-anchor="middle" class="excalidraw-text" opacity="1">Bérgép választás</text>
<text x="150.0" y="612.0" font-size="14" fill="#1e1e1e" text-anchor="middle" class="excalidraw-text" opacity="1">R.1/R.2 Javaslat</text>
<text x="150.0" y="692.0" font-size="14" fill="#1e1e1e" text-anchor="middle" class="excalidraw-text" opacity="1">Kaució (MyPos)</text>
<text x="150.0" y="772.0" font-size="14" fill="#1e1e1e" text-anchor="middle" class="excalidraw-text" opacity="1">Készlet kiadás</text>
<text x="350.0" y="532.0" font-size="14" fill="#1e1e1e" text-anchor="middle" class="excalidraw-text" opacity="1">Cikk választás</text>
<text x="350.0" y="612.0" font-size="14" fill="#1e1e1e" text-anchor="middle" class="excalidraw-text" opacity="1">Készlet ellenőrzés</text>
<text x="350.0" y="692.0" font-size="14" fill="#1e1e1e" text-anchor="middle" class="excalidraw-text" opacity="1">Számla (NAV)</text>
<text x="350.0" y="772.0" font-size="14" fill="#1e1e1e" text-anchor="middle" class="excalidraw-text" opacity="1">Fizetés</text>
<text x="550.0" y="532.0" font-size="14" fill="#1e1e1e" text-anchor="middle" class="excalidraw-text" opacity="1">Munkalap nyitás</text>
<text x="550.0" y="612.0" font-size="14" fill="#1e1e1e" text-anchor="middle" class="excalidraw-text" opacity="1">Diagnosztika</text>
<text x="550.0" y="702.0" font-size="14" fill="#1e1e1e" text-anchor="middle" class="excalidraw-text" opacity="1">Garanciális?</text>
<text x="550.0" y="792.0" font-size="14" fill="#1e1e1e" text-anchor="middle" class="excalidraw-text" opacity="1">Javítás + Fizetés</text>
<text x="750.0" y="532.0" font-size="14" fill="#1e1e1e" text-anchor="middle" class="excalidraw-text" opacity="1">Bérlés lezárás</text>
<text x="750.0" y="612.0" font-size="14" fill="#1e1e1e" text-anchor="middle" class="excalidraw-text" opacity="1">Kár ellenőrzés</text>
<text x="750.0" y="692.0" font-size="14" fill="#1e1e1e" text-anchor="middle" class="excalidraw-text" opacity="1">MyPos refund</text>
<text x="750.0" y="772.0" font-size="14" fill="#1e1e1e" text-anchor="middle" class="excalidraw-text" opacity="1">Készlet vissza</text>
<text x="950.0" y="532.0" font-size="14" fill="#1e1e1e" text-anchor="middle" class="excalidraw-text" opacity="1">Igény felmérés</text>
<text x="950.0" y="612.0" font-size="14" fill="#1e1e1e" text-anchor="middle" class="excalidraw-text" opacity="1">Kalkuláció</text>
<text x="950.0" y="692.0" font-size="14" fill="#1e1e1e" text-anchor="middle" class="excalidraw-text" opacity="1">Email küldés</text>
<text x="950.0" y="772.0" font-size="14" fill="#1e1e1e" text-anchor="middle" class="excalidraw-text" opacity="1">Jóváhagyás</text>
<text x="1150.0" y="532.0" font-size="14" fill="#1e1e1e" text-anchor="middle" class="excalidraw-text" opacity="1">Fizikai leltár</text>
<text x="1150.0" y="612.0" font-size="14" fill="#1e1e1e" text-anchor="middle" class="excalidraw-text" opacity="1">Eltérés azonosítás</text>
<text x="1150.0" y="692.0" font-size="14" fill="#1e1e1e" text-anchor="middle" class="excalidraw-text" opacity="1">Készlet korrekció</text>
<text x="1150.0" y="772.0" font-size="14" fill="#1e1e1e" text-anchor="middle" class="excalidraw-text" opacity="1">Audit log</text>
<text x="1350.0" y="532.0" font-size="14" fill="#1e1e1e" text-anchor="middle" class="excalidraw-text" opacity="1">Forrás hely</text>
<text x="1350.0" y="612.0" font-size="14" fill="#1e1e1e" text-anchor="middle" class="excalidraw-text" opacity="1">Cél hely</text>
<text x="1350.0" y="692.0" font-size="14" fill="#1e1e1e" text-anchor="middle" class="excalidraw-text" opacity="1">Készlet mozgás</text>
<text x="1350.0" y="772.0" font-size="14" fill="#1e1e1e" text-anchor="middle" class="excalidraw-text" opacity="1">Multi-loc sync</text>
<text x="1560.0" y="532.0" font-size="14" fill="#1e1e1e" text-anchor="middle" class="excalidraw-text" opacity="1">Beszállítói számla</text>
<text x="1560.0" y="612.0" font-size="14" fill="#1e1e1e" text-anchor="middle" class="excalidraw-text" opacity="1">Termék érkezés</text>
<text x="1560.0" y="692.0" font-size="14" fill="#1e1e1e" text-anchor="middle" class="excalidraw-text" opacity="1">Bevételezés rögzítés</text>
<text x="1560.0" y="772.0" font-size="14" fill="#1e1e1e" text-anchor="middle" class="excalidraw-text" opacity="1">Készlet növelés</text>
<text x="220" y="914.0" font-size="14" fill="#1e1e1e" text-anchor="start" class="excalidraw-text" opacity="1">P5 AUTOMATIZÁLT ELSZÁMOLÁS</text>
<text x="220" y="930.8" font-size="14" fill="#1e1e1e" text-anchor="start" class="excalidraw-text" opacity="1"></text>
<text x="220" y="947.6" font-size="14" fill="#1e1e1e" text-anchor="start" class="excalidraw-text" opacity="1">• Bank CSV import</text>
<text x="220" y="964.4" font-size="14" fill="#1e1e1e" text-anchor="start" class="excalidraw-text" opacity="1">• MyPos API</text>
<text x="220" y="981.2" font-size="14" fill="#1e1e1e" text-anchor="start" class="excalidraw-text" opacity="1">• Futár API (COD)</text>
<text x="220" y="998.0" font-size="14" fill="#1e1e1e" text-anchor="start" class="excalidraw-text" opacity="1">• Részletfizetés API</text>
<text x="220" y="1014.8" font-size="14" fill="#1e1e1e" text-anchor="start" class="excalidraw-text" opacity="1">→ PONTOZÁS algoritmus</text>
<text x="220" y="1031.6" font-size="14" fill="#1e1e1e" text-anchor="start" class="excalidraw-text" opacity="1">→ Auto / Javaslat / Kézi párosítás</text>
<text x="940" y="914.0" font-size="14" fill="#1e1e1e" text-anchor="start" class="excalidraw-text" opacity="1">N.3 ÉRTESÍTÉSEK</text>
<text x="940" y="930.8" font-size="14" fill="#1e1e1e" text-anchor="start" class="excalidraw-text" opacity="1"></text>
<text x="940" y="947.6" font-size="14" fill="#1e1e1e" text-anchor="start" class="excalidraw-text" opacity="1">• SMS Gateway</text>
<text x="940" y="964.4" font-size="14" fill="#1e1e1e" text-anchor="start" class="excalidraw-text" opacity="1">• Email Gateway</text>
<text x="940" y="981.2" font-size="14" fill="#1e1e1e" text-anchor="start" class="excalidraw-text" opacity="1">• PWA Push Notification</text>
<text x="940" y="998.0" font-size="14" fill="#1e1e1e" text-anchor="start" class="excalidraw-text" opacity="1">→ Firebase FCM</text>
<text x="940" y="1014.8" font-size="14" fill="#1e1e1e" text-anchor="start" class="excalidraw-text" opacity="1">→ Service Worker</text>
<text x="940" y="1031.6" font-size="14" fill="#1e1e1e" text-anchor="start" class="excalidraw-text" opacity="1">→ ÜGYFÉL ÉRTESÍTVE</text>
</svg>