<svg xmlns="http://www.w3.org/2000/svg" viewBox="20 -20 1320 1160" class="w-full h-auto">
<defs>
<style>.excalidraw-text { font-family: Segoe UI, Arial, sans-serif; }</style>
<marker id="ah" markerWidth="10" markerHeight="10" refX="9" refY="3" orient="auto">
<polygon points="0 0, 10 3, 0 6" fill="#1e1e1e"/>
</marker>
</defs>
<rect x="20" y="-20" width="1320" height="1160" fill="#ffffff"/>
<text x="700" y="40" font-size="20" fill="#1e1e1e" text-anchor="middle" class="excalidraw-text" opacity="1">KGC ERP - Adatfolyam Diagram (DFD)</text>
<text x="700" y="64" font-size="20" fill="#1e1e1e" text-anchor="middle" class="excalidraw-text" opacity="1">Ügyfél Felvétel és Bérlés Folyamat</text>
<rect x="60" y="200" width="160" height="80" stroke="#1976d2" fill="#e3f2fd" stroke-width="3" rx="0" opacity="1"/>
<text x="140" y="234" font-size="14" fill="#1e1e1e" text-anchor="middle" class="excalidraw-text" opacity="1">ÜGYFÉL</text>
<text x="140" y="250.8" font-size="14" fill="#1e1e1e" text-anchor="middle" class="excalidraw-text" opacity="1">(Külső entitás)</text>
<rect x="60" y="500" width="160" height="80" stroke="#7b1fa2" fill="#f3e5f5" stroke-width="3" rx="0" opacity="1"/>
<text x="140" y="534" font-size="14" fill="#1e1e1e" text-anchor="middle" class="excalidraw-text" opacity="1">NAV API</text>
<text x="140" y="550.8" font-size="14" fill="#1e1e1e" text-anchor="middle" class="excalidraw-text" opacity="1">(Cég adatok)</text>
<rect x="1140" y="350" width="160" height="80" stroke="#616161" fill="#f5f5f5" stroke-width="3" rx="0" opacity="1"/>
<text x="1220" y="383" font-size="13" fill="#1e1e1e" text-anchor="middle" class="excalidraw-text" opacity="1">NYOMTATÓ</text>
<text x="1220" y="398.6" font-size="13" fill="#1e1e1e" text-anchor="middle" class="excalidraw-text" opacity="1">(Szerződés, Számla)</text>
<ellipse cx="430" cy="230" rx="90" ry="50" stroke="#f57c00" fill="#fff3e0" stroke-width="2" opacity="1"/>
<text x="430" y="214" font-size="14" fill="#1e1e1e" text-anchor="middle" class="excalidraw-text" opacity="1">1.0</text>
<text x="430" y="230.8" font-size="14" fill="#1e1e1e" text-anchor="middle" class="excalidraw-text" opacity="1">Partner</text>
<text x="430" y="247.6" font-size="14" fill="#1e1e1e" text-anchor="middle" class="excalidraw-text" opacity="1">Felvétel</text>
<ellipse cx="430" cy="530" rx="90" ry="50" stroke="#7b1fa2" fill="#f3e5f5" stroke-width="2" opacity="1"/>
<text x="430" y="514" font-size="14" fill="#1e1e1e" text-anchor="middle" class="excalidraw-text" opacity="1">1.1</text>
<text x="430" y="530.8" font-size="14" fill="#1e1e1e" text-anchor="middle" class="excalidraw-text" opacity="1">Cég</text>
<text x="430" y="547.6" font-size="14" fill="#1e1e1e" text-anchor="middle" class="excalidraw-text" opacity="1">Felvétel</text>
<ellipse cx="690" cy="370" rx="90" ry="50" stroke="#388e3c" fill="#e8f5e9" stroke-width="2" opacity="1"/>
<text x="690" y="354" font-size="14" fill="#1e1e1e" text-anchor="middle" class="excalidraw-text" opacity="1">2.0</text>
<text x="690" y="370.8" font-size="14" fill="#1e1e1e" text-anchor="middle" class="excalidraw-text" opacity="1">Bérlés</text>
<text x="690" y="387.6" font-size="14" fill="#1e1e1e" text-anchor="middle" class="excalidraw-text" opacity="1">Kezelés</text>
<ellipse cx="970" cy="370" rx="90" ry="50" stroke="#1976d2" fill="#e3f2fd" stroke-width="2" opacity="1"/>
<text x="970" y="354" font-size="14" fill="#1e1e1e" text-anchor="middle" class="excalidraw-text" opacity="1">3.0</text>
<text x="970" y="370.8" font-size="14" fill="#1e1e1e" text-anchor="middle" class="excalidraw-text" opacity="1">Számlázás</text>
<ellipse cx="690" cy="650" rx="90" ry="50" stroke="#d32f2f" fill="#ffebee" stroke-width="2" opacity="1"/>
<text x="690" y="634" font-size="14" fill="#1e1e1e" text-anchor="middle" class="excalidraw-text" opacity="1">4.0</text>
<text x="690" y="650.8" font-size="14" fill="#1e1e1e" text-anchor="middle" class="excalidraw-text" opacity="1">Gép</text>
<text x="690" y="667.6" font-size="14" fill="#1e1e1e" text-anchor="middle" class="excalidraw-text" opacity="1">Visszavétel</text>
<rect x="340" y="80" width="180" height="50" stroke="#1976d2" fill="#bbdefb" stroke-width="2" rx="0" opacity="1"/>
<path d="M 340 80 L 520 80" stroke="#1976d2" fill="none" stroke-width="2" opacity="1"/>
<path d="M 340 130 L 520 130" stroke="#1976d2" fill="none" stroke-width="2" opacity="1"/>
<text x="430" y="106" font-size="14" fill="#1e1e1e" text-anchor="middle" class="excalidraw-text" opacity="1">D1: Partner adatok</text>
<rect x="340" y="620" width="180" height="50" stroke="#7b1fa2" fill="#e1bee7" stroke-width="2" rx="0" opacity="1"/>
<path d="M 340 620 L 520 620" stroke="#7b1fa2" fill="none" stroke-width="2" opacity="1"/>
<path d="M 340 670 L 520 670" stroke="#7b1fa2" fill="none" stroke-width="2" opacity="1"/>
<text x="430" y="646" font-size="14" fill="#1e1e1e" text-anchor="middle" class="excalidraw-text" opacity="1">D2: Cég adatok</text>
<rect x="600" y="480" width="180" height="50" stroke="#388e3c" fill="#c8e6c9" stroke-width="2" rx="0" opacity="1"/>
<path d="M 600 480 L 780 480" stroke="#388e3c" fill="none" stroke-width="2" opacity="1"/>
<path d="M 600 530 L 780 530" stroke="#388e3c" fill="none" stroke-width="2" opacity="1"/>
<text x="690" y="506" font-size="14" fill="#1e1e1e" text-anchor="middle" class="excalidraw-text" opacity="1">D3: Bérlés adatok</text>
<rect x="880" y="180" width="180" height="50" stroke="#616161" fill="#e0e0e0" stroke-width="2" rx="0" opacity="1"/>
<path d="M 880 180 L 1060 180" stroke="#616161" fill="none" stroke-width="2" opacity="1"/>
<path d="M 880 230 L 1060 230" stroke="#616161" fill="none" stroke-width="2" opacity="1"/>
<text x="970" y="206" font-size="14" fill="#1e1e1e" text-anchor="middle" class="excalidraw-text" opacity="1">D4: Bérgép készlet</text>
<rect x="880" y="480" width="180" height="50" stroke="#1976d2" fill="#bbdefb" stroke-width="2" rx="0" opacity="1"/>
<path d="M 880 480 L 1060 480" stroke="#1976d2" fill="none" stroke-width="2" opacity="1"/>
<path d="M 880 530 L 1060 530" stroke="#1976d2" fill="none" stroke-width="2" opacity="1"/>
<text x="970" y="506" font-size="14" fill="#1e1e1e" text-anchor="middle" class="excalidraw-text" opacity="1">D5: Számlák</text>
<path d="M 220 230 L 340 230" stroke="#1976d2" fill="none" stroke-width="2" marker-end="url(#ah)" opacity="1"/>
<text x="280" y="210" font-size="10" fill="#1976d2" text-anchor="middle" class="excalidraw-text" opacity="1">Személyes</text>
<text x="280" y="222" font-size="10" fill="#1976d2" text-anchor="middle" class="excalidraw-text" opacity="1">adatok</text>
<path d="M 220 530 L 340 530" stroke="#7b1fa2" fill="none" stroke-width="2" marker-end="url(#ah)" opacity="1"/>
<text x="280" y="510" font-size="10" fill="#7b1fa2" text-anchor="middle" class="excalidraw-text" opacity="1">Adószám</text>
<text x="280" y="522" font-size="10" fill="#7b1fa2" text-anchor="middle" class="excalidraw-text" opacity="1">ellenőrzés</text>
<path d="M 430 180 L 430 130" stroke="#1976d2" fill="none" stroke-width="2" marker-end="url(#ah)" opacity="1"/>
<text x="470" y="150" font-size="10" fill="#1976d2" text-anchor="middle" class="excalidraw-text" opacity="1">Mentés</text>
<path d="M 430 580 L 430 620" stroke="#7b1fa2" fill="none" stroke-width="2" marker-end="url(#ah)" opacity="1"/>
<text x="470" y="600" font-size="10" fill="#7b1fa2" text-anchor="middle" class="excalidraw-text" opacity="1">Mentés</text>
<path d="M 520 260 L 600 340" stroke="#388e3c" fill="none" stroke-width="2" marker-end="url(#ah)" opacity="1"/>
<text x="570" y="290" font-size="10" fill="#388e3c" text-anchor="middle" class="excalidraw-text" opacity="1">Partner ID</text>
<path d="M 520 500 L 600 420" stroke="#388e3c" fill="none" stroke-width="2" marker-end="url(#ah)" opacity="1"/>
<text x="570" y="460" font-size="10" fill="#388e3c" text-anchor="middle" class="excalidraw-text" opacity="1">Cég ID</text>
<path d="M 690 420 L 690 480" stroke="#388e3c" fill="none" stroke-width="2" marker-end="url(#ah)" opacity="1"/>
<text x="745" y="455" font-size="10" fill="#388e3c" text-anchor="middle" class="excalidraw-text" opacity="1">Bérlés adatok</text>
<path d="M 780 370 L 880 370" stroke="#1976d2" fill="none" stroke-width="2" marker-end="url(#ah)" opacity="1"/>
<text x="830" y="355" font-size="10" fill="#1976d2" text-anchor="middle" class="excalidraw-text" opacity="1">Tétel adat</text>
<path d="M 920 230 L 740 320" stroke="#616161" fill="none" stroke-width="2" marker-end="url(#ah)" opacity="1"/>
<text x="840" y="270" font-size="10" fill="#616161" text-anchor="middle" class="excalidraw-text" opacity="1">Gép kiválaszt</text>
<path d="M 1060 380 L 1140 380" stroke="#616161" fill="none" stroke-width="2" marker-end="url(#ah)" opacity="1"/>
<text x="1100" y="365" font-size="10" fill="#616161" text-anchor="middle" class="excalidraw-text" opacity="1">Nyomtat</text>
<path d="M 970 420 L 970 480" stroke="#1976d2" fill="none" stroke-width="2" marker-end="url(#ah)" opacity="1"/>
<text x="1010" y="455" font-size="10" fill="#1976d2" text-anchor="middle" class="excalidraw-text" opacity="1">Mentés</text>
<path d="M 690 530 L 690 600" stroke="#d32f2f" fill="none" stroke-width="2" marker-end="url(#ah)" opacity="1"/>
<text x="745" y="570" font-size="10" fill="#d32f2f" text-anchor="middle" class="excalidraw-text" opacity="1">Bérlés keres</text>
<path d="M 780 620 L 960 620 L 960 270 L 880 270" stroke="#616161" fill="none" stroke-width="2" marker-end="url(#ah)" opacity="1"/>
<text x="1045" y="600" font-size="10" fill="#616161" text-anchor="middle" class="excalidraw-text" opacity="1">Gép visszavéve</text>
<path d="M 600 340 L 220 340 L 220 240" stroke="#388e3c" fill="none" stroke-width="2" marker-end="url(#ah)" opacity="1"/>
<text x="320" y="320" font-size="10" fill="#388e3c" text-anchor="middle" class="excalidraw-text" opacity="1">Szerződés</text>
<path d="M 600 680 L 160 680 L 160 260" stroke="#d32f2f" fill="none" stroke-width="2" marker-end="url(#ah)" opacity="1"/>
<text x="280" y="650" font-size="10" fill="#d32f2f" text-anchor="middle" class="excalidraw-text" opacity="1">Kaució visszaad</text>
<rect x="60" y="720" width="400" height="180" stroke="#616161" fill="#fafafa" stroke-width="1" rx="0" opacity="1"/>
<text x="260" y="749" font-size="14" fill="#1e1e1e" text-anchor="middle" class="excalidraw-text" opacity="1">JELMAGYARÁZAT</text>
<rect x="80" y="770" width="30" height="20" stroke="#1976d2" fill="#e3f2fd" stroke-width="3" rx="0" opacity="1"/>
<text x="125" y="784" font-size="12" fill="#1e1e1e" text-anchor="start" class="excalidraw-text" opacity="1">Külső entitás</text>
<ellipse cx="95" cy="815" rx="15" ry="10" stroke="#f57c00" fill="#fff3e0" stroke-width="2" opacity="1"/>
<text x="125" y="819" font-size="12" fill="#1e1e1e" text-anchor="start" class="excalidraw-text" opacity="1">Folyamat</text>
<rect x="80" y="840" width="30" height="20" stroke="#1976d2" fill="#bbdefb" stroke-width="2" rx="0" opacity="1"/>
<text x="125" y="854" font-size="12" fill="#1e1e1e" text-anchor="start" class="excalidraw-text" opacity="1">Adattár (nyitott tégl.)</text>
<path d="M 80 875 L 110 875" stroke="#1976d2" fill="none" stroke-width="2" marker-end="url(#ah)" opacity="1"/>
<text x="125" y="879" font-size="12" fill="#1e1e1e" text-anchor="start" class="excalidraw-text" opacity="1">Adatfolyam</text>
<ellipse cx="295" cy="780" rx="15" ry="10" stroke="#7b1fa2" fill="#f3e5f5" stroke-width="2" opacity="1"/>
<text x="325" y="784" font-size="12" fill="#1e1e1e" text-anchor="start" class="excalidraw-text" opacity="1">Cég művelet</text>
<ellipse cx="295" cy="815" rx="15" ry="10" stroke="#388e3c" fill="#e8f5e9" stroke-width="2" opacity="1"/>
<text x="325" y="819" font-size="12" fill="#1e1e1e" text-anchor="start" class="excalidraw-text" opacity="1">Bérlés művelet</text>
<ellipse cx="295" cy="850" rx="15" ry="10" stroke="#d32f2f" fill="#ffebee" stroke-width="2" opacity="1"/>
<text x="325" y="854" font-size="12" fill="#1e1e1e" text-anchor="start" class="excalidraw-text" opacity="1">Visszavétel</text>
<text x="700" y="762" font-size="12" fill="#616161" text-anchor="middle" class="excalidraw-text" opacity="1">KGC ERP - Adatfolyam Diagram (DFD) v1.0</text>
<text x="700" y="776.4" font-size="12" fill="#616161" text-anchor="middle" class="excalidraw-text" opacity="1">1. rész: Ügyfél Felvétel és Bérlés Folyamat</text>
</svg>