<svg xmlns="http://www.w3.org/2000/svg" viewBox="40 -20 1300 2120" class="w-full h-auto">
<defs>
<style>.excalidraw-text { font-family: Segoe UI, Arial, sans-serif; }</style>
<marker id="ah" markerWidth="12" markerHeight="8" refX="10" refY="4" orient="auto" markerUnits="strokeWidth">
<polygon points="0 0, 12 4, 0 8" fill="#1e1e1e"/>
</marker>
<marker id="ah-blue" markerWidth="12" markerHeight="8" refX="10" refY="4" orient="auto" markerUnits="strokeWidth">
<polygon points="0 0, 12 4, 0 8" fill="#1976d2"/>
</marker>
<marker id="ah-green" markerWidth="12" markerHeight="8" refX="10" refY="4" orient="auto" markerUnits="strokeWidth">
<polygon points="0 0, 12 4, 0 8" fill="#388e3c"/>
</marker>
<marker id="ah-orange" markerWidth="12" markerHeight="8" refX="10" refY="4" orient="auto" markerUnits="strokeWidth">
<polygon points="0 0, 12 4, 0 8" fill="#f57c00"/>
</marker>
</defs>
<rect x="40" y="-20" width="1300" height="2120" fill="#ffffff"/>
<text x="600" y="40" font-size="20" fill="#1976d2" text-anchor="middle" class="excalidraw-text" opacity="1">KGC ERP - Döntési Fa</text>
<text x="600" y="64" font-size="20" fill="#1e1e1e" text-anchor="middle" class="excalidraw-text" opacity="1">Ügyfél Felvétel és Bérlés Folyamat</text>
<text x="600" y="85" font-size="14" fill="#7b1fa2" text-anchor="middle" class="excalidraw-text" opacity="1">🔄 FRISSÍTVE - v2.0 (2025-12-31) - 5 új döntési pont</text>
<ellipse cx="600" cy="130" rx="80" ry="30" stroke="#1976d2" fill="#e3f2fd" stroke-width="2" opacity="1"/>
<text x="600" y="131" font-size="16" fill="#1e1e1e" text-anchor="middle" class="excalidraw-text" opacity="1">Ügyfél Beérkezik</text>
<polygon points="600,200 700,250 600,300 500,250" stroke="#f57c00" fill="#fff3e0" stroke-width="2" opacity="1"/>
<text x="600" y="246" font-size="16" fill="#1e1e1e" text-anchor="middle" class="excalidraw-text" opacity="1">Meglévő</text>
<text x="600" y="265.2" font-size="16" fill="#1e1e1e" text-anchor="middle" class="excalidraw-text" opacity="1">ügyfél?</text>
<path d="M 600 160 L 600 200" stroke="#1976d2" fill="none" stroke-width="2" marker-end="url(#ah-blue)" opacity="1"/>
<rect x="280" y="340" width="180" height="60" stroke="#388e3c" fill="#e8f5e9" stroke-width="2" rx="0" opacity="1"/>
<text x="370" y="369" font-size="14" fill="#1e1e1e" text-anchor="middle" class="excalidraw-text" opacity="1">Ügyfél Kiválasztása</text>
<rect x="720" y="340" width="180" height="60" stroke="#1976d2" fill="#e3f2fd" stroke-width="2" rx="0" opacity="1"/>
<text x="810" y="369" font-size="14" fill="#1e1e1e" text-anchor="middle" class="excalidraw-text" opacity="1">Új Partner Felvétele</text>
<path d="M 500 270 L 370 340" stroke="#388e3c" fill="none" stroke-width="2" marker-end="url(#ah-green)" opacity="1"/>
<path d="M 700 270 L 810 340" stroke="#d32f2f" fill="none" stroke-width="2" marker-end="url(#ah)" opacity="1"/>
<text x="380" y="302" font-size="12" fill="#388e3c" text-anchor="middle" class="excalidraw-text" opacity="1">IGEN</text>
<text x="760" y="302" font-size="12" fill="#d32f2f" text-anchor="middle" class="excalidraw-text" opacity="1">NEM</text>
<polygon points="600,460 700,510 600,560 500,510" stroke="#f57c00" fill="#fff3e0" stroke-width="2" opacity="1"/>
<text x="600" y="506" font-size="16" fill="#1e1e1e" text-anchor="middle" class="excalidraw-text" opacity="1">Magánszemély</text>
<text x="600" y="525.2" font-size="16" fill="#1e1e1e" text-anchor="middle" class="excalidraw-text" opacity="1">vagy Cég?</text>
<path d="M 370 400 L 550 460" stroke="#1976d2" fill="none" stroke-width="2" marker-end="url(#ah-blue)" opacity="1"/>
<path d="M 810 400 L 650 460" stroke="#1976d2" fill="none" stroke-width="2" marker-end="url(#ah-blue)" opacity="1"/>
<rect x="220" y="620" width="200" height="80" stroke="#1976d2" fill="#e3f2fd" stroke-width="2" rx="0" opacity="1"/>
<text x="320" y="649" font-size="14" fill="#1e1e1e" text-anchor="middle" class="excalidraw-text" opacity="1">Magánszemély</text>
<text x="320" y="665.8" font-size="14" fill="#1e1e1e" text-anchor="middle" class="excalidraw-text" opacity="1">→ Közvetlen szerződés</text>
<rect x="780" y="620" width="200" height="80" stroke="#7b1fa2" fill="#f3e5f5" stroke-width="2" rx="0" opacity="1"/>
<text x="880" y="643" font-size="13" fill="#1e1e1e" text-anchor="middle" class="excalidraw-text" opacity="1">Cég</text>
<text x="880" y="658.6" font-size="13" fill="#1e1e1e" text-anchor="middle" class="excalidraw-text" opacity="1">→ Adószám ellenőrzés</text>
<text x="880" y="674.2" font-size="13" fill="#1e1e1e" text-anchor="middle" class="excalidraw-text" opacity="1">→ Cégadatok betöltése</text>
<path d="M 500 530 L 320 620" stroke="#1976d2" fill="none" stroke-width="2" marker-end="url(#ah-blue)" opacity="1"/>
<path d="M 700 530 L 880 620" stroke="#7b1fa2" fill="none" stroke-width="2" marker-end="url(#ah)" opacity="1"/>
<text x="360" y="571" font-size="11" fill="#1976d2" text-anchor="middle" class="excalidraw-text" opacity="1">Magánszemély</text>
<text x="800" y="571" font-size="11" fill="#7b1fa2" text-anchor="middle" class="excalidraw-text" opacity="1">Cég</text>
<polygon points="600,780 700,830 600,880 500,830" stroke="#f57c00" fill="#fff3e0" stroke-width="2" opacity="1"/>
<text x="600" y="826" font-size="16" fill="#1e1e1e" text-anchor="middle" class="excalidraw-text" opacity="1">Bérlési</text>
<text x="600" y="845.2" font-size="16" fill="#1e1e1e" text-anchor="middle" class="excalidraw-text" opacity="1">Időtartam?</text>
<path d="M 320 700 L 550 780" stroke="#1976d2" fill="none" stroke-width="2" marker-end="url(#ah-blue)" opacity="1"/>
<path d="M 880 700 L 650 780" stroke="#1976d2" fill="none" stroke-width="2" marker-end="url(#ah-blue)" opacity="1"/>
<rect x="80" y="940" width="140" height="60" stroke="#616161" fill="#f5f5f5" stroke-width="2" rx="0" opacity="1"/>
<text x="150" y="962" font-size="12" fill="#616161" text-anchor="middle" class="excalidraw-text" opacity="1">3 óra</text>
<text x="150" y="976.4" font-size="12" fill="#616161" text-anchor="middle" class="excalidraw-text" opacity="1">(nem használt)</text>
<rect x="280" y="940" width="140" height="60" stroke="#388e3c" fill="#e8f5e9" stroke-width="2" rx="0" opacity="1"/>
<text x="350" y="962" font-size="12" fill="#1e1e1e" text-anchor="middle" class="excalidraw-text" opacity="1">Fél nap (5 óra)</text>
<text x="350" y="976.4" font-size="12" fill="#1e1e1e" text-anchor="middle" class="excalidraw-text" opacity="1">50% napi díj</text>
<rect x="480" y="940" width="140" height="60" stroke="#388e3c" fill="#e8f5e9" stroke-width="2" rx="0" opacity="1"/>
<text x="550" y="962" font-size="12" fill="#1e1e1e" text-anchor="middle" class="excalidraw-text" opacity="1">1 nap</text>
<text x="550" y="976.4" font-size="12" fill="#1e1e1e" text-anchor="middle" class="excalidraw-text" opacity="1">100% napi díj</text>
<rect x="680" y="940" width="160" height="60" stroke="#d32f2f" fill="#ffebee" stroke-width="2" rx="0" opacity="1"/>
<text x="760" y="956" font-size="11" fill="#1e1e1e" text-anchor="middle" class="excalidraw-text" opacity="1">0 (Törzs-ügyfél)</text>
<text x="760" y="969.2" font-size="11" fill="#1e1e1e" text-anchor="middle" class="excalidraw-text" opacity="1">Elszámolás később</text>
<path d="M 500 850 L 150 940" stroke="#616161" fill="none" stroke-width="1" marker-end="url(#ah)" opacity="1"/>
<path d="M 520 880 L 350 940" stroke="#388e3c" fill="none" stroke-width="2" marker-end="url(#ah-green)" opacity="1"/>
<path d="M 600 880 L 600 940" stroke="#388e3c" fill="none" stroke-width="2" marker-end="url(#ah-green)" opacity="1"/>
<path d="M 700 850 L 760 940" stroke="#d32f2f" fill="none" stroke-width="2" marker-end="url(#ah)" opacity="1"/>
<polygon points="600,1080 700,1130 600,1180 500,1130" stroke="#f57c00" fill="#fff3e0" stroke-width="2" opacity="1"/>
<text x="600" y="1126" font-size="16" fill="#1e1e1e" text-anchor="middle" class="excalidraw-text" opacity="1">Fizetési</text>
<text x="600" y="1145.2" font-size="16" fill="#1e1e1e" text-anchor="middle" class="excalidraw-text" opacity="1">Mód?</text>
<path d="M 350 1000 L 550 1080" stroke="#1976d2" fill="none" stroke-width="2" marker-end="url(#ah-blue)" opacity="1"/>
<path d="M 550 1000 L 600 1080" stroke="#1976d2" fill="none" stroke-width="2" marker-end="url(#ah-blue)" opacity="1"/>
<path d="M 760 1000 L 650 1080" stroke="#1976d2" fill="none" stroke-width="2" marker-end="url(#ah-blue)" opacity="1"/>
<rect x="240" y="1240" width="140" height="80" stroke="#388e3c" fill="#e8f5e9" stroke-width="2" rx="0" opacity="1"/>
<text x="310" y="1260" font-size="12" fill="#1e1e1e" text-anchor="middle" class="excalidraw-text" opacity="1">Készpénz</text>
<text x="310" y="1275" font-size="12" fill="#1e1e1e" text-anchor="middle" class="excalidraw-text" opacity="1">→ Számla</text>
<text x="310" y="1293" font-size="9" fill="#f57c00" text-anchor="middle" class="excalidraw-text" opacity="1">🆕 vagy Szállítólevél</text>
<text x="310" y="1307" font-size="9" fill="#f57c00" text-anchor="middle" class="excalidraw-text" opacity="1">(számla nélkül)</text>
<rect x="530" y="1240" width="140" height="60" stroke="#1976d2" fill="#e3f2fd" stroke-width="2" rx="0" opacity="1"/>
<text x="600" y="1256" font-size="12" fill="#1e1e1e" text-anchor="middle" class="excalidraw-text" opacity="1">Kártya</text>
<text x="600" y="1270.4" font-size="12" fill="#1e1e1e" text-anchor="middle" class="excalidraw-text" opacity="1">→ VAN számla</text>
<text x="600" y="1286" font-size="10" fill="#f57c00" text-anchor="middle" class="excalidraw-text" opacity="1">🆕 VÁLTOZÁS v2.0</text>
<rect x="820" y="1240" width="140" height="60" stroke="#7b1fa2" fill="#f3e5f5" stroke-width="2" rx="0" opacity="1"/>
<text x="890" y="1262" font-size="12" fill="#1e1e1e" text-anchor="middle" class="excalidraw-text" opacity="1">Átutalás</text>
<text x="890" y="1276.4" font-size="12" fill="#1e1e1e" text-anchor="middle" class="excalidraw-text" opacity="1">→ Számla</text>
<path d="M 500 1150 L 310 1240" stroke="#388e3c" fill="none" stroke-width="2" marker-end="url(#ah-green)" opacity="1"/>
<path d="M 600 1180 L 600 1240" stroke="#1976d2" fill="none" stroke-width="2" marker-end="url(#ah-blue)" opacity="1"/>
<path d="M 700 1150 L 890 1240" stroke="#7b1fa2" fill="none" stroke-width="2" marker-end="url(#ah)" opacity="1"/>
<path d="M 100 1360 L 1100 1360" stroke="#616161" fill="none" stroke-width="2" opacity="1"/>
<text x="600" y="1389" font-size="14" fill="#616161" text-anchor="middle" class="excalidraw-text" opacity="1">─── GÉP VISSZAVÉTELE ───</text>
<polygon points="600,1440 700,1490 600,1540 500,1490" stroke="#f57c00" fill="#fff3e0" stroke-width="2" opacity="1"/>
<text x="600" y="1486" font-size="16" fill="#1e1e1e" text-anchor="middle" class="excalidraw-text" opacity="1">Késés</text>
<text x="600" y="1505.2" font-size="16" fill="#1e1e1e" text-anchor="middle" class="excalidraw-text" opacity="1">van?</text>
<rect x="240" y="1600" width="180" height="80" stroke="#d32f2f" fill="#ffebee" stroke-width="2" rx="0" opacity="1"/>
<text x="330" y="1622" font-size="12" fill="#1e1e1e" text-anchor="middle" class="excalidraw-text" opacity="1">Késési díj</text>
<text x="330" y="1636.4" font-size="12" fill="#1e1e1e" text-anchor="middle" class="excalidraw-text" opacity="1">felszámítása</text>
<text x="330" y="1650.8" font-size="12" fill="#1e1e1e" text-anchor="middle" class="excalidraw-text" opacity="1">(F + napok száma)</text>
<rect x="780" y="1600" width="180" height="80" stroke="#388e3c" fill="#e8f5e9" stroke-width="2" rx="0" opacity="1"/>
<text x="870" y="1632" font-size="12" fill="#1e1e1e" text-anchor="middle" class="excalidraw-text" opacity="1">Nincs késés</text>
<text x="870" y="1646.4" font-size="12" fill="#1e1e1e" text-anchor="middle" class="excalidraw-text" opacity="1">→ Gép visszavétele</text>
<path d="M 500 1510 L 330 1600" stroke="#d32f2f" fill="none" stroke-width="2" marker-end="url(#ah)" opacity="1"/>
<path d="M 700 1510 L 870 1600" stroke="#388e3c" fill="none" stroke-width="2" marker-end="url(#ah-green)" opacity="1"/>
<text x="360" y="1557" font-size="12" fill="#d32f2f" text-anchor="middle" class="excalidraw-text" opacity="1">IGEN</text>
<text x="820" y="1557" font-size="12" fill="#388e3c" text-anchor="middle" class="excalidraw-text" opacity="1">NEM</text>
<!-- VÁLTOZÁS 3+4: KÁR ELLENŐRZÉS (ADR-006) -->
<polygon points="600,1730 700,1780 600,1830 500,1780" stroke="#f57c00" fill="#fff3e0" stroke-width="2" opacity="1"/>
<text x="600" y="1770" font-size="14" fill="#1e1e1e" text-anchor="middle" class="excalidraw-text" opacity="1">Kár/Sérülés</text>
<text x="600" y="1786.8" font-size="14" fill="#1e1e1e" text-anchor="middle" class="excalidraw-text" opacity="1">van?</text>
<path d="M 330 1680 L 550 1730" stroke="#1976d2" fill="none" stroke-width="2" marker-end="url(#ah-blue)" opacity="1"/>
<path d="M 870 1680 L 650 1730" stroke="#1976d2" fill="none" stroke-width="2" marker-end="url(#ah-blue)" opacity="1"/>

<!-- Kár VAN - Jegyzőkönyv + Kaució benntartás -->
<rect x="240" y="1880" width="160" height="80" stroke="#d32f2f" fill="#ffebee" stroke-width="2" rx="0" opacity="1"/>
<text x="320" y="1905" font-size="11" fill="#1e1e1e" text-anchor="middle" class="excalidraw-text" opacity="1">📋 Jegyzőkönyv</text>
<text x="320" y="1919" font-size="11" fill="#1e1e1e" text-anchor="middle" class="excalidraw-text" opacity="1">Kaució benntartás</text>
<text x="320" y="1933" font-size="11" fill="#1e1e1e" text-anchor="middle" class="excalidraw-text" opacity="1">Javítási költség</text>
<text x="320" y="1950" font-size="9" fill="#7b1fa2" text-anchor="middle" class="excalidraw-text" opacity="1">ℹ️ ADR-006</text>
<path d="M 500 1800 L 320 1880" stroke="#d32f2f" fill="none" stroke-width="2" marker-end="url(#ah)" opacity="1"/>
<text x="390" y="1840" font-size="11" fill="#d32f2f" text-anchor="middle" class="excalidraw-text" opacity="1">IGEN</text>

<!-- VÁLTOZÁS 5: Kár NINCS - MyPos visszatérítés -->
<rect x="780" y="1880" width="200" height="95" stroke="#388e3c" fill="#e8f5e9" stroke-width="2" rx="0" opacity="1"/>
<text x="880" y="1905" font-size="12" fill="#1e1e1e" text-anchor="middle" class="excalidraw-text" opacity="1">💳 Kaució Visszaadás</text>
<text x="880" y="1921" font-size="11" fill="#1e1e1e" text-anchor="middle" class="excalidraw-text" opacity="1">• Készpénz (100%)</text>
<text x="880" y="1937" font-size="11" fill="#1e1e1e" text-anchor="middle" class="excalidraw-text" opacity="1">• MyPos refund</text>
<text x="880" y="1953" font-size="11" fill="#1e1e1e" text-anchor="middle" class="excalidraw-text" opacity="1">  (kaució - 2% díj)</text>
<text x="880" y="1968" font-size="9" fill="#388e3c" text-anchor="middle" class="excalidraw-text" opacity="1">ℹ️ ADR-005</text>
<path d="M 700 1800 L 880 1880" stroke="#388e3c" fill="none" stroke-width="2" marker-end="url(#ah-green)" opacity="1"/>
<text x="800" y="1840" font-size="11" fill="#388e3c" text-anchor="middle" class="excalidraw-text" opacity="1">NEM</text>

<!-- END -->
<ellipse cx="600" cy="2050" rx="80" ry="30" stroke="#1976d2" fill="#e3f2fd" stroke-width="2" opacity="1"/>
<text x="600" y="2049" font-size="14" fill="#1e1e1e" text-anchor="middle" class="excalidraw-text" opacity="1">VÉGE</text>
<path d="M 320 1960 L 570 2020" stroke="#1976d2" fill="none" stroke-width="2" marker-end="url(#ah-blue)" opacity="1"/>
<path d="M 880 1975 L 630 2020" stroke="#1976d2" fill="none" stroke-width="2" marker-end="url(#ah-blue)" opacity="1"/>
<rect x="1020" y="100" width="280" height="380" stroke="#616161" fill="#fafafa" stroke-width="1" rx="0" opacity="1"/>
<text x="1160" y="129" font-size="14" fill="#1e1e1e" text-anchor="middle" class="excalidraw-text" opacity="1">JELMAGYARÁZAT</text>
<ellipse cx="1055" cy="165" rx="15" ry="10" stroke="#1976d2" fill="#e3f2fd" stroke-width="2" opacity="1"/>
<text x="1085" y="167" font-size="12" fill="#1e1e1e" text-anchor="start" class="excalidraw-text" opacity="1">Kezdő/Záró pont</text>
<polygon points="1055,190 1070,202.5 1055,215 1040,202.5" stroke="#f57c00" fill="#fff3e0" stroke-width="2" opacity="1"/>
<text x="1085" y="207" font-size="12" fill="#1e1e1e" text-anchor="start" class="excalidraw-text" opacity="1">Döntési pont</text>
<rect x="1040" y="235" width="30" height="20" stroke="#1976d2" fill="#e3f2fd" stroke-width="2" rx="0" opacity="1"/>
<text x="1085" y="249" font-size="12" fill="#1e1e1e" text-anchor="start" class="excalidraw-text" opacity="1">Folyamat lépés</text>
<rect x="1040" y="275" width="30" height="20" stroke="#388e3c" fill="#e8f5e9" stroke-width="2" rx="0" opacity="1"/>
<text x="1085" y="289" font-size="12" fill="#1e1e1e" text-anchor="start" class="excalidraw-text" opacity="1">Ajánlott / Gyakori opció</text>
<rect x="1040" y="315" width="30" height="20" stroke="#d32f2f" fill="#ffebee" stroke-width="2" rx="0" opacity="1"/>
<text x="1085" y="329" font-size="12" fill="#1e1e1e" text-anchor="start" class="excalidraw-text" opacity="1">Figyelmeztetés / Ritka</text>
<rect x="1040" y="355" width="30" height="20" stroke="#7b1fa2" fill="#f3e5f5" stroke-width="2" rx="0" opacity="1"/>
<text x="1085" y="369" font-size="12" fill="#1e1e1e" text-anchor="start" class="excalidraw-text" opacity="1">Cég-specifikus művelet</text>
<rect x="1040" y="395" width="30" height="20" stroke="#616161" fill="#f5f5f5" stroke-width="1" rx="0" opacity="1"/>
<text x="1085" y="409" font-size="12" fill="#1e1e1e" text-anchor="start" class="excalidraw-text" opacity="1">Nem használt funkció</text>
<path d="M 1040 445 L 1070 445" stroke="#388e3c" fill="none" stroke-width="2" marker-end="url(#ah-green)" opacity="1"/>
<text x="1085" y="449" font-size="12" fill="#1e1e1e" text-anchor="start" class="excalidraw-text" opacity="1">IGEN ág</text>
<text x="600" y="2090" font-size="12" fill="#616161" text-anchor="middle" class="excalidraw-text" opacity="1">KGC ERP - Döntési Fa v2.0 (2025-12-31)</text>
<text x="600" y="2104.4" font-size="12" fill="#616161" text-anchor="middle" class="excalidraw-text" opacity="1">1. rész: Ügyfél Felvétel és Bérlés Folyamat - 5 új döntési pont</text>
</svg>