<svg xmlns="http://www.w3.org/2000/svg" viewBox="60 -20 1180 2250" class="w-full h-auto">
<defs>
<style>.excalidraw-text { font-family: Segoe UI, Arial, sans-serif; }</style>
<marker id="ah" markerWidth="10" markerHeight="10" refX="9" refY="3" orient="auto">
<polygon points="0 0, 10 3, 0 6" fill="#1e1e1e"/>
</marker>
</defs>
<rect x="60" y="-20" width="1180" height="2250" fill="#ffffff"/>
<text x="600" y="48" font-size="28" fill="#1976d2" text-anchor="middle" class="excalidraw-text" opacity="1">Ügyfél Felvétel és Bérlés Folyamat</text>
<ellipse cx="600" cy="130" rx="60" ry="30" stroke="#1976d2" fill="#e3f2fd" stroke-width="2" opacity="1"/>
<text x="600" y="136" font-size="18" fill="#1e1e1e" text-anchor="middle" class="excalidraw-text" opacity="1">Kezdés</text>
<path d="M 600 160 L 600 200" stroke="#1976d2" fill="none" stroke-width="2" marker-end="url(#ah)" opacity="1"/>
<rect x="520" y="210" width="160" height="70" stroke="#1976d2" fill="#e3f2fd" stroke-width="2" rx="8" opacity="1"/>
<text x="600" y="241" font-size="16" fill="#1e1e1e" text-anchor="middle" class="excalidraw-text" opacity="1">Belépés a</text>
<text x="600" y="260.2" font-size="16" fill="#1e1e1e" text-anchor="middle" class="excalidraw-text" opacity="1">rendszerbe</text>
<path d="M 600 280 L 600 320" stroke="#1976d2" fill="none" stroke-width="2" marker-end="url(#ah)" opacity="1"/>
<polygon points="600,330 670,380 600,430 530,380" stroke="#f57c00" fill="#fff3e0" stroke-width="2" opacity="1"/>
<text x="600" y="374" font-size="14" fill="#1e1e1e" text-anchor="middle" class="excalidraw-text" opacity="1">Meglévő</text>
<text x="600" y="390.8" font-size="14" fill="#1e1e1e" text-anchor="middle" class="excalidraw-text" opacity="1">ügyfél?</text>
<path d="M 530 380 L 400 380" stroke="#1976d2" fill="none" stroke-width="2" marker-end="url(#ah)" opacity="1"/>
<text x="460" y="367" font-size="12" fill="#d32f2f" text-anchor="middle" class="excalidraw-text" opacity="1">Nem</text>
<path d="M 670 380 L 800 380" stroke="#1976d2" fill="none" stroke-width="2" marker-end="url(#ah)" opacity="1"/>
<text x="720" y="367" font-size="12" fill="#388e3c" text-anchor="middle" class="excalidraw-text" opacity="1">Igen</text>
<rect x="240" y="345" width="160" height="70" stroke="#1976d2" fill="#e3f2fd" stroke-width="2" rx="8" opacity="1"/>
<text x="320" y="374" font-size="14" fill="#1e1e1e" text-anchor="middle" class="excalidraw-text" opacity="1">Új ügyfél</text>
<text x="320" y="390.8" font-size="14" fill="#1e1e1e" text-anchor="middle" class="excalidraw-text" opacity="1">adatok rögzítése</text>
<rect x="800" y="345" width="160" height="70" stroke="#1976d2" fill="#e3f2fd" stroke-width="2" rx="8" opacity="1"/>
<text x="880" y="374" font-size="14" fill="#1e1e1e" text-anchor="middle" class="excalidraw-text" opacity="1">Ügyfél keresése</text>
<text x="880" y="390.8" font-size="14" fill="#1e1e1e" text-anchor="middle" class="excalidraw-text" opacity="1">és kiválasztása</text>
<path d="M 320 415 L 320 470 L 600 470" stroke="#1976d2" fill="none" stroke-width="2" marker-end="url(#ah)" opacity="1"/>
<path d="M 880 415 L 880 470 L 600 470" stroke="#1976d2" fill="none" stroke-width="2" marker-end="url(#ah)" opacity="1"/>
<polygon points="600,500 670,550 600,600 530,550" stroke="#f57c00" fill="#fff3e0" stroke-width="2" opacity="1"/>
<text x="600" y="542" font-size="14" fill="#1e1e1e" text-anchor="middle" class="excalidraw-text" opacity="1">Magánszemély</text>
<text x="600" y="558.8" font-size="14" fill="#1e1e1e" text-anchor="middle" class="excalidraw-text" opacity="1">vagy Cég?</text>
<path d="M 530 550 L 400 550" stroke="#1976d2" fill="none" stroke-width="2" marker-end="url(#ah)" opacity="1"/>
<text x="460" y="532" font-size="12" fill="#388e3c" text-anchor="middle" class="excalidraw-text" opacity="1">Magán</text>
<path d="M 670 550 L 800 550" stroke="#1976d2" fill="none" stroke-width="2" marker-end="url(#ah)" opacity="1"/>
<text x="720" y="532" font-size="12" fill="#1976d2" text-anchor="middle" class="excalidraw-text" opacity="1">Cég</text>
<rect x="240" y="515" width="160" height="70" stroke="#1976d2" fill="#e3f2fd" stroke-width="2" rx="8" opacity="1"/>
<text x="320" y="544" font-size="14" fill="#1e1e1e" text-anchor="middle" class="excalidraw-text" opacity="1">Magánszemély</text>
<text x="320" y="560.8" font-size="14" fill="#1e1e1e" text-anchor="middle" class="excalidraw-text" opacity="1">kiválasztva</text>
<rect x="800" y="480" width="180" height="140" stroke="#1976d2" fill="#e3f2fd" stroke-width="2" rx="8" opacity="1"/>
<text x="890" y="517" font-size="12" fill="#1e1e1e" text-anchor="middle" class="excalidraw-text" opacity="1">Cég rögzítése:</text>
<text x="890" y="531.4" font-size="12" fill="#1e1e1e" text-anchor="middle" class="excalidraw-text" opacity="1">• Adószám beírása</text>
<text x="890" y="545.8" font-size="12" fill="#1e1e1e" text-anchor="middle" class="excalidraw-text" opacity="1">• NAV ellenőrzés</text>
<text x="890" y="560.2" font-size="12" fill="#1e1e1e" text-anchor="middle" class="excalidraw-text" opacity="1">• Cég kiválasztása</text>
<text x="890" y="574.6" font-size="12" fill="#1e1e1e" text-anchor="middle" class="excalidraw-text" opacity="1">(pirossal jelölve)</text>
<rect x="1000" y="505" width="180" height="90" stroke="#d32f2f" fill="#ffebee" stroke-width="2" rx="4" opacity="1"/>
<text x="1090" y="531" font-size="11" fill="#d32f2f" text-anchor="middle" class="excalidraw-text" opacity="1">⚠️ FONTOS:</text>
<text x="1090" y="544.2" font-size="11" fill="#d32f2f" text-anchor="middle" class="excalidraw-text" opacity="1">Szerződés MINDIG</text>
<text x="1090" y="557.4" font-size="11" fill="#d32f2f" text-anchor="middle" class="excalidraw-text" opacity="1">magánszeméllyel!</text>
<text x="1090" y="570.6" font-size="11" fill="#d32f2f" text-anchor="middle" class="excalidraw-text" opacity="1">Számla → cégre</text>
<path d="M 320 585 L 320 650 L 600 650" stroke="#1976d2" fill="none" stroke-width="2" marker-end="url(#ah)" opacity="1"/>
<path d="M 890 620 L 890 650 L 600 650" stroke="#1976d2" fill="none" stroke-width="2" marker-end="url(#ah)" opacity="1"/>
<rect x="520" y="680" width="160" height="70" stroke="#1976d2" fill="#e3f2fd" stroke-width="2" rx="8" opacity="1"/>
<text x="600" y="711" font-size="16" fill="#1e1e1e" text-anchor="middle" class="excalidraw-text" opacity="1">Új bérlés</text>
<text x="600" y="730.2" font-size="16" fill="#1e1e1e" text-anchor="middle" class="excalidraw-text" opacity="1">indítása</text>
<path d="M 600 750 L 600 790" stroke="#1976d2" fill="none" stroke-width="2" marker-end="url(#ah)" opacity="1"/>
<polygon points="600,800 670,850 600,900 530,850" stroke="#f57c00" fill="#fff3e0" stroke-width="2" opacity="1"/>
<text x="600" y="844" font-size="14" fill="#1e1e1e" text-anchor="middle" class="excalidraw-text" opacity="1">Időtartam</text>
<text x="600" y="860.8" font-size="14" fill="#1e1e1e" text-anchor="middle" class="excalidraw-text" opacity="1">választás</text>
<rect x="700" y="780" width="200" height="140" stroke="#616161" fill="#f5f5f5" stroke-width="1" rx="4" opacity="1"/>
<text x="710" y="807" font-size="12" fill="#1e1e1e" text-anchor="start" class="excalidraw-text" opacity="1">Lehetőségek:</text>
<text x="710" y="821.4" font-size="12" fill="#1e1e1e" text-anchor="start" class="excalidraw-text" opacity="1">• +5 óra = Fél nap (50%)</text>
<text x="710" y="835.8" font-size="12" fill="#1e1e1e" text-anchor="start" class="excalidraw-text" opacity="1">• +1 nap = Teljes nap</text>
<text x="710" y="850.2" font-size="12" fill="#1e1e1e" text-anchor="start" class="excalidraw-text" opacity="1">• +3 óra (nem használt)</text>
<text x="710" y="864.6" font-size="12" fill="#1e1e1e" text-anchor="start" class="excalidraw-text" opacity="1">• 0 nap = Szállítólevél</text>
<text x="710" y="879" font-size="12" fill="#1e1e1e" text-anchor="start" class="excalidraw-text" opacity="1">  (csak törzsügyfelek)</text>
<path d="M 600 900 L 600 940" stroke="#1976d2" fill="none" stroke-width="2" marker-end="url(#ah)" opacity="1"/>
<rect x="520" y="950" width="160" height="70" stroke="#1976d2" fill="#e3f2fd" stroke-width="2" rx="8" opacity="1"/>
<text x="600" y="979" font-size="14" fill="#1e1e1e" text-anchor="middle" class="excalidraw-text" opacity="1">Gép kiválasztása</text>
<text x="600" y="995.8" font-size="14" fill="#1e1e1e" text-anchor="middle" class="excalidraw-text" opacity="1">(cikkszám)</text>
<path d="M 600 1020 L 600 1060" stroke="#1976d2" fill="none" stroke-width="2" marker-end="url(#ah)" opacity="1"/>
<rect x="520" y="1070" width="160" height="80" stroke="#388e3c" fill="#e8f5e9" stroke-width="2" rx="8" opacity="1"/>
<text x="600" y="1095" font-size="13" fill="#1e1e1e" text-anchor="middle" class="excalidraw-text" opacity="1">Kaució rögzítése</text>
<text x="600" y="1110.6" font-size="13" fill="#1e1e1e" text-anchor="middle" class="excalidraw-text" opacity="1">(csak készpénz!)</text>
<text x="600" y="1126.2" font-size="13" fill="#1e1e1e" text-anchor="middle" class="excalidraw-text" opacity="1">+ Megjegyzés</text>
<path d="M 600 1150 L 600 1190" stroke="#1976d2" fill="none" stroke-width="2" marker-end="url(#ah)" opacity="1"/>
<rect x="520" y="1200" width="160" height="70" stroke="#1976d2" fill="#e3f2fd" stroke-width="2" rx="8" opacity="1"/>
<text x="600" y="1228" font-size="13" fill="#1e1e1e" text-anchor="middle" class="excalidraw-text" opacity="1">Rögzítés</text>
<text x="600" y="1243.6" font-size="13" fill="#1e1e1e" text-anchor="middle" class="excalidraw-text" opacity="1">(szerződés generálás)</text>
<path d="M 600 1270 L 600 1310" stroke="#1976d2" fill="none" stroke-width="2" marker-end="url(#ah)" opacity="1"/>
<rect x="520" y="1320" width="160" height="80" stroke="#1976d2" fill="#e3f2fd" stroke-width="2" rx="8" opacity="1"/>
<text x="600" y="1344" font-size="12" fill="#1e1e1e" text-anchor="middle" class="excalidraw-text" opacity="1">Nyomtatás</text>
<text x="600" y="1358.4" font-size="12" fill="#1e1e1e" text-anchor="middle" class="excalidraw-text" opacity="1">1. Vonalkódos (bolt)</text>
<text x="600" y="1372.8" font-size="12" fill="#1e1e1e" text-anchor="middle" class="excalidraw-text" opacity="1">2. Sima (ügyfél)</text>
<path d="M 600 1400 L 600 1440" stroke="#1976d2" fill="none" stroke-width="2" marker-end="url(#ah)" opacity="1"/>
<ellipse cx="600" cy="1480" rx="60" ry="30" stroke="#388e3c" fill="#e8f5e9" stroke-width="2" opacity="1"/>
<text x="600" y="1474" font-size="12" fill="#1e1e1e" text-anchor="middle" class="excalidraw-text" opacity="1">Gép kiadva</text>
<text x="600" y="1488.4" font-size="12" fill="#1e1e1e" text-anchor="middle" class="excalidraw-text" opacity="1">(bérlés aktív)</text>
<path d="M 100 1550 L 1200 1550" stroke="#616161" fill="none" stroke-width="2" opacity="1"/>
<text x="600" y="1576" font-size="16" fill="#616161" text-anchor="middle" class="excalidraw-text" opacity="1">--- GÉP VISSZAHOZÁSA ---</text>
<rect x="520" y="1620" width="160" height="70" stroke="#1976d2" fill="#e3f2fd" stroke-width="2" rx="8" opacity="1"/>
<text x="600" y="1649" font-size="14" fill="#1e1e1e" text-anchor="middle" class="excalidraw-text" opacity="1">Vonalkód</text>
<text x="600" y="1665.8" font-size="14" fill="#1e1e1e" text-anchor="middle" class="excalidraw-text" opacity="1">beolvasás</text>
<path d="M 600 1690 L 600 1730" stroke="#1976d2" fill="none" stroke-width="2" marker-end="url(#ah)" opacity="1"/>
<polygon points="600,1740 670,1790 600,1840 530,1790" stroke="#f57c00" fill="#fff3e0" stroke-width="2" opacity="1"/>
<text x="600" y="1784" font-size="14" fill="#1e1e1e" text-anchor="middle" class="excalidraw-text" opacity="1">Késett</text>
<text x="600" y="1800.8" font-size="14" fill="#1e1e1e" text-anchor="middle" class="excalidraw-text" opacity="1">a gép?</text>
<path d="M 670 1790 L 800 1790" stroke="#1976d2" fill="none" stroke-width="2" marker-end="url(#ah)" opacity="1"/>
<text x="720" y="1777" font-size="12" fill="#d32f2f" text-anchor="middle" class="excalidraw-text" opacity="1">Igen</text>
<rect x="800" y="1755" width="180" height="70" stroke="#d32f2f" fill="#ffebee" stroke-width="2" rx="8" opacity="1"/>
<text x="890" y="1780" font-size="12" fill="#1e1e1e" text-anchor="middle" class="excalidraw-text" opacity="1">Késési díj rögzítése</text>
<text x="890" y="1794.4" font-size="12" fill="#1e1e1e" text-anchor="middle" class="excalidraw-text" opacity="1">(0.5, 1, 2... nap)</text>
<text x="890" y="1808.8" font-size="12" fill="#1e1e1e" text-anchor="middle" class="excalidraw-text" opacity="1">→ Számlázás</text>
<path d="M 600 1840 L 600 1880" stroke="#1976d2" fill="none" stroke-width="2" marker-end="url(#ah)" opacity="1"/>
<text x="630" y="1862" font-size="12" fill="#388e3c" text-anchor="middle" class="excalidraw-text" opacity="1">Nem</text>
<path d="M 890 1825 L 890 1900 L 600 1900" stroke="#1976d2" fill="none" stroke-width="2" marker-end="url(#ah)" opacity="1"/>
<rect x="520" y="1890" width="160" height="70" stroke="#1976d2" fill="#e3f2fd" stroke-width="2" rx="8" opacity="1"/>
<text x="600" y="1919" font-size="14" fill="#1e1e1e" text-anchor="middle" class="excalidraw-text" opacity="1">Gép visszavétele</text>
<text x="600" y="1935.8" font-size="14" fill="#1e1e1e" text-anchor="middle" class="excalidraw-text" opacity="1">(naplózás)</text>
<path d="M 600 1960 L 600 2000" stroke="#1976d2" fill="none" stroke-width="2" marker-end="url(#ah)" opacity="1"/>
<rect x="520" y="2010" width="160" height="70" stroke="#388e3c" fill="#e8f5e9" stroke-width="2" rx="8" opacity="1"/>
<text x="600" y="2039" font-size="14" fill="#1e1e1e" text-anchor="middle" class="excalidraw-text" opacity="1">Kaució</text>
<text x="600" y="2055.8" font-size="14" fill="#1e1e1e" text-anchor="middle" class="excalidraw-text" opacity="1">visszaadása</text>
<path d="M 600 2080 L 600 2120" stroke="#1976d2" fill="none" stroke-width="2" marker-end="url(#ah)" opacity="1"/>
<ellipse cx="600" cy="2160" rx="60" ry="30" stroke="#388e3c" fill="#e8f5e9" stroke-width="2" opacity="1"/>
<text x="600" y="2166" font-size="18" fill="#1e1e1e" text-anchor="middle" class="excalidraw-text" opacity="1">Vége</text>
<rect x="100" y="100" width="200" height="200" stroke="#616161" fill="#fafafa" stroke-width="1" rx="8" opacity="1"/>
<text x="200" y="126" font-size="16" fill="#1e1e1e" text-anchor="middle" class="excalidraw-text" opacity="1">Jelmagyarázat</text>
<ellipse cx="135" cy="155" rx="15" ry="10" stroke="#1976d2" fill="#e3f2fd" stroke-width="1" opacity="1"/>
<text x="160" y="159" font-size="12" fill="#1e1e1e" text-anchor="start" class="excalidraw-text" opacity="1">Kezdés / Vége</text>
<rect x="120" y="175" width="30" height="20" stroke="#1976d2" fill="#e3f2fd" stroke-width="1" rx="4" opacity="1"/>
<text x="160" y="189" font-size="12" fill="#1e1e1e" text-anchor="start" class="excalidraw-text" opacity="1">Folyamat lépés</text>
<polygon points="135,205 150,217.5 135,230 120,217.5" stroke="#f57c00" fill="#fff3e0" stroke-width="1" opacity="1"/>
<text x="160" y="222" font-size="12" fill="#1e1e1e" text-anchor="start" class="excalidraw-text" opacity="1">Döntési pont</text>
<rect x="120" y="240" width="30" height="20" stroke="#388e3c" fill="#e8f5e9" stroke-width="1" rx="4" opacity="1"/>
<text x="160" y="254" font-size="12" fill="#1e1e1e" text-anchor="start" class="excalidraw-text" opacity="1">Fontos lépés</text>
<rect x="120" y="270" width="30" height="20" stroke="#d32f2f" fill="#ffebee" stroke-width="1" rx="4" opacity="1"/>
<text x="160" y="284" font-size="12" fill="#1e1e1e" text-anchor="start" class="excalidraw-text" opacity="1">Figyelmeztetés</text>
</svg>