<svg xmlns="http://www.w3.org/2000/svg" viewBox="120 -20 1080 1575" class="w-full h-auto">
<defs>
<style>.excalidraw-text { font-family: Segoe UI, Arial, sans-serif; }</style>
<marker id="ah" markerWidth="10" markerHeight="10" refX="9" refY="3" orient="auto">
<polygon points="0 0, 10 3, 0 6" fill="#1e1e1e"/>
</marker>
</defs>
<rect x="120" y="-20" width="1080" height="1575" fill="#ffffff"/>
<text x="700" y="38" font-size="18" fill="#1e1e1e" text-anchor="middle" class="excalidraw-text" opacity="1">KGC ERP - Értékesítés Folyamat</text>
<text x="700" y="59.599999999999994" font-size="18" fill="#1e1e1e" text-anchor="middle" class="excalidraw-text" opacity="1">2. rész: Cikk kezelés és Eladás</text>
<ellipse cx="620" cy="115" rx="60" ry="25" stroke="#1976d2" fill="#e3f2fd" stroke-width="2" opacity="1"/>
<text x="620" y="119" font-size="14" fill="#1e1e1e" text-anchor="middle" class="excalidraw-text" opacity="1">Kezdés</text>
<polygon points="620,180 720,230 620,280 520,230" stroke="#f57c00" fill="#fff3e0" stroke-width="2" opacity="1"/>
<text x="620" y="222" font-size="12" fill="#1e1e1e" text-anchor="middle" class="excalidraw-text" opacity="1">Cikk létezik</text>
<text x="620" y="236.4" font-size="12" fill="#1e1e1e" text-anchor="middle" class="excalidraw-text" opacity="1">a rendszerben?</text>
<path d="M 620 140 L 620 180" stroke="#1976d2" fill="none" stroke-width="2" marker-end="url(#ah)" opacity="1"/>
<rect x="160" y="200" width="180" height="60" stroke="#388e3c" fill="#e8f5e9" stroke-width="2" rx="0" opacity="1"/>
<text x="250" y="229" font-size="14" fill="#1e1e1e" text-anchor="middle" class="excalidraw-text" opacity="1">Új cikk felvétele</text>
<path d="M 520 230 L 340 230" stroke="#d32f2f" fill="none" stroke-width="2" marker-end="url(#ah)" opacity="1"/>
<text x="420" y="216" font-size="11" fill="#d32f2f" text-anchor="middle" class="excalidraw-text" opacity="1">NEM</text>
<rect x="160" y="300" width="180" height="60" stroke="#1976d2" fill="#e3f2fd" stroke-width="2" rx="0" opacity="1"/>
<text x="250" y="328" font-size="13" fill="#1e1e1e" text-anchor="middle" class="excalidraw-text" opacity="1">Cikkcsoport választás</text>
<path d="M 250 260 L 250 300" stroke="#1976d2" fill="none" stroke-width="2" marker-end="url(#ah)" opacity="1"/>
<rect x="160" y="400" width="180" height="60" stroke="#1976d2" fill="#e3f2fd" stroke-width="2" rx="0" opacity="1"/>
<text x="250" y="428" font-size="13" fill="#1e1e1e" text-anchor="middle" class="excalidraw-text" opacity="1">Beszállító megadása</text>
<path d="M 250 360 L 250 400" stroke="#1976d2" fill="none" stroke-width="2" marker-end="url(#ah)" opacity="1"/>
<rect x="160" y="500" width="180" height="60" stroke="#1976d2" fill="#e3f2fd" stroke-width="2" rx="0" opacity="1"/>
<text x="250" y="523" font-size="13" fill="#1e1e1e" text-anchor="middle" class="excalidraw-text" opacity="1">Vonalkód + ÁFA</text>
<text x="250" y="538.6" font-size="13" fill="#1e1e1e" text-anchor="middle" class="excalidraw-text" opacity="1">beállítás</text>
<path d="M 250 460 L 250 500" stroke="#1976d2" fill="none" stroke-width="2" marker-end="url(#ah)" opacity="1"/>
<rect x="160" y="600" width="180" height="60" stroke="#388e3c" fill="#c8e6c9" stroke-width="2" rx="0" opacity="1"/>
<text x="250" y="629" font-size="14" fill="#1e1e1e" text-anchor="middle" class="excalidraw-text" opacity="1">Cikk rögzítése</text>
<path d="M 250 560 L 250 600" stroke="#1976d2" fill="none" stroke-width="2" marker-end="url(#ah)" opacity="1"/>
<rect x="520" y="340" width="200" height="70" stroke="#7b1fa2" fill="#f3e5f5" stroke-width="2" rx="0" opacity="1"/>
<text x="620" y="364" font-size="14" fill="#1e1e1e" text-anchor="middle" class="excalidraw-text" opacity="1">Bevételezés</text>
<text x="620" y="380.8" font-size="14" fill="#1e1e1e" text-anchor="middle" class="excalidraw-text" opacity="1">(Beszállítói számla)</text>
<path d="M 620 280 L 620 340" stroke="#388e3c" fill="none" stroke-width="2" marker-end="url(#ah)" opacity="1"/>
<text x="650" y="306" font-size="11" fill="#388e3c" text-anchor="middle" class="excalidraw-text" opacity="1">IGEN</text>
<path d="M 340 630 L 520 630 L 520 375" stroke="#1976d2" fill="none" stroke-width="2" marker-end="url(#ah)" opacity="1"/>
<rect x="520" y="460" width="200" height="60" stroke="#1976d2" fill="#e3f2fd" stroke-width="2" rx="0" opacity="1"/>
<text x="620" y="487" font-size="12" fill="#1e1e1e" text-anchor="middle" class="excalidraw-text" opacity="1">Számla adatok megadása</text>
<path d="M 620 410 L 620 460" stroke="#1976d2" fill="none" stroke-width="2" marker-end="url(#ah)" opacity="1"/>
<rect x="520" y="560" width="200" height="60" stroke="#1976d2" fill="#e3f2fd" stroke-width="2" rx="0" opacity="1"/>
<text x="620" y="581" font-size="11" fill="#1e1e1e" text-anchor="middle" class="excalidraw-text" opacity="1">Tételek hozzáadása</text>
<text x="620" y="594.2" font-size="11" fill="#1e1e1e" text-anchor="middle" class="excalidraw-text" opacity="1">(cikkszám + mennyiség)</text>
<path d="M 620 520 L 620 560" stroke="#1976d2" fill="none" stroke-width="2" marker-end="url(#ah)" opacity="1"/>
<polygon points="620,660 720,710 620,760 520,710" stroke="#f57c00" fill="#fff3e0" stroke-width="2" opacity="1"/>
<text x="620" y="703" font-size="13" fill="#1e1e1e" text-anchor="middle" class="excalidraw-text" opacity="1">Összeg</text>
<text x="620" y="718.6" font-size="13" fill="#1e1e1e" text-anchor="middle" class="excalidraw-text" opacity="1">egyezik?</text>
<path d="M 620 620 L 620 660" stroke="#1976d2" fill="none" stroke-width="2" marker-end="url(#ah)" opacity="1"/>
<rect x="520" y="810" width="200" height="60" stroke="#388e3c" fill="#c8e6c9" stroke-width="2" rx="0" opacity="1"/>
<text x="620" y="838" font-size="13" fill="#1e1e1e" text-anchor="middle" class="excalidraw-text" opacity="1">Bevételezés rögzítése</text>
<path d="M 620 760 L 620 810" stroke="#388e3c" fill="none" stroke-width="2" marker-end="url(#ah)" opacity="1"/>
<text x="645" y="786" font-size="11" fill="#388e3c" text-anchor="middle" class="excalidraw-text" opacity="1">OK</text>
<rect x="780" y="680" width="160" height="60" stroke="#d32f2f" fill="#ffebee" stroke-width="2" rx="0" opacity="1"/>
<text x="860" y="707" font-size="12" fill="#1e1e1e" text-anchor="middle" class="excalidraw-text" opacity="1">Javítás szükséges</text>
<path d="M 720 710 L 780 710" stroke="#d32f2f" fill="none" stroke-width="2" marker-end="url(#ah)" opacity="1"/>
<path d="M 860 680 L 860 590 L 720 590" stroke="#d32f2f" fill="none" stroke-width="2" marker-end="url(#ah)" opacity="1"/>
<rect x="520" y="920" width="200" height="60" stroke="#616161" fill="#e0e0e0" stroke-width="2" rx="0" opacity="1"/>
<text x="620" y="949" font-size="14" fill="#1e1e1e" text-anchor="middle" class="excalidraw-text" opacity="1">Készlet frissül</text>
<path d="M 620 870 L 620 920" stroke="#1976d2" fill="none" stroke-width="2" marker-end="url(#ah)" opacity="1"/>
<polygon points="620,1020 720,1070 620,1120 520,1070" stroke="#f57c00" fill="#fff3e0" stroke-width="2" opacity="1"/>
<text x="620" y="1062" font-size="12" fill="#1e1e1e" text-anchor="middle" class="excalidraw-text" opacity="1">Nagy céges</text>
<text x="620" y="1076.4" font-size="12" fill="#1e1e1e" text-anchor="middle" class="excalidraw-text" opacity="1">cikkszám kell?</text>
<path d="M 620 980 L 620 1020" stroke="#1976d2" fill="none" stroke-width="2" marker-end="url(#ah)" opacity="1"/>
<rect x="780" y="1040" width="200" height="60" stroke="#7b1fa2" fill="#f3e5f5" stroke-width="2" rx="0" opacity="1"/>
<text x="880" y="1061" font-size="11" fill="#1e1e1e" text-anchor="middle" class="excalidraw-text" opacity="1">Készlet átcsoportosítás</text>
<text x="880" y="1074.2" font-size="11" fill="#1e1e1e" text-anchor="middle" class="excalidraw-text" opacity="1">(- eredeti / + új cikksz.)</text>
<path d="M 720 1070 L 780 1070" stroke="#7b1fa2" fill="none" stroke-width="2" marker-end="url(#ah)" opacity="1"/>
<text x="750" y="1055" font-size="10" fill="#7b1fa2" text-anchor="middle" class="excalidraw-text" opacity="1">IGEN</text>
<rect x="520" y="1180" width="200" height="70" stroke="#388e3c" fill="#c8e6c9" stroke-width="2" rx="0" opacity="1"/>
<text x="620" y="1208" font-size="13" fill="#1e1e1e" text-anchor="middle" class="excalidraw-text" opacity="1">Értékesítés</text>
<text x="620" y="1223.6" font-size="13" fill="#1e1e1e" text-anchor="middle" class="excalidraw-text" opacity="1">(Partner + cikkszám)</text>
<path d="M 620 1120 L 620 1180" stroke="#388e3c" fill="none" stroke-width="2" marker-end="url(#ah)" opacity="1"/>
<text x="645" y="1145" font-size="10" fill="#388e3c" text-anchor="middle" class="excalidraw-text" opacity="1">NEM</text>
<path d="M 880 1100 L 880 1200 L 720 1200" stroke="#1976d2" fill="none" stroke-width="2" marker-end="url(#ah)" opacity="1"/>
<rect x="520" y="1300" width="200" height="60" stroke="#1565c0" fill="#90caf9" stroke-width="2" rx="0" opacity="1"/>
<text x="620" y="1329" font-size="14" fill="#1e1e1e" text-anchor="middle" class="excalidraw-text" opacity="1">Számla kiállítása</text>
<path d="M 620 1250 L 620 1300" stroke="#1976d2" fill="none" stroke-width="2" marker-end="url(#ah)" opacity="1"/>
<ellipse cx="620" cy="1425" rx="60" ry="25" stroke="#1976d2" fill="#e3f2fd" stroke-width="2" opacity="1"/>
<text x="620" y="1429" font-size="14" fill="#1e1e1e" text-anchor="middle" class="excalidraw-text" opacity="1">Vége</text>
<path d="M 620 1360 L 620 1400" stroke="#1976d2" fill="none" stroke-width="2" marker-end="url(#ah)" opacity="1"/>
<rect x="900" y="100" width="260" height="280" stroke="#616161" fill="#fafafa" stroke-width="1" rx="0" opacity="1"/>
<text x="1030" y="127" font-size="12" fill="#1e1e1e" text-anchor="middle" class="excalidraw-text" opacity="1">JELMAGYARÁZAT</text>
<rect x="920" y="150" width="25" height="18" stroke="#388e3c" fill="#e8f5e9" stroke-width="2" rx="0" opacity="1"/>
<text x="955" y="163" font-size="11" fill="#1e1e1e" text-anchor="start" class="excalidraw-text" opacity="1">Új cikk felvétel</text>
<rect x="920" y="180" width="25" height="18" stroke="#7b1fa2" fill="#f3e5f5" stroke-width="2" rx="0" opacity="1"/>
<text x="955" y="193" font-size="11" fill="#1e1e1e" text-anchor="start" class="excalidraw-text" opacity="1">Bevételezés / Átcsoportosítás</text>
<rect x="920" y="210" width="25" height="18" stroke="#1976d2" fill="#e3f2fd" stroke-width="2" rx="0" opacity="1"/>
<text x="955" y="223" font-size="11" fill="#1e1e1e" text-anchor="start" class="excalidraw-text" opacity="1">Folyamat lépés</text>
<polygon points="932.5,240 945,250 932.5,260 920,250" stroke="#f57c00" fill="#fff3e0" stroke-width="2" opacity="1"/>
<text x="955" y="254" font-size="11" fill="#1e1e1e" text-anchor="start" class="excalidraw-text" opacity="1">Döntési pont</text>
<rect x="920" y="275" width="25" height="18" stroke="#388e3c" fill="#c8e6c9" stroke-width="2" rx="0" opacity="1"/>
<text x="955" y="288" font-size="11" fill="#1e1e1e" text-anchor="start" class="excalidraw-text" opacity="1">Fontos művelet</text>
<rect x="920" y="305" width="25" height="18" stroke="#d32f2f" fill="#ffebee" stroke-width="2" rx="0" opacity="1"/>
<text x="955" y="318" font-size="11" fill="#1e1e1e" text-anchor="start" class="excalidraw-text" opacity="1">Hiba / Javítás</text>
<rect x="920" y="335" width="25" height="18" stroke="#1565c0" fill="#90caf9" stroke-width="2" rx="0" opacity="1"/>
<text x="955" y="348" font-size="11" fill="#1e1e1e" text-anchor="start" class="excalidraw-text" opacity="1">Számlázás</text>
<text x="620" y="1491" font-size="11" fill="#616161" text-anchor="middle" class="excalidraw-text" opacity="1">KGC ERP - Értékesítés Folyamat v1.0</text>
<text x="620" y="1504.2" font-size="11" fill="#616161" text-anchor="middle" class="excalidraw-text" opacity="1">2. rész: Cikk kezelés és Eladás</text>
</svg>