<svg xmlns="http://www.w3.org/2000/svg" viewBox="45 -20 795 1330" class="w-full h-auto">
<defs>
<style>.excalidraw-text { font-family: Segoe UI, Arial, sans-serif; }</style>
<marker id="ah" markerWidth="10" markerHeight="10" refX="9" refY="3" orient="auto">
<polygon points="0 0, 10 3, 0 6" fill="#1e1e1e"/>
</marker>
</defs>
<rect x="45" y="-20" width="795" height="1330" fill="#ffffff"/>
<text x="600" y="56" font-size="36" fill="#1976d2" text-anchor="middle" class="excalidraw-text" opacity="1">KGC ERP v2.0 - Szerviz Folyamat 📶🏢</text>
<ellipse cx="170" cy="125" rx="70" ry="25" stroke="#2e7d32" fill="#c8e6c9" stroke-width="2" opacity="1"/>
<text x="170" y="126" font-size="14" fill="#1b5e20" text-anchor="middle" class="excalidraw-text" opacity="1">Ügyfél érkezik</text>
<text x="170" y="142.8" font-size="14" fill="#1b5e20" text-anchor="middle" class="excalidraw-text" opacity="1">géppel</text>
<rect x="100" y="180" width="140" height="60" stroke="#1976d2" fill="#e3f2fd" stroke-width="2" rx="0" opacity="1"/>
<text x="170" y="206" font-size="14" fill="#0d47a1" text-anchor="middle" class="excalidraw-text" opacity="1">Gép adatok</text>
<text x="170" y="222.8" font-size="14" fill="#0d47a1" text-anchor="middle" class="excalidraw-text" opacity="1">felvétele</text>
<path d="M 170 150 L 170 180" stroke="#424242" fill="none" stroke-width="2" opacity="1"/>
<rect x="100" y="270" width="140" height="60" stroke="#1976d2" fill="#e3f2fd" stroke-width="2" rx="0" opacity="1"/>
<text x="170" y="296" font-size="14" fill="#0d47a1" text-anchor="middle" class="excalidraw-text" opacity="1">Munkalap</text>
<text x="170" y="312.8" font-size="14" fill="#0d47a1" text-anchor="middle" class="excalidraw-text" opacity="1">generálás</text>
<path d="M 170 240 L 170 270" stroke="#424242" fill="none" stroke-width="2" opacity="1"/>
<rect x="100" y="360" width="140" height="60" stroke="#6a1b9a" fill="#f3e5f5" stroke-width="2" rx="0" opacity="1"/>
<text x="170" y="386" font-size="14" fill="#4a148c" text-anchor="middle" class="excalidraw-text" opacity="1">Vonalkód matrica</text>
<text x="170" y="402.8" font-size="14" fill="#4a148c" text-anchor="middle" class="excalidraw-text" opacity="1">nyomtatás</text>
<path d="M 170 330 L 170 360" stroke="#424242" fill="none" stroke-width="2" opacity="1"/>
<rect x="100" y="450" width="140" height="60" stroke="#1976d2" fill="#e3f2fd" stroke-width="2" rx="0" opacity="1"/>
<text x="170" y="476" font-size="14" fill="#0d47a1" text-anchor="middle" class="excalidraw-text" opacity="1">Gép átadása</text>
<text x="170" y="492.8" font-size="14" fill="#0d47a1" text-anchor="middle" class="excalidraw-text" opacity="1">szerviznek</text>
<path d="M 170 420 L 170 450" stroke="#424242" fill="none" stroke-width="2" opacity="1"/>
<rect x="100" y="540" width="140" height="60" stroke="#e65100" fill="#fff3e0" stroke-width="2" rx="0" opacity="1"/>
<text x="170" y="566" font-size="14" fill="#bf360c" text-anchor="middle" class="excalidraw-text" opacity="1">Diagnosztika</text>
<text x="170" y="582.8" font-size="14" fill="#bf360c" text-anchor="middle" class="excalidraw-text" opacity="1">és javítás</text>
<path d="M 170 510 L 170 540" stroke="#424242" fill="none" stroke-width="2" opacity="1"/>
<polygon points="170,630 255,670 170,710 85,670" stroke="#c62828" fill="#ffebee" stroke-width="2" opacity="1"/>
<text x="170" y="669" font-size="14" fill="#b71c1c" text-anchor="middle" class="excalidraw-text" opacity="1">Drága javítás?</text>
<path d="M 170 600 L 170 630" stroke="#424242" fill="none" stroke-width="2" opacity="1"/>
<rect x="300" y="640" width="140" height="60" stroke="#f57c00" fill="#fff8e1" stroke-width="2" rx="0" opacity="1"/>
<text x="370" y="666" font-size="14" fill="#e65100" text-anchor="middle" class="excalidraw-text" opacity="1">Árajánlat</text>
<text x="370" y="682.8" font-size="14" fill="#e65100" text-anchor="middle" class="excalidraw-text" opacity="1">készítés</text>
<path d="M 255 670 L 300 670" stroke="#424242" fill="none" stroke-width="2" opacity="1"/>
<text x="280" y="662" font-size="12" fill="#2e7d32" text-anchor="middle" class="excalidraw-text" opacity="1">Igen</text>
<polygon points="370,730 455,770 370,810 285,770" stroke="#c62828" fill="#ffebee" stroke-width="2" opacity="1"/>
<text x="370" y="769" font-size="14" fill="#b71c1c" text-anchor="middle" class="excalidraw-text" opacity="1">Elfogadva?</text>
<path d="M 370 700 L 370 730" stroke="#424242" fill="none" stroke-width="2" opacity="1"/>
<rect x="500" y="740" width="140" height="60" stroke="#c62828" fill="#ffcdd2" stroke-width="2" rx="0" opacity="1"/>
<text x="570" y="766" font-size="14" fill="#b71c1c" text-anchor="middle" class="excalidraw-text" opacity="1">Gép visszaadás</text>
<text x="570" y="782.8" font-size="14" fill="#b71c1c" text-anchor="middle" class="excalidraw-text" opacity="1">javítás nélkül</text>
<path d="M 455 770 L 500 770" stroke="#424242" fill="none" stroke-width="2" opacity="1"/>
<text x="480" y="762" font-size="12" fill="#c62828" text-anchor="middle" class="excalidraw-text" opacity="1">Nem</text>
<rect x="100" y="750" width="140" height="60" stroke="#2e7d32" fill="#c8e6c9" stroke-width="2" rx="0" opacity="1"/>
<text x="170" y="776" font-size="14" fill="#1b5e20" text-anchor="middle" class="excalidraw-text" opacity="1">Javítás</text>
<text x="170" y="792.8" font-size="14" fill="#1b5e20" text-anchor="middle" class="excalidraw-text" opacity="1">elkészült</text>
<path d="M 170 710 L 170 750" stroke="#424242" fill="none" stroke-width="2" opacity="1"/>
<text x="190" y="732" font-size="12" fill="#c62828" text-anchor="middle" class="excalidraw-text" opacity="1">Nem</text>
<path d="M 370 810 L 370 850" stroke="#424242" fill="none" stroke-width="2" opacity="1"/>
<path d="M 370 850 L 240 850" stroke="#424242" fill="none" stroke-width="2" opacity="1"/>
<path d="M 240 850 L 240 810" stroke="#424242" fill="none" stroke-width="2" opacity="1"/>
<text x="390" y="832" font-size="12" fill="#2e7d32" text-anchor="middle" class="excalidraw-text" opacity="1">Igen</text>
<polygon points="170,840 255,880 170,920 85,880" stroke="#c62828" fill="#ffebee" stroke-width="2" opacity="1"/>
<text x="170" y="879" font-size="14" fill="#b71c1c" text-anchor="middle" class="excalidraw-text" opacity="1">Nagy céges</text>
<text x="170" y="895.8" font-size="14" fill="#b71c1c" text-anchor="middle" class="excalidraw-text" opacity="1">ügyfél?</text>
<path d="M 170 810 L 170 840" stroke="#424242" fill="none" stroke-width="2" opacity="1"/>
<rect x="100" y="950" width="140" height="60" stroke="#1976d2" fill="#e3f2fd" stroke-width="2" rx="0" opacity="1"/>
<text x="170" y="976" font-size="14" fill="#0d47a1" text-anchor="middle" class="excalidraw-text" opacity="1">Normál</text>
<text x="170" y="992.8" font-size="14" fill="#0d47a1" text-anchor="middle" class="excalidraw-text" opacity="1">számlázás</text>
<path d="M 170 920 L 170 950" stroke="#424242" fill="none" stroke-width="2" opacity="1"/>
<text x="190" y="937" font-size="12" fill="#c62828" text-anchor="middle" class="excalidraw-text" opacity="1">Nem</text>
<rect x="300" y="860" width="160" height="60" stroke="#7b1fa2" fill="#f3e5f5" stroke-width="2" rx="0" opacity="1"/>
<text x="380" y="886" font-size="14" fill="#4a148c" text-anchor="middle" class="excalidraw-text" opacity="1">Nullás kifuttatás</text>
<text x="380" y="902.8" font-size="14" fill="#4a148c" text-anchor="middle" class="excalidraw-text" opacity="1">(tételek 0 Ft)</text>
<path d="M 255 880 L 300 880" stroke="#424242" fill="none" stroke-width="2" opacity="1"/>
<text x="280" y="872" font-size="12" fill="#2e7d32" text-anchor="middle" class="excalidraw-text" opacity="1">Igen</text>
<rect x="300" y="950" width="160" height="60" stroke="#f57c00" fill="#fff8e1" stroke-width="2" rx="0" opacity="1"/>
<text x="380" y="976" font-size="14" fill="#e65100" text-anchor="middle" class="excalidraw-text" opacity="1">Árajánlat küldés</text>
<text x="380" y="992.8" font-size="14" fill="#e65100" text-anchor="middle" class="excalidraw-text" opacity="1">nagycégnek</text>
<path d="M 380 920 L 380 950" stroke="#424242" fill="none" stroke-width="2" opacity="1"/>
<rect x="300" y="1040" width="160" height="60" stroke="#0288d1" fill="#e1f5fe" stroke-width="2" rx="0" opacity="1"/>
<text x="380" y="1066" font-size="14" fill="#01579b" text-anchor="middle" class="excalidraw-text" opacity="1">Megrendelő +</text>
<text x="380" y="1082.8" font-size="14" fill="#01579b" text-anchor="middle" class="excalidraw-text" opacity="1">Teljesítésigazolás</text>
<path d="M 380 1010 L 380 1040" stroke="#424242" fill="none" stroke-width="2" opacity="1"/>
<rect x="300" y="1130" width="160" height="60" stroke="#2e7d32" fill="#c8e6c9" stroke-width="2" rx="0" opacity="1"/>
<text x="380" y="1156" font-size="14" fill="#1b5e20" text-anchor="middle" class="excalidraw-text" opacity="1">Hivatalos számla</text>
<text x="380" y="1172.8" font-size="14" fill="#1b5e20" text-anchor="middle" class="excalidraw-text" opacity="1">(1 összeg + melléklet)</text>
<path d="M 380 1100 L 380 1130" stroke="#424242" fill="none" stroke-width="2" opacity="1"/>
<ellipse cx="170" cy="1075" rx="70" ry="25" stroke="#c62828" fill="#ffcdd2" stroke-width="2" opacity="1"/>
<text x="170" y="1079" font-size="14" fill="#b71c1c" text-anchor="middle" class="excalidraw-text" opacity="1">Gép kiadva</text>
<path d="M 170 1010 L 170 1050" stroke="#424242" fill="none" stroke-width="2" opacity="1"/>
<ellipse cx="380" cy="1245" rx="70" ry="25" stroke="#c62828" fill="#ffcdd2" stroke-width="2" opacity="1"/>
<text x="380" y="1249" font-size="14" fill="#b71c1c" text-anchor="middle" class="excalidraw-text" opacity="1">Gép kiadva</text>
<path d="M 380 1190 L 380 1220" stroke="#424242" fill="none" stroke-width="2" opacity="1"/>
<rect x="550" y="100" width="200" height="120" stroke="#795548" fill="#efebe9" stroke-width="1" rx="0" opacity="1"/>
<text x="560" y="122" font-size="12" fill="#4e342e" text-anchor="start" class="excalidraw-text" opacity="1">Munkalap adatok:</text>
<text x="560" y="136.4" font-size="12" fill="#4e342e" text-anchor="start" class="excalidraw-text" opacity="1">- Munkalap szám</text>
<text x="560" y="150.8" font-size="12" fill="#4e342e" text-anchor="start" class="excalidraw-text" opacity="1">- Gép azonosító</text>
<text x="560" y="165.2" font-size="12" fill="#4e342e" text-anchor="start" class="excalidraw-text" opacity="1">- Géptípus</text>
<text x="560" y="179.6" font-size="12" fill="#4e342e" text-anchor="start" class="excalidraw-text" opacity="1">- Probléma leírás</text>
<text x="560" y="194" font-size="12" fill="#4e342e" text-anchor="start" class="excalidraw-text" opacity="1">- Felvevő személy</text>
<rect x="550" y="250" width="200" height="100" stroke="#795548" fill="#efebe9" stroke-width="1" rx="0" opacity="1"/>
<text x="560" y="272" font-size="12" fill="#4e342e" text-anchor="start" class="excalidraw-text" opacity="1">Státuszok:</text>
<text x="560" y="286.4" font-size="12" fill="#4e342e" text-anchor="start" class="excalidraw-text" opacity="1">- Felvéve</text>
<text x="560" y="300.8" font-size="12" fill="#4e342e" text-anchor="start" class="excalidraw-text" opacity="1">- Árajánlat</text>
<text x="560" y="315.2" font-size="12" fill="#4e342e" text-anchor="start" class="excalidraw-text" opacity="1">- Javítás alatt</text>
<text x="560" y="329.6" font-size="12" fill="#4e342e" text-anchor="start" class="excalidraw-text" opacity="1">- Számlázható</text>
<rect x="550" y="950" width="220" height="140" stroke="#d84315" fill="#fbe9e7" stroke-width="2" rx="0" opacity="1"/>
<text x="560" y="972" font-size="12" fill="#bf360c" text-anchor="start" class="excalidraw-text" opacity="1">FONTOS:</text>
<text x="560" y="986.4" font-size="12" fill="#bf360c" text-anchor="start" class="excalidraw-text" opacity="1">Nullás kifuttatás azért</text>
<text x="560" y="1000.8" font-size="12" fill="#bf360c" text-anchor="start" class="excalidraw-text" opacity="1">kell, mert a tételeket</text>
<text x="560" y="1015.2" font-size="12" fill="#bf360c" text-anchor="start" class="excalidraw-text" opacity="1">NEM veszik le készletről!</text>
<text x="560" y="1029.6" font-size="12" fill="#bf360c" text-anchor="start" class="excalidraw-text" opacity="1"></text>
<text x="560" y="1044" font-size="12" fill="#bf360c" text-anchor="start" class="excalidraw-text" opacity="1">Csak követhetőség miatt</text>
<text x="560" y="1058.4" font-size="12" fill="#bf360c" text-anchor="start" class="excalidraw-text" opacity="1">rögzítik a rendszerben.</text>
<rect x="550" y="450" width="200" height="180" stroke="#616161" fill="#fafafa" stroke-width="1" rx="0" opacity="1"/>
<text x="650" y="474" font-size="14" fill="#424242" text-anchor="middle" class="excalidraw-text" opacity="1">Jelmagyarázat</text>
<rect x="560" y="490" width="20" height="15" stroke="#1976d2" fill="#e3f2fd" stroke-width="1" rx="0" opacity="1"/>
<text x="590" y="501" font-size="11" fill="#424242" text-anchor="start" class="excalidraw-text" opacity="1">Folyamat lépés</text>
<polygon points="570,515 585,525 570,535 555,525" stroke="#c62828" fill="#ffebee" stroke-width="1" opacity="1"/>
<text x="590" y="529" font-size="11" fill="#424242" text-anchor="start" class="excalidraw-text" opacity="1">Döntési pont</text>
<rect x="560" y="545" width="20" height="15" stroke="#7b1fa2" fill="#f3e5f5" stroke-width="1" rx="0" opacity="1"/>
<text x="590" y="556" font-size="11" fill="#424242" text-anchor="start" class="excalidraw-text" opacity="1">Nagy céges folyamat</text>
<rect x="560" y="570" width="20" height="15" stroke="#f57c00" fill="#fff8e1" stroke-width="1" rx="0" opacity="1"/>
<text x="590" y="581" font-size="11" fill="#424242" text-anchor="start" class="excalidraw-text" opacity="1">Árajánlat</text>
<ellipse cx="570" cy="602.5" rx="10" ry="7.5" stroke="#2e7d32" fill="#c8e6c9" stroke-width="1" opacity="1"/>
<text x="590" y="606" font-size="11" fill="#424242" text-anchor="start" class="excalidraw-text" opacity="1">Kezdet/Vég</text>
</svg>