<svg xmlns="http://www.w3.org/2000/svg" viewBox="0 -20 1500 750" class="w-full h-auto">
<defs>
<style>.excalidraw-text { font-family: Segoe UI, Arial, sans-serif; }</style>
<marker id="ah" markerWidth="12" markerHeight="8" refX="10" refY="4" orient="auto" markerUnits="strokeWidth">
<polygon points="0 0, 12 4, 0 8" fill="#1e1e1e"/>
</marker>
<marker id="ah-blue" markerWidth="12" markerHeight="8" refX="10" refY="4" orient="auto" markerUnits="strokeWidth">
<polygon points="0 0, 12 4, 0 8" fill="#1976d2"/>
</marker>
<marker id="ah-green" markerWidth="12" markerHeight="8" refX="10" refY="4" orient="auto" markerUnits="strokeWidth">
<polygon points="0 0, 12 4, 0 8" fill="#388e3c"/>
</marker>
<marker id="ah-orange" markerWidth="12" markerHeight="8" refX="10" refY="4" orient="auto" markerUnits="strokeWidth">
<polygon points="0 0, 12 4, 0 8" fill="#f57c00"/>
</marker>
</defs>
<rect x="0" y="-20" width="1500" height="750" fill="#ffffff"/>
<rect x="40" y="20" width="1200" height="60" stroke="#1976d2" fill="#e3f2fd" stroke-width="2" rx="8" opacity="1"/>
<text x="940" y="78" font-size="28" fill="#1976d2" text-anchor="middle" class="excalidraw-text" opacity="1">KGC ERP DATA FLOW DIAGRAM (DFD Level 1)</text>
<rect x="80" y="120" width="180" height="100" stroke="#1e1e1e" fill="#ffffff" stroke-width="2" rx="0" opacity="1"/>
<text x="230" y="186" font-size="16" fill="#1e1e1e" text-anchor="middle" class="excalidraw-text" opacity="1">E1: KGC ERP</text>
<text x="230" y="205.2" font-size="16" fill="#1e1e1e" text-anchor="middle" class="excalidraw-text" opacity="1">Modules</text>
<ellipse cx="500" cy="170" rx="100" ry="50" stroke="#1976d2" fill="#e3f2fd" stroke-width="2" opacity="1"/>
<text x="570" y="184" font-size="14" fill="#1e1e1e" text-anchor="middle" class="excalidraw-text" opacity="1">1.0 Integration</text>
<text x="570" y="200.8" font-size="14" fill="#1e1e1e" text-anchor="middle" class="excalidraw-text" opacity="1">Layer</text>
<ellipse cx="250" cy="365" rx="90" ry="45" stroke="#7b1fa2" fill="#f3e5f5" stroke-width="2" opacity="1"/>
<text x="310" y="369" font-size="14" fill="#1e1e1e" text-anchor="middle" class="excalidraw-text" opacity="1">2.0 Support</text>
<text x="310" y="385.8" font-size="14" fill="#1e1e1e" text-anchor="middle" class="excalidraw-text" opacity="1">Plugin</text>
<ellipse cx="500" cy="365" rx="80" ry="45" stroke="#7b1fa2" fill="#f3e5f5" stroke-width="2" opacity="1"/>
<text x="550" y="369" font-size="14" fill="#1e1e1e" text-anchor="middle" class="excalidraw-text" opacity="1">3.0 CRM</text>
<text x="550" y="385.8" font-size="14" fill="#1e1e1e" text-anchor="middle" class="excalidraw-text" opacity="1">Plugin</text>
<ellipse cx="730" cy="365" rx="80" ry="45" stroke="#7b1fa2" fill="#f3e5f5" stroke-width="2" opacity="1"/>
<text x="775" y="369" font-size="14" fill="#1e1e1e" text-anchor="middle" class="excalidraw-text" opacity="1">4.0 HR</text>
<text x="775" y="385.8" font-size="14" fill="#1e1e1e" text-anchor="middle" class="excalidraw-text" opacity="1">Plugin</text>
<rect x="400" y="520" width="200" height="50" stroke="#388e3c" fill="#e8f5e9" stroke-width="2" rx="0" opacity="1"/>
<text x="565" y="544" font-size="14" fill="#1e1e1e" text-anchor="middle" class="excalidraw-text" opacity="1">D1: KGC Core DB</text>
<rect x="100" y="520" width="180" height="50" stroke="#388e3c" fill="#e8f5e9" stroke-width="2" rx="0" opacity="1"/>
<text x="250" y="544" font-size="14" fill="#1e1e1e" text-anchor="middle" class="excalidraw-text" opacity="1">D2: Chatwoot DB</text>
<rect x="340" y="620" width="160" height="50" stroke="#388e3c" fill="#e8f5e9" stroke-width="2" rx="0" opacity="1"/>
<text x="465" y="644" font-size="14" fill="#1e1e1e" text-anchor="middle" class="excalidraw-text" opacity="1">D3: Twenty DB</text>
<rect x="540" y="620" width="160" height="50" stroke="#388e3c" fill="#e8f5e9" stroke-width="2" rx="0" opacity="1"/>
<text x="665" y="644" font-size="14" fill="#1e1e1e" text-anchor="middle" class="excalidraw-text" opacity="1">D4: Horilla DB</text>
<rect x="900" y="320" width="160" height="90" stroke="#1e1e1e" fill="#ffffff" stroke-width="2" rx="0" opacity="1"/>
<text x="1030" y="369" font-size="14" fill="#1e1e1e" text-anchor="middle" class="excalidraw-text" opacity="1">E2: Users</text>
<ellipse cx="190" cy="660" rx="90" ry="30" stroke="#d32f2f" fill="#ffebee" stroke-width="2" opacity="1"/>
<text x="240" y="654" font-size="14" fill="#d32f2f" text-anchor="middle" class="excalidraw-text" opacity="1">E3: Gemini API</text>
<path d="M 260 170 L 400 170" stroke="#1976d2" fill="none" stroke-width="2" marker-end="url(#ah-blue)" opacity="1"/>
<path d="M 450 220 L 270 320" stroke="#1976d2" fill="none" stroke-width="2" marker-end="url(#ah-blue)" opacity="1"/>
<path d="M 500 220 L 500 320" stroke="#1976d2" fill="none" stroke-width="2" marker-end="url(#ah-blue)" opacity="1"/>
<path d="M 550 220 L 710 320" stroke="#1976d2" fill="none" stroke-width="2" marker-end="url(#ah-blue)" opacity="1"/>
<path d="M 220 410 L 190 520" stroke="#388e3c" fill="none" stroke-width="2" marker-end="url(#ah-green)" opacity="1"/>
<path d="M 480 410 L 420 620" stroke="#388e3c" fill="none" stroke-width="2" marker-end="url(#ah-green)" opacity="1"/>
<path d="M 710 410 L 630 620" stroke="#388e3c" fill="none" stroke-width="2" marker-end="url(#ah-green)" opacity="1"/>
<path d="M 290 410 L 430 520" stroke="#388e3c" fill="none" stroke-width="2" marker-end="url(#ah-green)" opacity="1"/>
<path d="M 500 410 L 500 520" stroke="#388e3c" fill="none" stroke-width="2" marker-end="url(#ah-green)" opacity="1"/>
<path d="M 720 410 L 540 520" stroke="#388e3c" fill="none" stroke-width="2" marker-end="url(#ah-green)" opacity="1"/>
<path d="M 900 350 L 340 350" stroke="#f57c00" fill="none" stroke-width="2" marker-end="url(#ah-orange)" opacity="1"/>
<path d="M 900 365 L 580 365" stroke="#f57c00" fill="none" stroke-width="2" marker-end="url(#ah-orange)" opacity="1"/>
<path d="M 900 380 L 810 380" stroke="#f57c00" fill="none" stroke-width="2" marker-end="url(#ah-orange)" opacity="1"/>
<path d="M 230 410 L 180 630" stroke="#d32f2f" fill="none" stroke-width="2" marker-end="url(#ah)" opacity="1"/>
</svg>