<svg xmlns="http://www.w3.org/2000/svg" viewBox="140 -20 700 1520" class="w-full h-auto">
<defs>
<style>.excalidraw-text { font-family: Segoe UI, Arial, sans-serif; }</style>
<marker id="ah" markerWidth="12" markerHeight="8" refX="10" refY="4" orient="auto" markerUnits="strokeWidth">
<polygon points="0 0, 12 4, 0 8" fill="#1e1e1e"/>
</marker>
<marker id="ah-blue" markerWidth="12" markerHeight="8" refX="10" refY="4" orient="auto" markerUnits="strokeWidth">
<polygon points="0 0, 12 4, 0 8" fill="#1976d2"/>
</marker>
<marker id="ah-green" markerWidth="12" markerHeight="8" refX="10" refY="4" orient="auto" markerUnits="strokeWidth">
<polygon points="0 0, 12 4, 0 8" fill="#388e3c"/>
</marker>
<marker id="ah-orange" markerWidth="12" markerHeight="8" refX="10" refY="4" orient="auto" markerUnits="strokeWidth">
<polygon points="0 0, 12 4, 0 8" fill="#f57c00"/>
</marker>
</defs>
<rect x="140" y="-20" width="700" height="1520" fill="#ffffff"/>
<text x="420" y="40" font-size="20" fill="#1e1e1e" text-anchor="middle" class="excalidraw-text" opacity="1">Bérlési Folyamat - Inventory v1.0</text>
<text x="420" y="64" font-size="20" fill="#1e1e1e" text-anchor="middle" class="excalidraw-text" opacity="1">Basic Operation (egy location/cikk)</text>
<ellipse cx="400" cy="130" rx="60" ry="30" stroke="#2e7d32" fill="#c8e6c9" stroke-width="2" opacity="1"/>
<text x="400" y="120" font-size="20" fill="#1e1e1e" text-anchor="middle" class="excalidraw-text" opacity="1">START</text>
<rect x="320" y="240" width="160" height="80" stroke="#2e7d32" fill="#c8e6c9" stroke-width="2" rx="8" opacity="1"/>
<text x="400" y="256" font-size="16" fill="#1e1e1e" text-anchor="middle" class="excalidraw-text" opacity="1">Ügyfél bérlési</text>
<text x="400" y="275.2" font-size="16" fill="#1e1e1e" text-anchor="middle" class="excalidraw-text" opacity="1">igény</text>
<polygon points="400,400 470,450 400,500 330,450" stroke="#2e7d32" fill="#c8e6c9" stroke-width="2" opacity="1"/>
<text x="400" y="416" font-size="16" fill="#1e1e1e" text-anchor="middle" class="excalidraw-text" opacity="1">Van elérhető</text>
<text x="400" y="435.2" font-size="16" fill="#1e1e1e" text-anchor="middle" class="excalidraw-text" opacity="1">bérgép?</text>
<rect x="320" y="580" width="160" height="80" stroke="#2e7d32" fill="#c8e6c9" stroke-width="2" rx="8" opacity="1"/>
<text x="400" y="596" font-size="16" fill="#1e1e1e" text-anchor="middle" class="excalidraw-text" opacity="1">Jóváhagyás</text>
<polygon points="400,740 470,790 400,840 330,790" stroke="#2e7d32" fill="#c8e6c9" stroke-width="2" opacity="1"/>
<text x="400" y="756" font-size="16" fill="#1e1e1e" text-anchor="middle" class="excalidraw-text" opacity="1">Jóváhagyva?</text>
<rect x="320" y="920" width="160" height="80" stroke="#2e7d32" fill="#c8e6c9" stroke-width="2" rx="8" opacity="1"/>
<text x="400" y="936" font-size="16" fill="#1e1e1e" text-anchor="middle" class="excalidraw-text" opacity="1">Inventory API call</text>
<rect x="320" y="1080" width="160" height="80" stroke="#2e7d32" fill="#c8e6c9" stroke-width="2" rx="8" opacity="1"/>
<text x="400" y="1096" font-size="16" fill="#1e1e1e" text-anchor="middle" class="excalidraw-text" opacity="1">Szerződés</text>
<rect x="320" y="1240" width="160" height="80" stroke="#2e7d32" fill="#c8e6c9" stroke-width="2" rx="8" opacity="1"/>
<text x="400" y="1256" font-size="16" fill="#1e1e1e" text-anchor="middle" class="excalidraw-text" opacity="1">Kiszállítás</text>
<ellipse cx="400" cy="1430" rx="60" ry="30" stroke="#2e7d32" fill="#c8e6c9" stroke-width="2" opacity="1"/>
<text x="400" y="1420" font-size="20" fill="#1e1e1e" text-anchor="middle" class="excalidraw-text" opacity="1">END</text>
<path d="M 400 170 L 400 230" stroke="#2e7d32" fill="none" stroke-width="2" marker-end="url(#ah)" opacity="1"/>
<path d="M 400 330 L 400 390" stroke="#2e7d32" fill="none" stroke-width="2" marker-end="url(#ah)" opacity="1"/>
<path d="M 400 510 L 400 570" stroke="#2e7d32" fill="none" stroke-width="2" marker-end="url(#ah)" opacity="1"/>
<path d="M 400 670 L 400 730" stroke="#2e7d32" fill="none" stroke-width="2" marker-end="url(#ah)" opacity="1"/>
<path d="M 400 850 L 400 910" stroke="#2e7d32" fill="none" stroke-width="2" marker-end="url(#ah)" opacity="1"/>
<path d="M 400 1010 L 400 1070" stroke="#2e7d32" fill="none" stroke-width="2" marker-end="url(#ah)" opacity="1"/>
<path d="M 400 1170 L 400 1230" stroke="#2e7d32" fill="none" stroke-width="2" marker-end="url(#ah)" opacity="1"/>
<path d="M 400 1330 L 400 1390" stroke="#2e7d32" fill="none" stroke-width="2" marker-end="url(#ah)" opacity="1"/>
<text x="520" y="414" font-size="14" fill="#f57c00" text-anchor="start" class="excalidraw-text" opacity="1">📝 v2.0 Bővítés:</text>
<text x="520" y="430.8" font-size="14" fill="#f57c00" text-anchor="start" class="excalidraw-text" opacity="1">Multi-Location picking javaslat</text>
<text x="520" y="447.6" font-size="14" fill="#f57c00" text-anchor="start" class="excalidraw-text" opacity="1"></text>
<text x="520" y="464.4" font-size="14" fill="#f57c00" text-anchor="start" class="excalidraw-text" opacity="1">Lásd: Feature-Multi-Location-</text>
<text x="520" y="481.2" font-size="14" fill="#f57c00" text-anchor="start" class="excalidraw-text" opacity="1">Kiadas-Flowchart.excalidraw</text>
</svg>