<svg xmlns="http://www.w3.org/2000/svg" viewBox="20 0 920 760" class="w-full h-auto">
<defs>
<style>.excalidraw-text { font-family: Segoe UI, Arial, sans-serif; }</style>
<marker id="ah" markerWidth="12" markerHeight="8" refX="10" refY="4" orient="auto" markerUnits="strokeWidth">
<polygon points="0 0, 12 4, 0 8" fill="#1e1e1e"/>
</marker>
<marker id="ah-blue" markerWidth="12" markerHeight="8" refX="10" refY="4" orient="auto" markerUnits="strokeWidth">
<polygon points="0 0, 12 4, 0 8" fill="#1976d2"/>
</marker>
<marker id="ah-green" markerWidth="12" markerHeight="8" refX="10" refY="4" orient="auto" markerUnits="strokeWidth">
<polygon points="0 0, 12 4, 0 8" fill="#388e3c"/>
</marker>
<marker id="ah-orange" markerWidth="12" markerHeight="8" refX="10" refY="4" orient="auto" markerUnits="strokeWidth">
<polygon points="0 0, 12 4, 0 8" fill="#f57c00"/>
</marker>
</defs>
<rect x="20" y="0" width="920" height="760" fill="#ffffff"/>
<text x="60" y="68" font-size="28" fill="#1e1e1e" text-anchor="start" class="excalidraw-text" opacity="1">KGC HR PLUGIN ARCHITEKTÚRA</text>
<text x="60" y="140" font-size="20" fill="#1976d2" text-anchor="start" class="excalidraw-text" opacity="1">KGC ERP CORE</text>
<rect x="60" y="180" width="180" height="80" stroke="#1976d2" fill="#e3f2fd" stroke-width="2" rx="8" opacity="1"/>
<text x="150" y="196" font-size="16" fill="#1e1e1e" text-anchor="middle" class="excalidraw-text" opacity="1">Bérlés Modul</text>
<rect x="60" y="280" width="180" height="80" stroke="#1976d2" fill="#e3f2fd" stroke-width="2" rx="8" opacity="1"/>
<text x="150" y="296" font-size="16" fill="#1e1e1e" text-anchor="middle" class="excalidraw-text" opacity="1">Értékesítés Modul</text>
<rect x="60" y="380" width="180" height="80" stroke="#1976d2" fill="#e3f2fd" stroke-width="2" rx="8" opacity="1"/>
<text x="150" y="396" font-size="16" fill="#1e1e1e" text-anchor="middle" class="excalidraw-text" opacity="1">Szerviz Modul</text>
<rect x="60" y="480" width="180" height="80" stroke="#1976d2" fill="#e3f2fd" stroke-width="2" rx="8" opacity="1"/>
<text x="150" y="496" font-size="16" fill="#1e1e1e" text-anchor="middle" class="excalidraw-text" opacity="1">Ügyfélkezelés Modul</text>
<text x="320" y="140" font-size="20" fill="#f57c00" text-anchor="start" class="excalidraw-text" opacity="1">INTEGRATION LAYER</text>
<rect x="320" y="280" width="200" height="100" stroke="#f57c00" fill="#fff3e0" stroke-width="2" rx="8" opacity="1"/>
<text x="420" y="296" font-size="16" fill="#1e1e1e" text-anchor="middle" class="excalidraw-text" opacity="1">Plugin Manager</text>
<text x="420" y="315.2" font-size="16" fill="#1e1e1e" text-anchor="middle" class="excalidraw-text" opacity="1"></text>
<text x="420" y="334.4" font-size="16" fill="#1e1e1e" text-anchor="middle" class="excalidraw-text" opacity="1">Webhook Router</text>
<polygon points="420,420 500,470 420,520 340,470" stroke="#f57c00" fill="#fff3e0" stroke-width="2" opacity="1"/>
<text x="420" y="434" font-size="14" fill="#1e1e1e" text-anchor="middle" class="excalidraw-text" opacity="1">HR_MODULE</text>
<text x="420" y="450.8" font-size="14" fill="#1e1e1e" text-anchor="middle" class="excalidraw-text" opacity="1">_ENABLED?</text>
<text x="600" y="140" font-size="20" fill="#1976d2" text-anchor="start" class="excalidraw-text" opacity="1">HR MODULE PLUGIN</text>
<rect x="580" y="160" width="320" height="420" stroke="#1976d2" fill="#f0f7fb" stroke-width="3" rx="12" opacity="1"/>
<text x="600" y="188" font-size="18" fill="#1976d2" text-anchor="start" class="excalidraw-text" opacity="1">Horilla HRMS</text>
<rect x="600" y="220" width="280" height="80" stroke="#f57c00" fill="#fff3e0" stroke-width="2" rx="8" opacity="1"/>
<text x="740" y="234" font-size="14" fill="#1e1e1e" text-anchor="middle" class="excalidraw-text" opacity="1">Django REST Adapter</text>
<text x="740" y="250.8" font-size="14" fill="#1e1e1e" text-anchor="middle" class="excalidraw-text" opacity="1"></text>
<text x="740" y="267.6" font-size="14" fill="#1e1e1e" text-anchor="middle" class="excalidraw-text" opacity="1">(Webhook → REST API Translation)</text>
<rect x="600" y="330" width="130" height="70" stroke="#1976d2" fill="#e3f2fd" stroke-width="2" rx="8" opacity="1"/>
<text x="665" y="344" font-size="14" fill="#1e1e1e" text-anchor="middle" class="excalidraw-text" opacity="1">Attendance</text>
<text x="665" y="360.8" font-size="14" fill="#1e1e1e" text-anchor="middle" class="excalidraw-text" opacity="1">Tracking</text>
<rect x="750" y="330" width="130" height="70" stroke="#1976d2" fill="#e3f2fd" stroke-width="2" rx="8" opacity="1"/>
<text x="815" y="344" font-size="14" fill="#1e1e1e" text-anchor="middle" class="excalidraw-text" opacity="1">Leave</text>
<text x="815" y="360.8" font-size="14" fill="#1e1e1e" text-anchor="middle" class="excalidraw-text" opacity="1">Management</text>
<rect x="600" y="420" width="130" height="70" stroke="#1976d2" fill="#e3f2fd" stroke-width="2" rx="8" opacity="1"/>
<text x="665" y="434" font-size="14" fill="#1e1e1e" text-anchor="middle" class="excalidraw-text" opacity="1">Employee</text>
<text x="665" y="450.8" font-size="14" fill="#1e1e1e" text-anchor="middle" class="excalidraw-text" opacity="1">Profiles</text>
<rect x="750" y="420" width="130" height="70" stroke="#1976d2" fill="#e3f2fd" stroke-width="2" rx="8" opacity="1"/>
<text x="815" y="434" font-size="14" fill="#1e1e1e" text-anchor="middle" class="excalidraw-text" opacity="1">HR Helpdesk</text>
<text x="815" y="450.8" font-size="14" fill="#1e1e1e" text-anchor="middle" class="excalidraw-text" opacity="1">(Ticketing)</text>
<rect x="620" y="520" width="240" height="50" stroke="#388e3c" fill="#e8f5e9" stroke-width="2" rx="0" opacity="1"/>
<text x="740" y="536" font-size="16" fill="#1e1e1e" text-anchor="middle" class="excalidraw-text" opacity="1">PostgreSQL (Horilla DB)</text>
<path d="M 240 220 L 320 330" stroke="#1976d2" fill="none" stroke-width="2" marker-end="url(#ah-blue)" opacity="1"/>
<path d="M 240 320 L 320 330" stroke="#1976d2" fill="none" stroke-width="2" marker-end="url(#ah-blue)" opacity="1"/>
<path d="M 240 420 L 320 360" stroke="#1976d2" fill="none" stroke-width="2" marker-end="url(#ah-blue)" opacity="1"/>
<path d="M 240 520 L 320 350" stroke="#1976d2" fill="none" stroke-width="2" marker-end="url(#ah-blue)" opacity="1"/>
<path d="M 520 300 L 600 260" stroke="#1976d2" fill="none" stroke-width="2" marker-end="url(#ah-blue)" opacity="1"/>
<path d="M 740 300 L 665 330" stroke="#1976d2" fill="none" stroke-width="2" marker-end="url(#ah-blue)" opacity="1"/>
<path d="M 740 300 L 815 330" stroke="#1976d2" fill="none" stroke-width="2" marker-end="url(#ah-blue)" opacity="1"/>
<path d="M 665 300 L 665 420" stroke="#1976d2" fill="none" stroke-width="2" marker-end="url(#ah-blue)" opacity="1"/>
<path d="M 815 300 L 815 420" stroke="#1976d2" fill="none" stroke-width="2" marker-end="url(#ah-blue)" opacity="1"/>
<path d="M 665 400 L 665 520" stroke="#388e3c" fill="none" stroke-width="2" marker-end="url(#ah-green)" opacity="1"/>
<path d="M 815 400 L 740 520" stroke="#388e3c" fill="none" stroke-width="2" marker-end="url(#ah-green)" opacity="1"/>
<path d="M 665 490 L 665 520" stroke="#388e3c" fill="none" stroke-width="2" marker-end="url(#ah-green)" opacity="1"/>
<path d="M 815 490 L 740 520" stroke="#388e3c" fill="none" stroke-width="2" marker-end="url(#ah-green)" opacity="1"/>
<text x="60" y="616" font-size="16" fill="#1e1e1e" text-anchor="start" class="excalidraw-text" opacity="1">JELMAGYARÁZAT</text>
<rect x="60" y="640" width="30" height="20" stroke="#1976d2" fill="#e3f2fd" stroke-width="2" rx="0" opacity="1"/>
<text x="100" y="652" font-size="12" fill="#1e1e1e" text-anchor="start" class="excalidraw-text" opacity="1">KGC Modul / HR Funkció</text>
<rect x="60" y="670" width="30" height="20" stroke="#f57c00" fill="#fff3e0" stroke-width="2" rx="0" opacity="1"/>
<text x="100" y="682" font-size="12" fill="#1e1e1e" text-anchor="start" class="excalidraw-text" opacity="1">Integrációs Réteg</text>
<rect x="60" y="700" width="30" height="20" stroke="#388e3c" fill="#e8f5e9" stroke-width="2" rx="0" opacity="1"/>
<text x="100" y="712" font-size="12" fill="#1e1e1e" text-anchor="start" class="excalidraw-text" opacity="1">Adatbázis</text>
</svg>