<svg xmlns="http://www.w3.org/2000/svg" viewBox="0 -20 1280 700" class="w-full h-auto">
<defs>
<style>.excalidraw-text { font-family: Segoe UI, Arial, sans-serif; }</style>
<marker id="ah" markerWidth="12" markerHeight="8" refX="10" refY="4" orient="auto" markerUnits="strokeWidth">
<polygon points="0 0, 12 4, 0 8" fill="#1e1e1e"/>
</marker>
<marker id="ah-blue" markerWidth="12" markerHeight="8" refX="10" refY="4" orient="auto" markerUnits="strokeWidth">
<polygon points="0 0, 12 4, 0 8" fill="#1976d2"/>
</marker>
<marker id="ah-green" markerWidth="12" markerHeight="8" refX="10" refY="4" orient="auto" markerUnits="strokeWidth">
<polygon points="0 0, 12 4, 0 8" fill="#388e3c"/>
</marker>
<marker id="ah-orange" markerWidth="12" markerHeight="8" refX="10" refY="4" orient="auto" markerUnits="strokeWidth">
<polygon points="0 0, 12 4, 0 8" fill="#f57c00"/>
</marker>
</defs>
<rect x="0" y="-20" width="1280" height="700" fill="#ffffff"/>
<rect x="40" y="20" width="1200" height="60" stroke="#1976d2" fill="#e3f2fd" stroke-width="2" rx="8" opacity="1"/>
<text x="840" y="70" font-size="20" fill="#1e1e1e" text-anchor="middle" class="excalidraw-text" opacity="1">Support Modul - Data Flow Diagram (DFD)</text>
<text x="60" y="136" font-size="16" fill="#1976d2" text-anchor="start" class="excalidraw-text" opacity="1">External Entities</text>
<rect x="100" y="180" width="160" height="80" stroke="#1976d2" fill="#e3f2fd" stroke-width="2" rx="8" opacity="1"/>
<text x="240" y="234" font-size="14" fill="#1e1e1e" text-anchor="middle" class="excalidraw-text" opacity="1">E1: Felhasználó</text>
<text x="240" y="250.8" font-size="14" fill="#1e1e1e" text-anchor="middle" class="excalidraw-text" opacity="1">(Ügyfél)</text>
<rect x="900" y="180" width="160" height="80" stroke="#f57c00" fill="#fff3e0" stroke-width="2" rx="8" opacity="1"/>
<text x="1040" y="234" font-size="14" fill="#d32f2f" text-anchor="middle" class="excalidraw-text" opacity="1">E2: Google</text>
<text x="1040" y="250.8" font-size="14" fill="#d32f2f" text-anchor="middle" class="excalidraw-text" opacity="1">Gemini API</text>
<text x="60" y="316" font-size="16" fill="#1976d2" text-anchor="start" class="excalidraw-text" opacity="1">Processes</text>
<ellipse cx="190" cy="410" rx="90" ry="50" stroke="#1976d2" fill="#e3f2fd" stroke-width="2" opacity="1"/>
<text x="260" y="422" font-size="12" fill="#1e1e1e" text-anchor="middle" class="excalidraw-text" opacity="1">P1: Webhook</text>
<text x="260" y="436.4" font-size="12" fill="#1e1e1e" text-anchor="middle" class="excalidraw-text" opacity="1">Handling</text>
<ellipse cx="430" cy="410" rx="90" ry="50" stroke="#1976d2" fill="#e3f2fd" stroke-width="2" opacity="1"/>
<text x="500" y="422" font-size="12" fill="#1e1e1e" text-anchor="middle" class="excalidraw-text" opacity="1">P2: Context</text>
<text x="500" y="436.4" font-size="12" fill="#1e1e1e" text-anchor="middle" class="excalidraw-text" opacity="1">Management</text>
<ellipse cx="670" cy="410" rx="90" ry="50" stroke="#1976d2" fill="#e3f2fd" stroke-width="2" opacity="1"/>
<text x="740" y="422" font-size="12" fill="#1e1e1e" text-anchor="middle" class="excalidraw-text" opacity="1">P3: AI Response</text>
<text x="740" y="436.4" font-size="12" fill="#1e1e1e" text-anchor="middle" class="excalidraw-text" opacity="1">Generation</text>
<ellipse cx="910" cy="410" rx="90" ry="50" stroke="#1976d2" fill="#e3f2fd" stroke-width="2" opacity="1"/>
<text x="980" y="422" font-size="12" fill="#1e1e1e" text-anchor="middle" class="excalidraw-text" opacity="1">P4: Memory</text>
<text x="980" y="436.4" font-size="12" fill="#1e1e1e" text-anchor="middle" class="excalidraw-text" opacity="1">Management</text>
<text x="60" y="536" font-size="16" fill="#388e3c" text-anchor="start" class="excalidraw-text" opacity="1">Data Stores</text>
<rect x="100" y="580" width="220" height="60" stroke="#388e3c" fill="#e8f5e9" stroke-width="2" rx="0" opacity="1"/>
<text x="300" y="622" font-size="12" fill="#1e1e1e" text-anchor="middle" class="excalidraw-text" opacity="1">D1: PostgreSQL DB</text>
<rect x="360" y="580" width="200" height="60" stroke="#388e3c" fill="#e8f5e9" stroke-width="2" rx="0" opacity="1"/>
<text x="540" y="622" font-size="12" fill="#1e1e1e" text-anchor="middle" class="excalidraw-text" opacity="1">D2: Redis Cache</text>
<rect x="600" y="580" width="200" height="60" stroke="#388e3c" fill="#e8f5e9" stroke-width="2" rx="0" opacity="1"/>
<text x="790" y="622" font-size="12" fill="#1e1e1e" text-anchor="middle" class="excalidraw-text" opacity="1">D3: Knowledge Base</text>
<rect x="840" y="580" width="200" height="60" stroke="#388e3c" fill="#e8f5e9" stroke-width="2" rx="0" opacity="1"/>
<text x="1020" y="622" font-size="12" fill="#1e1e1e" text-anchor="middle" class="excalidraw-text" opacity="1">D4: Memory Store</text>
<path d="M 180 260 L 180 360" stroke="#1976d2" fill="none" stroke-width="2" marker-end="url(#ah-blue)" opacity="1"/>
<text x="200" y="310" font-size="10" fill="#1976d2" text-anchor="start" class="excalidraw-text" opacity="1">Üzenet</text>
<path d="M 280 410 L 340 410" stroke="#1976d2" fill="none" stroke-width="2" marker-end="url(#ah-blue)" opacity="1"/>
<text x="285" y="430" font-size="10" fill="#1976d2" text-anchor="start" class="excalidraw-text" opacity="1">Request</text>
<path d="M 520 410 L 580 410" stroke="#1976d2" fill="none" stroke-width="2" marker-end="url(#ah-blue)" opacity="1"/>
<text x="525" y="430" font-size="10" fill="#1976d2" text-anchor="start" class="excalidraw-text" opacity="1">Context</text>
<path d="M 670 360 L 670 260" stroke="#f57c00" fill="none" stroke-width="2" marker-end="url(#ah-orange)" opacity="1"/>
<path d="M 690 260 L 690 360" stroke="#f57c00" fill="none" stroke-width="2" opacity="1"/>
<text x="700" y="305" font-size="10" fill="#f57c00" text-anchor="start" class="excalidraw-text" opacity="1">API Call / Response</text>
<path d="M 760 410 L 820 410" stroke="#1976d2" fill="none" stroke-width="2" marker-end="url(#ah-blue)" opacity="1"/>
<text x="765" y="430" font-size="10" fill="#1976d2" text-anchor="start" class="excalidraw-text" opacity="1">Data</text>
<path d="M 190 460 L 190 580" stroke="#388e3c" fill="none" stroke-width="2" marker-end="url(#ah-green)" opacity="1"/>
<path d="M 430 460 L 430 580" stroke="#388e3c" fill="none" stroke-width="2" marker-end="url(#ah-green)" opacity="1"/>
<path d="M 670 460 L 670 580" stroke="#388e3c" fill="none" stroke-width="2" marker-end="url(#ah-green)" opacity="1"/>
<path d="M 910 460 L 910 580" stroke="#388e3c" fill="none" stroke-width="2" marker-end="url(#ah-green)" opacity="1"/>
</svg>