<svg xmlns="http://www.w3.org/2000/svg" viewBox="-40 -40 1520 980" class="w-full h-auto">
<defs>
<style>.excalidraw-text { font-family: Segoe UI, Arial, sans-serif; }</style>
<marker id="ah" markerWidth="12" markerHeight="8" refX="10" refY="4" orient="auto" markerUnits="strokeWidth">
<polygon points="0 0, 12 4, 0 8" fill="#1e1e1e"/>
</marker>
<marker id="ah-blue" markerWidth="12" markerHeight="8" refX="10" refY="4" orient="auto" markerUnits="strokeWidth">
<polygon points="0 0, 12 4, 0 8" fill="#1976d2"/>
</marker>
<marker id="ah-green" markerWidth="12" markerHeight="8" refX="10" refY="4" orient="auto" markerUnits="strokeWidth">
<polygon points="0 0, 12 4, 0 8" fill="#388e3c"/>
</marker>
<marker id="ah-orange" markerWidth="12" markerHeight="8" refX="10" refY="4" orient="auto" markerUnits="strokeWidth">
<polygon points="0 0, 12 4, 0 8" fill="#f57c00"/>
</marker>
</defs>
<rect x="-40" y="-40" width="1520" height="980" fill="#EAECEF"/>
<rect x="0" y="0" width="1440" height="900" stroke="#D0D4D9" fill="#EAECEF" stroke-width="1" rx="0" opacity="1"/>
<rect x="0" y="0" width="1440" height="64" stroke="#1A2634" fill="#1A2634" stroke-width="1" rx="0" opacity="1"/>
<text x="20" y="42" font-size="24" fill="#ffffff" text-anchor="start" class="excalidraw-text" opacity="1">KGC ERP</text>
<text x="200" y="38" font-size="16" fill="#718096" text-anchor="start" class="excalidraw-text" opacity="1">/ Integraciok / 3D Foto Dokumentacio</text>
<text x="1240" y="36" font-size="14" fill="#ffffff" text-anchor="middle" class="excalidraw-text" opacity="1">4:15</text>
<text x="1420" y="36" font-size="14" fill="#ffffff" text-anchor="end" class="excalidraw-text" opacity="1">Nagy Janos</text>
<text x="30" y="112" font-size="28" fill="#1A1F26" text-anchor="start" class="excalidraw-text" opacity="1">3D Foto Dokumentacio</text>
<text x="30" y="132" font-size="14" fill="#4A5568" text-anchor="start" class="excalidraw-text" opacity="1">Termek allapot rogzitese 360 fokos fotosorozattal</text>
<rect x="30" y="155" width="200" height="520" stroke="#D0D4D9" fill="#F8F9FA" stroke-width="1" rx="8" opacity="1"/>
<text x="50" y="186" font-size="16" fill="#1A1F26" text-anchor="start" class="excalidraw-text" opacity="1">Foto poziciok</text>
<text x="50" y="207" font-size="12" fill="#718096" text-anchor="start" class="excalidraw-text" opacity="1">8 szog szukseges</text>
<rect x="45" y="229" width="170" height="48" stroke="transparent" fill="#2e7d32" stroke-width="1" rx="6" opacity="1"/>
<rect x="45" y="225" width="170" height="48" stroke="#2e7d32" fill="#4caf50" stroke-width="2" rx="6" opacity="1"/>
<text x="67" y="249" font-size="12" fill="#ffffff" text-anchor="middle" class="excalidraw-text" opacity="1">OK</text>
<text x="85" y="251" font-size="14" fill="#ffffff" text-anchor="start" class="excalidraw-text" opacity="1">1. Elolrol</text>
<text x="85" y="266" font-size="11" fill="#ffffff" text-anchor="start" class="excalidraw-text" opacity="1">Kesz</text>
<rect x="45" y="284" width="170" height="48" stroke="transparent" fill="#2e7d32" stroke-width="1" rx="6" opacity="1"/>
<rect x="45" y="280" width="170" height="48" stroke="#2e7d32" fill="#4caf50" stroke-width="2" rx="6" opacity="1"/>
<text x="67" y="304" font-size="12" fill="#ffffff" text-anchor="middle" class="excalidraw-text" opacity="1">OK</text>
<text x="85" y="306" font-size="14" fill="#ffffff" text-anchor="start" class="excalidraw-text" opacity="1">2. Hatulrol</text>
<text x="85" y="321" font-size="11" fill="#ffffff" text-anchor="start" class="excalidraw-text" opacity="1">Kesz</text>
<rect x="45" y="339" width="170" height="48" stroke="transparent" fill="#8A3200" stroke-width="1" rx="6" opacity="1"/>
<rect x="45" y="335" width="170" height="48" stroke="#8A3200" fill="#BF4400" stroke-width="2" rx="6" opacity="1"/>
<text x="67" y="363" font-size="16" fill="#ffffff" text-anchor="middle" class="excalidraw-text" opacity="1">&gt;&gt;</text>
<text x="85" y="361" font-size="14" fill="#ffffff" text-anchor="start" class="excalidraw-text" opacity="1">3. Bal oldal</text>
<text x="85" y="376" font-size="11" fill="#ffffff" text-anchor="start" class="excalidraw-text" opacity="1">Aktualis</text>
<rect x="45" y="390" width="170" height="48" stroke="#D0D4D9" fill="#F8F9FA" stroke-width="1" rx="6" opacity="1"/>
<text x="67" y="418" font-size="16" fill="#718096" text-anchor="middle" class="excalidraw-text" opacity="1">--</text>
<text x="85" y="416" font-size="14" fill="#4A5568" text-anchor="start" class="excalidraw-text" opacity="1">4. Jobb oldal</text>
<text x="85" y="431" font-size="11" fill="#718096" text-anchor="start" class="excalidraw-text" opacity="1">Varakozik</text>
<rect x="45" y="445" width="170" height="48" stroke="#D0D4D9" fill="#F8F9FA" stroke-width="1" rx="6" opacity="1"/>
<text x="67" y="473" font-size="16" fill="#718096" text-anchor="middle" class="excalidraw-text" opacity="1">--</text>
<text x="85" y="471" font-size="14" fill="#4A5568" text-anchor="start" class="excalidraw-text" opacity="1">5. Bal elso sarok</text>
<text x="85" y="486" font-size="11" fill="#718096" text-anchor="start" class="excalidraw-text" opacity="1">Varakozik</text>
<rect x="45" y="500" width="170" height="48" stroke="#D0D4D9" fill="#F8F9FA" stroke-width="1" rx="6" opacity="1"/>
<text x="67" y="528" font-size="16" fill="#718096" text-anchor="middle" class="excalidraw-text" opacity="1">--</text>
<text x="85" y="526" font-size="14" fill="#4A5568" text-anchor="start" class="excalidraw-text" opacity="1">6. Jobb elso sarok</text>
<text x="85" y="541" font-size="11" fill="#718096" text-anchor="start" class="excalidraw-text" opacity="1">Varakozik</text>
<rect x="45" y="555" width="170" height="48" stroke="#D0D4D9" fill="#F8F9FA" stroke-width="1" rx="6" opacity="1"/>
<text x="67" y="583" font-size="16" fill="#718096" text-anchor="middle" class="excalidraw-text" opacity="1">--</text>
<text x="85" y="581" font-size="14" fill="#4A5568" text-anchor="start" class="excalidraw-text" opacity="1">7. Bal hatso sarok</text>
<text x="85" y="596" font-size="11" fill="#718096" text-anchor="start" class="excalidraw-text" opacity="1">Varakozik</text>
<rect x="45" y="610" width="170" height="48" stroke="#D0D4D9" fill="#F8F9FA" stroke-width="1" rx="6" opacity="1"/>
<text x="67" y="638" font-size="16" fill="#718096" text-anchor="middle" class="excalidraw-text" opacity="1">--</text>
<text x="85" y="636" font-size="14" fill="#4A5568" text-anchor="start" class="excalidraw-text" opacity="1">8. Jobb hatso sarok</text>
<text x="85" y="651" font-size="11" fill="#718096" text-anchor="start" class="excalidraw-text" opacity="1">Varakozik</text>
<rect x="250" y="155" width="700" height="520" stroke="#1A2634" fill="#1A2634" stroke-width="2" rx="12" opacity="1"/>
<rect x="310" y="200" width="580" height="380" stroke="#ffffff" fill="transparent" stroke-width="2" rx="8" opacity="0.6"/>
<path d="M 570 390 L 630 390" stroke="#ffffff" fill="none" stroke-width="1" opacity="0.8"/>
<path d="M 600 360 L 600 420" stroke="#ffffff" fill="none" stroke-width="1" opacity="0.8"/>
<text x="600" y="248" font-size="18" fill="#ffffff" text-anchor="middle" class="excalidraw-text" opacity="1">Bal oldal - pozicionalas</text>
<rect x="430" y="300" width="340" height="220" stroke="#4A5568" fill="#4A5568" stroke-width="1" rx="4" opacity="1"/>
<text x="600" y="414" font-size="14" fill="#718096" text-anchor="middle" class="excalidraw-text" opacity="1">[Kamera elonezet]</text>
<rect x="250" y="600" width="700" height="75" stroke="#1A2634" fill="#4A5568" stroke-width="1" rx="0" opacity="1"/>
<rect x="320" y="619" width="60" height="44" stroke="transparent" fill="#1A2634" stroke-width="1" rx="8" opacity="1"/>
<rect x="320" y="615" width="60" height="44" stroke="#D0D4D9" fill="#F8F9FA" stroke-width="1" rx="8" opacity="1"/>
<text x="350" y="639" font-size="12" fill="#1A1F26" text-anchor="middle" class="excalidraw-text" opacity="1">Flash</text>
<ellipse cx="587" cy="641" rx="32" ry="32" stroke="transparent" fill="#8A3200" stroke-width="1" opacity="1"/>
<ellipse cx="587" cy="637" rx="32" ry="32" stroke="#ffffff" fill="#ffffff" stroke-width="3" opacity="1"/>
<ellipse cx="587" cy="637" rx="24" ry="24" stroke="#BF4400" fill="#BF4400" stroke-width="1" opacity="1"/>
<rect x="820" y="619" width="60" height="44" stroke="transparent" fill="#1A2634" stroke-width="1" rx="8" opacity="1"/>
<rect x="820" y="615" width="60" height="44" stroke="#D0D4D9" fill="#F8F9FA" stroke-width="1" rx="8" opacity="1"/>
<text x="850" y="639" font-size="12" fill="#1A1F26" text-anchor="middle" class="excalidraw-text" opacity="1">Valt</text>
<rect x="970" y="155" width="440" height="520" stroke="#D0D4D9" fill="#F8F9FA" stroke-width="1" rx="8" opacity="1"/>
<text x="990" y="186" font-size="16" fill="#1A1F26" text-anchor="start" class="excalidraw-text" opacity="1">Termek adatok</text>
<text x="990" y="223" font-size="13" fill="#4A5568" text-anchor="start" class="excalidraw-text" opacity="1">Termek azonosito</text>
<rect x="990" y="230" width="400" height="40" stroke="#D0D4D9" fill="#EAECEF" stroke-width="1" rx="6" opacity="1"/>
<text x="1005" y="256" font-size="14" fill="#1A1F26" text-anchor="start" class="excalidraw-text" opacity="1">BG-2026-0087</text>
<text x="990" y="303" font-size="13" fill="#4A5568" text-anchor="start" class="excalidraw-text" opacity="1">Kategoria</text>
<rect x="990" y="310" width="400" height="40" stroke="#D0D4D9" fill="#F8F9FA" stroke-width="1" rx="6" opacity="1"/>
<text x="1005" y="336" font-size="14" fill="#1A1F26" text-anchor="start" class="excalidraw-text" opacity="1">Furokalapacs</text>
<text x="1370" y="336" font-size="14" fill="#718096" text-anchor="middle" class="excalidraw-text" opacity="1">v</text>
<text x="990" y="383" font-size="13" fill="#4A5568" text-anchor="start" class="excalidraw-text" opacity="1">Allapot</text>
<rect x="990" y="396" width="95" height="36" stroke="transparent" fill="#D0D4D9" stroke-width="1" rx="6" opacity="1"/>
<rect x="990" y="392" width="95" height="36" stroke="#D0D4D9" fill="#F8F9FA" stroke-width="1" rx="6" opacity="1"/>
<text x="1037.5" y="414" font-size="12" fill="#4A5568" text-anchor="middle" class="excalidraw-text" opacity="1">Ujszeru</text>
<rect x="1095" y="396" width="95" height="36" stroke="transparent" fill="#8A3200" stroke-width="1" rx="6" opacity="1"/>
<rect x="1095" y="392" width="95" height="36" stroke="#8A3200" fill="#BF4400" stroke-width="1" rx="6" opacity="1"/>
<text x="1142.5" y="414" font-size="12" fill="#ffffff" text-anchor="middle" class="excalidraw-text" opacity="1">Jo</text>
<rect x="1200" y="396" width="95" height="36" stroke="transparent" fill="#D0D4D9" stroke-width="1" rx="6" opacity="1"/>
<rect x="1200" y="392" width="95" height="36" stroke="#D0D4D9" fill="#F8F9FA" stroke-width="1" rx="6" opacity="1"/>
<text x="1247.5" y="414" font-size="12" fill="#4A5568" text-anchor="middle" class="excalidraw-text" opacity="1">Kopott</text>
<rect x="1305" y="396" width="85" height="36" stroke="transparent" fill="#D0D4D9" stroke-width="1" rx="6" opacity="1"/>
<rect x="1305" y="392" width="85" height="36" stroke="#D0D4D9" fill="#F8F9FA" stroke-width="1" rx="6" opacity="1"/>
<text x="1347.5" y="414" font-size="12" fill="#4A5568" text-anchor="middle" class="excalidraw-text" opacity="1">Serult</text>
<text x="990" y="461" font-size="13" fill="#4A5568" text-anchor="start" class="excalidraw-text" opacity="1">Megjegyzes</text>
<rect x="990" y="468" width="400" height="100" stroke="#D0D4D9" fill="#F8F9FA" stroke-width="1" rx="6" opacity="1"/>
<text x="1005" y="498" font-size="13" fill="#718096" text-anchor="start" class="excalidraw-text" opacity="1">Termek allapotaval kapcsolatos megjegyzesek...</text>
<rect x="990" y="594" width="195" height="48" stroke="transparent" fill="#8A3200" stroke-width="1" rx="8" opacity="1"/>
<rect x="990" y="590" width="195" height="48" stroke="#8A3200" fill="#BF4400" stroke-width="1" rx="8" opacity="1"/>
<text x="1087.5" y="620" font-size="16" fill="#ffffff" text-anchor="middle" class="excalidraw-text" opacity="1">Mentes</text>
<rect x="1195" y="594" width="195" height="48" stroke="transparent" fill="#D0D4D9" stroke-width="1" rx="8" opacity="1"/>
<rect x="1195" y="590" width="195" height="48" stroke="#D0D4D9" fill="#F8F9FA" stroke-width="1" rx="8" opacity="1"/>
<text x="1292.5" y="620" font-size="16" fill="#4A5568" text-anchor="middle" class="excalidraw-text" opacity="1">Megse</text>
<rect x="30" y="695" width="1380" height="180" stroke="#D0D4D9" fill="#F8F9FA" stroke-width="1" rx="8" opacity="1"/>
<text x="50" y="726" font-size="16" fill="#1A1F26" text-anchor="start" class="excalidraw-text" opacity="1">Keszitett fotok (2/8)</text>
<rect x="270" y="712" width="200" height="18" stroke="#D0D4D9" fill="#D0D4D9" stroke-width="1" rx="9" opacity="1"/>
<rect x="270" y="712" width="50" height="18" stroke="#BF4400" fill="#BF4400" stroke-width="1" rx="9" opacity="1"/>
<text x="480" y="725" font-size="13" fill="#4A5568" text-anchor="start" class="excalidraw-text" opacity="1">25%</text>
<rect x="50" y="745" width="150" height="110" stroke="#4caf50" fill="#4A5568" stroke-width="3" rx="6" opacity="1"/>
<text x="60" y="766" font-size="11" fill="#ffffff" text-anchor="start" class="excalidraw-text" opacity="1">1. Elolrol</text>
<text x="182" y="766" font-size="11" fill="#4caf50" text-anchor="middle" class="excalidraw-text" opacity="1">OK</text>
<rect x="215" y="745" width="150" height="110" stroke="#4caf50" fill="#4A5568" stroke-width="3" rx="6" opacity="1"/>
<text x="225" y="766" font-size="11" fill="#ffffff" text-anchor="start" class="excalidraw-text" opacity="1">2. Hatulrol</text>
<text x="347" y="766" font-size="11" fill="#4caf50" text-anchor="middle" class="excalidraw-text" opacity="1">OK</text>
<rect x="380" y="745" width="150" height="110" stroke="#BF4400" fill="#1A2634" stroke-width="3" rx="6" opacity="1"/>
<text x="390" y="766" font-size="11" fill="#ffffff" text-anchor="start" class="excalidraw-text" opacity="1">3. Bal oldal</text>
<text x="460" y="807" font-size="12" fill="#BF4400" text-anchor="middle" class="excalidraw-text" opacity="1">Aktualis</text>
<rect x="545" y="745" width="150" height="110" stroke="#D0D4D9" fill="#EAECEF" stroke-width="1" rx="6" opacity="1"/>
<text x="555" y="766" font-size="11" fill="#718096" text-anchor="start" class="excalidraw-text" opacity="1">4. Jobb oldal</text>
<text x="620" y="807" font-size="12" fill="#718096" text-anchor="middle" class="excalidraw-text" opacity="1">Varakozik</text>
<rect x="710" y="745" width="150" height="110" stroke="#D0D4D9" fill="#EAECEF" stroke-width="1" rx="6" opacity="1"/>
<text x="720" y="766" font-size="11" fill="#718096" text-anchor="start" class="excalidraw-text" opacity="1">5. Bal elso sarok</text>
<text x="785" y="807" font-size="12" fill="#718096" text-anchor="middle" class="excalidraw-text" opacity="1">Varakozik</text>
<rect x="875" y="745" width="150" height="110" stroke="#D0D4D9" fill="#EAECEF" stroke-width="1" rx="6" opacity="1"/>
<text x="885" y="766" font-size="11" fill="#718096" text-anchor="start" class="excalidraw-text" opacity="1">6. Jobb elso sarok</text>
<text x="950" y="807" font-size="12" fill="#718096" text-anchor="middle" class="excalidraw-text" opacity="1">Varakozik</text>
<rect x="1040" y="745" width="150" height="110" stroke="#D0D4D9" fill="#EAECEF" stroke-width="1" rx="6" opacity="1"/>
<text x="1050" y="766" font-size="11" fill="#718096" text-anchor="start" class="excalidraw-text" opacity="1">7. Bal hatso sarok</text>
<text x="1115" y="807" font-size="12" fill="#718096" text-anchor="middle" class="excalidraw-text" opacity="1">Varakozik</text>
<rect x="1205" y="745" width="150" height="110" stroke="#D0D4D9" fill="#EAECEF" stroke-width="1" rx="6" opacity="1"/>
<text x="1215" y="766" font-size="11" fill="#718096" text-anchor="start" class="excalidraw-text" opacity="1">8. Jobb hatso sarok</text>
<text x="1280" y="807" font-size="12" fill="#718096" text-anchor="middle" class="excalidraw-text" opacity="1">Varakozik</text>
</svg>